<svg width="58" height="42" viewBox="0 0 58 42" fill="none" xmlns="http://www.w3.org/2000/svg">
<g clip-path="url(#clip0_35_336)">
<path d="M6.10352e-05 9.36982C0.280517 8.59817 0.850474 8.22153 1.61042 8.00105C10.3045 5.4105 18.9987 2.81077 27.6928 0.211029C28.5341 -0.0370029 29.3484 -0.0737483 30.1988 0.174283C35.2017 1.68084 40.2138 3.15985 45.2077 4.68478C45.5153 4.77665 45.8771 5.10735 45.9676 5.40132C46.1847 6.09029 45.5334 6.5588 44.7463 6.32914C43.335 5.91575 41.9236 5.49318 40.5123 5.07061C36.9478 4.00499 33.3924 2.94856 29.8279 1.87376C29.2669 1.69922 28.7332 1.7084 28.1723 1.87376C19.5505 4.45512 10.9288 7.0273 2.30703 9.60867C2.18038 9.64541 2.06277 9.69134 1.8185 9.78321C3.06698 10.1598 4.20689 10.5089 5.34681 10.8488C9.25509 12.0155 13.1543 13.173 17.0626 14.3396C17.1893 14.3764 17.3159 14.4131 17.4426 14.4682C17.8949 14.6703 18.103 15.1113 17.9492 15.543C17.7954 15.984 17.3883 16.2137 16.9088 16.0942C16.2755 15.9289 15.6422 15.7268 15.009 15.5339C14.8371 15.4787 14.6561 15.442 14.4209 15.3777C14.4209 16.5168 14.4028 17.61 14.439 18.694C14.448 18.8593 14.6742 19.0614 14.8461 19.1717C17.135 20.6231 19.6229 21.6336 22.2556 22.2032C28.6518 23.5903 34.8941 23.1861 40.9013 20.4118C41.7065 20.0444 42.4664 19.5759 43.2354 19.1257C43.3892 19.0339 43.4978 18.8318 43.5792 18.6664C43.6245 18.5745 43.5883 18.4368 43.5883 18.3265C43.5883 17.3711 43.5883 16.4158 43.5883 15.3777C42.7379 15.6257 41.9508 15.8462 41.1637 16.085C37.5268 17.169 33.899 18.253 30.2712 19.3554C29.4298 19.6126 28.6065 19.6218 27.7652 19.3646C25.4763 18.6664 23.1783 17.9866 20.8804 17.2976C20.7719 17.2609 20.6633 17.2333 20.5547 17.1966C20.0662 17.0129 19.8219 16.5719 19.9667 16.1126C20.1024 15.6625 20.5457 15.4144 21.0523 15.5614C22.8074 16.0759 24.5625 16.6087 26.3176 17.1139C29.6017 18.0601 28.3532 18.106 31.7187 17.1139C37.0383 15.5339 42.3488 13.9446 47.6684 12.3646C47.8946 12.3003 48.1117 12.2084 48.3198 12.0522C45.9948 11.8593 43.6697 11.6664 41.3356 11.4643C37.8977 11.1795 34.4508 10.8948 31.013 10.61C30.5788 10.5732 30.1445 10.5549 29.7193 10.4997C29.1222 10.4171 28.8327 10.0772 28.8779 9.55355C28.9232 9.03911 29.276 8.75434 29.8821 8.80027C31.6282 8.92888 33.3833 9.07586 35.1294 9.22284C38.5672 9.50762 42.0141 9.80158 45.4519 10.0864C47.8041 10.2793 50.1473 10.5181 52.5086 10.6467C53.2142 10.6835 53.938 10.4263 54.6527 10.2701C55.1412 10.1598 55.6207 9.98531 56.2359 9.79239C54.5713 9.29633 53.0423 8.83701 51.5043 8.3777C50.5997 8.11129 49.695 7.84489 48.7903 7.5693C48.1841 7.34882 47.9127 6.92625 48.0484 6.43019C48.1841 5.93413 48.6546 5.70447 49.2336 5.87901C51.7124 6.61392 54.1913 7.34882 56.6611 8.1021C57.5477 8.36851 58.0091 8.99318 58.0001 9.80158C57.982 10.5916 57.5206 11.1703 56.6611 11.4459C55.9012 11.6848 55.1412 11.8869 54.3903 12.1441C54.2456 12.19 54.0646 12.4105 54.0646 12.5575C54.0465 14.6244 54.0465 16.6913 54.0465 18.7491C56.9054 19.6677 57.602 23.0759 55.3674 25.0785C56.7244 27.2556 56.6792 29.6992 56.6611 32.1244C56.6521 33.1808 55.8288 34.0352 54.7432 34.127C53.7299 34.2097 52.6985 34.2189 51.6943 34.1362C50.5092 34.0444 49.704 33.089 49.7311 31.8764C49.7583 30.673 49.8397 29.4696 49.9483 28.2661C50.0568 27.127 50.3825 26.0522 51.0701 25.0877C50.2378 24.3436 49.7221 23.4525 49.7131 22.3042C49.704 20.8068 50.5363 19.5391 51.9296 18.9328C52.1014 18.8593 52.3276 18.6572 52.3276 18.5102C52.3548 16.6179 52.3457 14.7255 52.3457 12.7504C51.3234 13.0535 50.3554 13.3475 49.3874 13.6323C48.1751 13.9906 46.9628 14.358 45.7505 14.6979C45.4067 14.799 45.28 14.9551 45.28 15.3318C45.2981 17.6284 45.271 19.9249 45.2981 22.2215C45.3162 23.7189 44.7101 24.7661 43.3892 25.4551C40.2499 27.0995 36.9116 28.0273 33.4195 28.4591C33.1029 28.4958 32.7862 28.5417 32.4515 28.652C32.9581 28.8081 33.4557 28.9735 33.9623 29.1297C36.016 29.7635 38.0606 30.4525 40.1323 31.0129C42.0231 31.5273 42.6474 32.6664 42.8012 34.4118C42.9912 36.589 42.3669 38.5732 41.0642 40.3186C40.4399 41.1546 39.6257 41.7058 38.6486 42.0089C38.4225 42.0089 38.1963 42.0089 37.9701 42.0089C37.762 41.9354 37.554 41.8528 37.3368 41.7885C26.589 38.4538 15.8322 35.1192 5.0754 31.8029C4.13452 31.5089 3.51932 30.921 3.15745 30.0116C2.75033 28.9919 2.69605 27.9262 2.84985 26.8514C3.13031 24.9315 3.81787 23.1953 5.29253 21.8816C6.18818 21.0824 7.18334 20.7793 8.37754 21.1927C9.6622 21.6428 10.965 22.0011 12.2677 22.4053C12.4034 22.442 12.5391 22.4604 12.7291 22.4879C12.7291 22.2583 12.7291 22.0837 12.7291 21.9184C12.7291 19.7596 12.711 17.5916 12.7382 15.4328C12.7472 14.9551 12.5844 14.7898 12.1501 14.6612C8.65799 13.6415 5.17492 12.5759 1.68279 11.5562C0.895709 11.3173 0.29861 10.9591 6.10352e-05 10.1782C6.10352e-05 9.90263 6.10352e-05 9.63622 6.10352e-05 9.36982ZM7.78044 30.82C7.9071 30.8659 8.03375 30.921 8.16041 30.9577C12.4668 32.2898 16.7822 33.6034 21.0704 34.9814C22.0113 35.2845 22.6536 35.0273 23.2145 34.3291C24.4087 32.8226 24.9063 31.1047 24.6892 29.1848C24.5987 28.3764 24.2097 27.8619 23.3593 27.6231C20.808 26.8882 18.2749 26.0706 15.7327 25.2806C13.8238 24.6927 11.9239 24.1047 9.9698 23.4984C10.006 24.0312 10.0603 24.4997 10.0603 24.9774C10.0603 25.5929 9.71649 25.9971 9.2189 26.0063C8.71227 26.0155 8.40468 25.6297 8.35944 25.005C8.31421 24.4906 8.27802 23.9669 8.12422 23.4892C7.85281 22.6625 7.30095 22.5063 6.58624 23.0116C6.41435 23.131 6.26055 23.2688 6.1158 23.4249C5.19301 24.4263 4.68638 25.6388 4.55068 26.9709C4.46925 27.7517 4.53258 28.5785 4.71352 29.3409C4.91256 30.1585 5.53679 30.3423 6.18818 29.8095C6.64957 29.4328 7.01145 28.9276 7.38237 28.4499C7.74425 27.9814 8.16946 27.8252 8.59466 28.0824C9.02892 28.3488 9.13748 28.8633 8.81179 29.3777C8.51324 29.8646 8.15136 30.3055 7.78044 30.82ZM24.1283 35.8816C24.3635 35.9643 24.5354 36.0286 24.7163 36.0837C29.0227 37.4157 33.329 38.7294 37.6263 40.0982C38.2958 40.3095 38.8205 40.2084 39.2729 39.7307C40.8018 38.0955 41.3808 36.148 40.9918 33.9341C40.8832 33.3278 40.5304 32.9604 39.8971 32.7675C36.3417 31.6927 32.7953 30.5811 29.2489 29.4787C28.2899 29.1848 27.3219 28.8816 26.3267 28.5785C26.6976 31.3711 25.9919 33.778 24.1283 35.8816ZM14.4119 21.0457C14.4119 21.5417 14.4209 22.0286 14.4119 22.5247C14.4028 22.9197 14.5566 23.131 14.9547 23.2504C18.4739 24.316 21.9841 25.4184 25.4944 26.4932C26.0643 26.6677 26.6524 26.8974 27.2404 26.9249C29.7917 27.0627 32.3339 26.9433 34.8489 26.484C37.6082 25.9787 40.268 25.1703 42.7559 23.82C43.1812 23.5903 43.5249 23.2871 43.5521 22.7819C43.5883 22.2032 43.5611 21.6152 43.5611 21.0457C33.8538 25.9328 24.1735 25.9328 14.4119 21.0457ZM53.1328 32.4367C53.4947 32.4367 53.8475 32.4459 54.2094 32.4367C54.8517 32.4276 55.0055 32.2806 54.9784 31.61C54.9422 30.6546 54.9512 29.69 54.8065 28.753C54.6798 27.9354 54.4627 27.0995 54.1008 26.3646C53.7118 25.5654 52.8071 25.5929 52.3095 26.337C52.1105 26.631 51.9205 26.9801 51.8843 27.32C51.7034 28.8357 51.5677 30.3514 51.432 31.8764C51.3958 32.253 51.6581 32.4276 52.0019 32.4367C52.3729 32.4459 52.7528 32.4367 53.1328 32.4367ZM51.4139 22.2491C51.4229 23.2504 52.2462 24.068 53.2142 24.0588C54.1913 24.0496 54.9965 23.2045 54.9874 22.2123C54.9784 21.2202 54.1551 20.3934 53.178 20.4026C52.201 20.421 51.4048 21.2478 51.4139 22.2491Z" fill="white"/>
</g>
<defs>
<clipPath id="clip0_35_336">
<rect width="58" height="42" fill="white" transform="translate(6.10352e-05 -0.000244141)"/>
</clipPath>
</defs>
</svg>
