<svg width="52" height="52" viewBox="0 0 52 52" fill="none" xmlns="http://www.w3.org/2000/svg">
<path d="M6.10352e-05 18.648C6.10352e-05 17.4735 6.10352e-05 16.308 6.10352e-05 15.1335C0.224199 14.9273 0.42144 14.6763 0.68144 14.5239C2.66282 13.3584 4.65316 12.2198 6.64351 11.0632C13.027 7.38734 19.4014 3.69355 25.7849 -0.000244141C25.9283 -0.000244141 26.0808 -0.000244141 26.2242 -0.000244141C26.2421 0.00872138 26.2511 0.0266524 26.269 0.0356179C34.607 4.85907 42.9449 9.67355 51.2828 14.506C51.5608 14.6673 51.767 14.9273 52.009 15.1425C52.009 16.317 52.009 17.4825 52.009 18.657C51.758 18.8184 51.5249 19.0246 51.2559 19.1322C51.0676 19.2039 50.8256 19.1591 50.6014 19.1591C49.4001 19.1591 48.2076 19.1591 46.9614 19.1591C46.9704 20.3156 47.1497 21.517 45.6794 21.7949C45.6794 28.7522 45.6794 35.6467 45.6794 42.577C46.2621 42.577 46.809 42.577 47.3559 42.577C48.6739 42.577 48.7725 42.6846 48.7725 44.0204C48.7725 44.8363 48.7725 45.6522 48.7725 46.5218C49.4897 46.5218 50.1442 46.5487 50.7897 46.5129C51.2739 46.486 51.6773 46.5936 52.0001 46.9611C52.0001 48.6377 52.0001 50.3232 52.0001 52.0087C34.6697 52.0087 17.3304 52.0087 6.10352e-05 52.0087C6.10352e-05 50.3232 6.10352e-05 48.6467 6.10352e-05 46.9611C0.32282 46.5936 0.726268 46.486 1.21937 46.5129C1.87385 46.5487 2.52834 46.5218 3.23661 46.5218C3.23661 45.4818 3.22765 44.5046 3.23661 43.5273C3.24558 42.828 3.50558 42.586 4.21385 42.577C4.92213 42.568 5.62144 42.577 6.33868 42.577C6.33868 35.6108 6.33868 28.7073 6.33868 21.786C4.81454 21.4811 5.06558 20.2439 5.03868 19.1591C3.66696 19.1591 2.36696 19.1501 1.07592 19.168C0.618682 19.1591 0.260061 19.0335 6.10352e-05 18.648ZM50.467 17.5901C50.467 17.1418 50.4401 16.7384 50.4759 16.3349C50.5118 15.9315 50.3594 15.7253 50.0097 15.5191C42.147 10.9915 34.2932 6.44596 26.4483 1.90045C26.1256 1.71217 25.8835 1.71217 25.5608 1.90045C21.858 4.06114 18.1373 6.20389 14.4256 8.35562C10.2656 10.7584 6.11454 13.1611 1.96351 15.5729C1.79316 15.6625 1.56903 15.8508 1.56006 16.0032C1.50627 16.5232 1.54213 17.0432 1.54213 17.5901C17.8683 17.5901 34.1318 17.5901 50.467 17.5901ZM17.6352 42.5501C17.6352 42.308 17.6352 42.1108 17.6352 41.9135C17.6352 39.8067 17.6352 37.7087 17.6352 35.6018C17.6352 31.1729 17.6352 26.7529 17.6442 22.3239C17.6442 21.9832 17.6083 21.777 17.2139 21.6425C16.649 21.4632 16.3442 20.997 16.3263 20.3873C16.3173 19.9929 16.3263 19.5984 16.3263 19.186C15.2325 19.186 14.2194 19.186 13.2152 19.186C13.1704 19.7508 13.1794 20.2887 13.0628 20.7908C12.9283 21.3825 12.4352 21.6515 11.8794 21.777C11.8794 28.7163 11.8794 35.6108 11.8794 42.5411C13.789 42.5501 15.6718 42.5501 17.6352 42.5501ZM40.1208 42.5501C40.1208 35.6018 40.1208 28.6984 40.1208 21.777C38.5966 21.4722 38.8566 20.2529 38.8208 19.1949C37.7628 19.1949 36.7497 19.1949 35.6649 19.1949C35.6649 19.6342 35.6739 20.0287 35.6649 20.4232C35.638 21.006 35.3511 21.4632 34.8042 21.6425C34.3828 21.777 34.3559 22.0101 34.3559 22.3598C34.3649 28.8867 34.3649 35.4135 34.3649 41.9404C34.3649 42.1377 34.3649 42.326 34.3649 42.5411C36.3194 42.5501 38.1932 42.5501 40.1208 42.5501ZM23.167 21.777C23.167 28.7432 23.167 35.6377 23.167 42.5322C25.0856 42.5322 26.9594 42.5322 28.8511 42.5322C28.8511 35.6018 28.8511 28.6984 28.8511 21.777C27.3539 21.4632 27.578 20.2529 27.5421 19.1949C26.4842 19.1949 25.4801 19.1949 24.4401 19.1949C24.4311 20.2977 24.6194 21.4632 23.167 21.777ZM50.4401 48.0908C34.1228 48.0908 17.8504 48.0908 1.57799 48.0908C1.57799 48.8977 1.57799 49.6777 1.57799 50.4398C17.8863 50.4398 34.1497 50.4398 50.4401 50.4398C50.4401 49.6508 50.4401 48.8887 50.4401 48.0908ZM4.78765 46.468C18.9621 46.468 33.0739 46.468 47.1856 46.468C47.1856 45.6611 47.1856 44.908 47.1856 44.146C33.029 44.146 18.9173 44.146 4.78765 44.146C4.78765 44.9439 4.78765 45.688 4.78765 46.468ZM10.2745 42.5411C10.2745 36.857 10.2745 31.2267 10.2745 25.5873C9.47661 25.5873 8.71454 25.5873 7.92558 25.5873C7.92558 31.2446 7.92558 36.8839 7.92558 42.5411C8.71454 42.5411 9.47661 42.5411 10.2745 42.5411ZM21.5532 25.5963C20.7373 25.5963 19.9842 25.5963 19.2042 25.5963C19.2042 31.2625 19.2042 36.9018 19.2042 42.5411C20.0021 42.5411 20.7642 42.5411 21.5532 42.5411C21.5532 36.8839 21.5532 31.2625 21.5532 25.5963ZM32.787 42.5501C32.787 36.866 32.787 31.2267 32.787 25.5963C31.989 25.5963 31.227 25.5963 30.4559 25.5963C30.4559 31.2625 30.4559 36.9018 30.4559 42.5501C31.2449 42.5501 31.998 42.5501 32.787 42.5501ZM44.0656 42.5411C44.0656 36.857 44.0656 31.2267 44.0656 25.6053C43.2497 25.6053 42.4787 25.6053 41.7166 25.6053C41.7166 31.2715 41.7166 36.8929 41.7166 42.5411C42.5056 42.5411 43.2677 42.5411 44.0656 42.5411ZM40.3897 20.1991C41.4476 20.5935 41.6897 20.9432 41.6897 22.0908C41.6897 22.7273 41.6897 23.3549 41.6897 23.9915C42.5235 23.9915 43.3035 23.9915 44.1014 23.9915C44.1014 23.4087 44.1283 22.8618 44.0925 22.3149C44.0297 21.2839 44.2539 20.4591 45.3835 20.217C45.3835 19.8404 45.3835 19.5177 45.3835 19.1949C43.698 19.1949 42.0573 19.1949 40.3897 19.1949C40.3897 19.5446 40.3897 19.8494 40.3897 20.1991ZM6.58075 19.186C6.58075 19.3742 6.58075 19.5356 6.58075 19.697C6.58075 19.8763 6.58075 20.0556 6.58075 20.208C7.59385 20.5308 7.89868 20.9432 7.89868 21.9473C7.89868 22.6287 7.89868 23.3191 7.89868 24.0184C8.36489 24.0184 8.75041 24.0184 9.12696 24.0184C9.50351 24.0184 9.88006 24.0184 10.3104 24.0184C10.3104 23.346 10.3104 22.7273 10.3104 22.1087C10.3104 20.9253 10.5076 20.6204 11.5835 20.1811C11.5835 19.8404 11.5835 19.5087 11.5835 19.177C9.90696 19.186 8.26627 19.186 6.58075 19.186ZM21.589 24.0004C21.589 23.2115 21.589 22.4673 21.589 21.7232C21.589 21.1404 21.8311 20.7011 22.3421 20.4232C22.9787 20.0735 23.0145 19.9929 22.8263 19.2129C21.1766 19.2129 19.5359 19.2129 17.8594 19.2129C17.8594 19.4639 17.8235 19.6701 17.8683 19.8584C17.9042 20.0198 18.0028 20.2439 18.1283 20.2887C18.8725 20.5667 19.1683 21.1046 19.1773 21.8487C19.1773 22.557 19.1773 23.2653 19.1773 24.0004C19.9842 24.0004 20.7463 24.0004 21.589 24.0004ZM32.8318 24.0004C32.8318 23.2294 32.8318 22.5211 32.8318 21.8129C32.8318 21.2301 33.029 20.737 33.558 20.4322C34.2125 20.0467 34.2573 19.9391 34.0601 19.186C32.4283 19.186 30.7966 19.186 29.1021 19.186C29.2008 19.5804 28.8242 20.0735 29.3442 20.2708C30.1332 20.5756 30.438 21.1136 30.4201 21.9115C30.4021 22.6018 30.4201 23.2832 30.4201 24.0004C31.2449 24.0004 31.998 24.0004 32.8318 24.0004Z" fill="white"/>
<path d="M29.398 11.5383C29.389 13.3942 27.8649 14.9183 26.009 14.9183C24.1263 14.9183 22.5932 13.3852 22.6021 11.5025C22.6021 9.62868 24.1532 8.10454 26.0449 8.12247C27.9007 8.13144 29.407 9.67351 29.398 11.5383ZM26.018 9.65557C25.0049 9.63764 24.1532 10.4625 24.1352 11.4666C24.1083 12.5066 24.9421 13.3673 25.9732 13.3763C26.9863 13.3852 27.829 12.5694 27.8559 11.5652C27.8918 10.5342 27.058 9.67351 26.018 9.65557Z" fill="white"/>
<path d="M40.9545 11.8432C40.9366 12.5784 40.4256 12.928 39.9056 12.7129C39.6545 12.6143 39.4304 12.4529 39.1883 12.3184C37.2607 11.2067 35.3421 10.0949 33.4145 8.98322C33.3339 8.93839 33.2532 8.89356 33.1814 8.84874C32.787 8.58874 32.6704 8.23012 32.8676 7.80874C33.0559 7.41425 33.5132 7.28874 33.9525 7.53081C34.7325 7.96115 35.5035 8.41839 36.2745 8.86667C37.6463 9.65563 39.027 10.4356 40.3897 11.2515C40.6497 11.4129 40.829 11.7087 40.9545 11.8432Z" fill="white"/>
</svg>
