<svg width="55" height="49" viewBox="0 0 55 49" fill="none" xmlns="http://www.w3.org/2000/svg">
<path d="M6.10352e-05 46.8674C0.432145 45.6263 0.882616 44.3944 1.30551 43.1533C2.48225 39.6599 3.64979 36.1572 4.79895 32.6454C4.88169 32.3972 4.91847 32.0754 4.84492 31.8364C3.76011 28.5176 5.65393 24.6105 9.17496 23.2498C12.6316 21.9168 16.5756 23.4245 18.2211 26.7249C18.4418 27.1662 18.6716 27.3225 19.1589 27.2857C19.83 27.2397 20.5103 27.2765 21.2917 27.2765C21.1354 27.0283 21.0159 26.8444 20.8964 26.6606C18.8739 23.6544 17.0444 20.547 15.5551 17.2374C12.1168 9.61621 17.7799 1.04807 25.7321 0.193092C33.2705 -0.615917 39.8529 5.18504 39.8621 12.7327C39.8621 14.6174 39.191 16.3457 38.4464 18.0464C37.1133 21.071 35.3574 23.8658 33.5096 26.6054C33.3809 26.7893 33.2614 26.9823 33.0959 27.2305C35.1092 27.2305 37.0674 27.2305 39.0255 27.2305C38.6302 23.3418 41.1952 19.8575 44.8909 19.2508C48.8164 18.598 52.3926 20.9791 53.2843 24.8311C53.5693 26.0814 53.5142 27.3225 53.0361 28.4992C52.2639 30.4022 51.4273 32.2685 50.5723 34.1347C50.3701 34.576 50.3057 34.9253 50.462 35.4034C51.7215 39.1083 52.935 42.8315 54.1945 46.5456C54.4151 47.2075 54.3691 47.7132 53.79 48.1177C35.8631 48.1177 17.927 48.1177 6.10352e-05 48.1177C6.10352e-05 47.6948 6.10352e-05 47.2811 6.10352e-05 46.8674ZM49.083 36.9478C48.3567 38.143 47.7224 39.237 47.0513 40.3034C46.5916 41.048 45.8286 41.0664 45.3781 40.331C43.2453 36.8651 41.1952 33.3533 39.7242 29.5289C39.5955 29.1979 39.4392 29.0784 39.0807 29.0784C36.8008 29.0968 34.5116 29.0968 32.2317 29.0784C31.8916 29.0784 31.6893 29.1887 31.4871 29.4553C30.3655 30.9538 29.2347 32.4339 28.0947 33.9049C27.442 34.7414 26.9088 34.7414 26.2469 33.8865C25.0977 32.4155 23.9853 30.917 22.8454 29.4369C22.7351 29.299 22.5788 29.0968 22.4409 29.0968C21.3009 29.0692 20.1517 29.0784 18.975 29.0784C19.1589 30.5309 18.7727 31.8088 18.2855 33.0683C16.8422 36.8375 14.8196 40.2942 12.7328 43.7325C12.1076 44.7529 11.3813 44.7621 10.793 43.7049C9.26689 40.9745 7.77758 38.2257 6.27907 35.4861C6.18714 35.3206 6.09521 35.146 5.95731 34.8885C4.67025 38.7589 3.41996 42.4914 2.16968 46.2698C18.8739 46.2698 35.4953 46.2698 52.1903 46.2698C51.1607 43.1809 50.1402 40.1195 49.083 36.9478ZM27.1478 32.2041C29.6392 29.014 31.9375 25.8699 33.9784 22.542C35.3115 20.3723 36.5617 18.166 37.4351 15.7573C38.0143 14.1669 38.2073 12.5489 37.8764 10.8665C36.7272 5.06553 31.6525 1.35145 25.7688 2.02256C20.6298 2.61093 16.4652 7.1616 16.3181 12.3374C16.263 14.1485 16.8881 15.7757 17.6052 17.3753C19.1497 20.786 21.1722 23.921 23.3234 26.9731C24.5461 28.7198 25.8332 30.4114 27.1478 32.2041ZM46.2147 38.2625C47.0789 36.718 47.943 35.3298 48.6601 33.8589C49.6346 31.8456 50.6642 29.8322 51.3629 27.7178C52.4477 24.4266 49.8644 21.0527 46.3894 20.9423C42.7488 20.8228 39.7426 24.4266 41.1308 28.1958C42.4271 31.6985 44.2841 34.9069 46.2147 38.2625ZM11.7767 41.8754C13.7532 38.4188 15.739 35.1276 16.9433 31.4503C17.0996 30.9722 17.2191 30.4482 17.2007 29.9517C17.1363 27.6902 16.0791 26.0078 14.029 25.0701C11.9789 24.1324 9.97477 24.4082 8.26482 25.8883C6.56406 27.3592 5.91134 29.2531 6.61922 31.4411C7.79596 35.1276 9.8001 38.4096 11.7767 41.8754Z" fill="white"/>
<path d="M21.834 17.0352C22.3304 15.3345 21.5674 14.0566 20.4642 12.8799C20.0505 12.4386 19.7103 11.9421 19.3426 11.4549C18.7726 10.7102 18.9749 10.0943 19.8574 9.82769C21.0341 9.47835 22.2201 9.16577 23.3784 8.77966C23.7002 8.66934 24.0312 8.42112 24.2426 8.14532C24.9505 7.19841 25.6032 6.20554 26.2927 5.23105C26.8351 4.46801 27.5246 4.46801 28.067 5.24024C28.7841 6.2607 29.4828 7.29035 30.209 8.29241C30.3469 8.48547 30.5952 8.65095 30.825 8.7245C31.9925 9.09223 33.1693 9.41399 34.346 9.76334C35.4124 10.0759 35.6147 10.6919 34.9344 11.556C34.1897 12.5121 33.4359 13.4498 32.7188 14.4151C32.5625 14.6174 32.4706 14.9208 32.4706 15.1782C32.4706 16.4009 32.5258 17.6328 32.5533 18.8555C32.5809 19.8208 32.0477 20.2253 31.1468 19.9127C30.0068 19.5174 28.8852 19.0853 27.7361 18.7268C27.3959 18.6165 26.9546 18.6349 26.6145 18.736C25.4837 19.0853 24.3713 19.5082 23.2497 19.9035C22.312 20.2253 21.7788 19.83 21.8064 18.8463C21.8156 18.5429 21.834 18.2395 21.8432 17.9454C21.8432 17.642 21.834 17.3386 21.834 17.0352ZM32.8843 11.2343C31.8546 10.9309 30.8802 10.6919 29.9424 10.3609C29.5655 10.223 29.1886 9.9472 28.9404 9.63463C28.3336 8.8532 27.7912 8.01661 27.1845 7.14325C26.5685 8.02581 25.9985 8.80724 25.4653 9.62544C25.1895 10.0483 24.831 10.2874 24.3437 10.4161C23.406 10.6643 22.4775 10.9493 21.4754 11.2435C22.0638 11.9973 22.5786 12.7144 23.1578 13.3855C23.6083 13.9095 23.7829 14.4519 23.7278 15.1414C23.6634 16.0148 23.7094 16.8881 23.7094 17.8258C24.5644 17.5317 25.401 17.3018 26.1824 16.9525C26.8811 16.6399 27.5062 16.6859 28.1865 16.9617C28.9863 17.2834 29.8137 17.5317 30.6135 17.8075C30.6135 16.7962 30.5768 15.8401 30.6319 14.884C30.6595 14.4611 30.7882 13.9922 31.0272 13.6521C31.588 12.8339 32.2224 12.08 32.8843 11.2343Z" fill="white"/>
<path d="M46.224 29.0877C44.7163 29.0877 43.4844 27.865 43.4936 26.3665C43.5028 24.8863 44.7163 23.6728 46.1872 23.6636C47.6949 23.6544 48.9176 24.8771 48.9176 26.3848C48.9176 27.8558 47.6949 29.0877 46.224 29.0877ZM47.1065 26.394C47.1157 25.9068 46.7296 25.4931 46.2424 25.4655C45.7551 25.4471 45.3322 25.8332 45.3047 26.3205C45.2771 26.8261 45.6908 27.2674 46.1964 27.2766C46.6836 27.2858 47.0973 26.8813 47.1065 26.394Z" fill="white"/>
<path d="M14.4888 30.0161C14.4888 31.487 13.2569 32.7097 11.786 32.7097C10.2783 32.7097 9.0464 31.4778 9.05559 29.9793C9.06479 28.4992 10.2783 27.2857 11.7584 27.2857C13.2661 27.2765 14.498 28.5084 14.4888 30.0161ZM12.6777 29.9701C12.6686 29.4829 12.2549 29.0876 11.7676 29.0876C11.2804 29.0968 10.8759 29.5013 10.8759 29.9885C10.8759 30.4942 11.3079 30.917 11.8136 30.8987C12.3008 30.8803 12.6961 30.4574 12.6777 29.9701Z" fill="white"/>
</svg>
