<svg width="51" height="51" viewBox="0 0 51 51" fill="none" xmlns="http://www.w3.org/2000/svg">
<path d="M51 24.5776C50.6584 25.6041 50.1002 26.4386 49.067 26.906C48.7421 27.0479 48.8004 27.2649 49.1254 27.3984C50.1169 27.7906 50.5251 28.5501 50.5834 29.5766C50.6584 30.9286 50.8084 32.2806 50.8917 33.6409C50.9834 35.2349 50.1085 36.1362 48.5338 36.1362C47.9839 36.1362 47.434 36.1446 46.8841 36.1362C45.6093 36.1112 44.6761 35.1848 44.7344 33.9247C44.8094 32.3306 44.9344 30.7366 45.0927 29.151C45.1677 28.3414 45.6509 27.7739 46.3925 27.4401C46.5258 27.3817 46.6174 27.2482 46.7341 27.148C46.6258 27.0395 46.5341 26.906 46.4091 26.8309C45.276 26.2217 44.6511 25.2786 44.6428 23.9934C44.6344 22.6831 45.276 21.7317 46.4258 21.1141C46.5674 21.039 46.7257 20.8304 46.7257 20.6802C46.7341 16.5658 46.7341 12.4598 46.7257 8.34537C46.7257 8.32868 46.7091 8.31199 46.6591 8.22853C45.8426 8.43717 45.001 8.63747 44.1595 8.85445C43.6679 8.97964 42.993 8.99633 42.7431 9.32181C42.4931 9.64729 42.6514 10.2982 42.6514 10.8157C42.6514 13.8952 42.6514 16.9831 42.6514 20.0626C42.6514 22.2909 41.4516 23.8599 39.3103 24.4607C39.0103 24.5442 38.7104 24.6443 38.4104 24.6944C37.8189 24.8029 37.3106 24.4858 37.169 23.9517C37.0273 23.4092 37.294 22.8834 37.8522 22.6748C38.2105 22.5412 38.5937 22.4661 38.952 22.341C39.8769 22.0322 40.4934 21.3979 40.5018 20.4215C40.5434 16.8996 40.5184 13.3778 40.5184 9.80585C39.1603 10.1564 37.8272 10.4902 36.5107 10.824C32.9363 11.742 29.3619 12.6767 25.7792 13.5781C25.4042 13.6699 24.971 13.6699 24.596 13.5781C19.7718 12.3596 14.9559 11.1161 10.1401 9.88096C10.0567 9.85593 9.96509 9.84758 9.83178 9.82255C9.82344 10.0312 9.80678 10.2064 9.80678 10.39C9.80678 13.5614 9.80678 16.7411 9.80678 19.9124C9.80678 21.3645 10.3234 22.0489 11.7315 22.4578C11.9981 22.5329 12.2647 22.5913 12.523 22.6915C13.0479 22.9001 13.3062 23.4008 13.1812 23.935C13.0646 24.4274 12.5897 24.7946 12.0647 24.7111C9.57348 24.3356 7.69046 22.8751 7.69879 20.0876C7.69879 16.691 7.69879 13.2943 7.69879 9.906C7.69879 9.70571 7.69879 9.50541 7.69879 9.25504C6.424 8.92122 5.16587 8.60409 3.91608 8.27861C3.41616 8.14508 2.91624 8.02824 2.42465 7.89471C1.77476 7.71945 1.44981 7.33555 1.46648 6.79309C1.48314 6.26732 1.79975 5.90845 2.42465 5.74989C5.16587 5.04051 7.91542 4.34783 10.665 3.63845C15.2726 2.45337 19.8718 1.25161 24.4794 0.0832213C24.9126 -0.0252716 25.4292 -0.0336172 25.8625 0.0748757C33.1113 1.91925 40.3518 3.78867 47.5923 5.65809C48.6588 5.93349 48.8671 6.20055 48.8671 7.31052C48.8671 11.6419 48.8754 15.9733 48.8587 20.3046C48.8587 20.7553 48.9337 21.0307 49.3836 21.2393C50.2668 21.6566 50.6668 22.4912 50.9917 23.3591C51 23.7681 51 24.1686 51 24.5776ZM43.3096 6.87655C43.3096 6.84316 43.318 6.80978 43.318 6.7764C43.268 6.75971 43.218 6.73467 43.1597 6.72633C37.269 5.20742 31.3699 3.68018 25.4792 2.16962C25.2626 2.1112 25.0043 2.14459 24.7877 2.19466C20.5717 3.27124 16.3557 4.35617 12.1397 5.4411C10.4317 5.88342 8.72362 6.32574 6.87393 6.80143C7.2072 6.90993 7.39051 6.97669 7.57381 7.02677C13.2062 8.4789 18.8386 9.91435 24.4627 11.3748C24.9376 11.5 25.3709 11.5084 25.8458 11.3832C30.1785 10.2565 34.5194 9.14655 38.8604 8.02824C40.3435 7.65269 41.8265 7.26879 43.3096 6.87655ZM48.7837 33.958C48.6671 32.4141 48.5504 30.9286 48.4338 29.4431C47.9839 29.4431 47.5923 29.4431 47.184 29.4431C47.0674 30.962 46.9507 32.4391 46.8341 33.958C47.4923 33.958 48.1005 33.958 48.7837 33.958ZM48.8671 23.985C48.8837 23.4175 48.4088 22.9335 47.8339 22.9168C47.259 22.9001 46.7674 23.3508 46.7424 23.9266C46.7174 24.5192 47.2007 25.0199 47.7922 25.0199C48.3838 25.0199 48.8587 24.5609 48.8671 23.985Z" fill="white"/>
<path d="M21.3216 50.9997C20.805 50.8912 20.2884 50.7994 19.7718 50.6825C18.5803 50.4071 17.4972 49.8981 16.4974 49.197C15.6142 48.5711 14.7476 47.9368 13.8561 47.3109C12.9979 46.71 12.0397 46.3679 10.9816 46.3595C10.1401 46.3512 9.29853 46.3345 8.457 46.3679C8.2487 46.3762 7.98208 46.5181 7.84877 46.685C7.39051 47.2692 6.82393 47.6114 6.06572 47.6114C4.41599 47.6114 2.76626 47.6197 1.12486 47.6114C0.449974 47.6114 0.00837962 47.1941 -0.00828433 46.5932C-0.0249483 45.9756 0.43331 45.5166 1.11653 45.5083C2.5413 45.4916 3.9744 45.4999 5.39917 45.4999C5.59913 45.4999 5.79077 45.4999 6.0324 45.4999C6.0324 41.7945 6.0324 38.1307 6.0324 34.3919C5.7991 34.3919 5.56581 34.3919 5.33251 34.3919C3.99939 34.3919 2.65795 34.3919 1.32483 34.3919C0.47497 34.3919 4.76437e-05 34.008 -0.00828433 33.3487C-0.0166163 32.6811 0.47497 32.2805 1.29984 32.2805C2.84125 32.2805 4.37433 32.2888 5.91575 32.2721C6.74895 32.2638 7.39051 32.5809 7.89043 33.2653C7.99874 33.4155 8.2737 33.5156 8.47366 33.524C9.71513 33.5657 10.9649 33.524 12.2064 33.5907C13.8894 33.6909 15.3809 34.3418 16.589 35.5186C17.8638 36.7537 19.3386 37.3296 21.1049 37.2628C22.4214 37.2127 23.7378 37.2545 25.0626 37.2545C27.3206 37.2545 27.9038 37.5716 29.062 39.466C29.8618 38.9236 30.6617 38.3811 31.4616 37.847C32.5114 37.1376 33.5446 36.4199 34.6027 35.7272C36.2691 34.6506 38.3521 34.7341 39.9019 35.9108C41.0517 36.7871 41.11 38.1808 40.0018 39.0988C36.0942 42.3369 32.1865 45.5667 28.2621 48.7964C26.779 50.0149 25.0793 50.7159 23.1713 50.9246C23.0629 50.9329 22.963 50.983 22.863 51.008C22.3464 50.9997 21.8298 50.9997 21.3216 50.9997ZM8.2487 44.2147C9.07356 44.2147 9.84011 44.2147 10.6066 44.2147C12.323 44.2064 13.8894 44.6821 15.2809 45.7086C15.9891 46.2343 16.7057 46.7351 17.4222 47.2442C20.5884 49.5142 24.2211 49.3806 27.2289 46.8853C29.8952 44.6737 32.5697 42.4788 35.236 40.2672C36.3191 39.3742 37.4023 38.4729 38.4771 37.5799C38.4271 37.5048 38.4104 37.4714 38.3854 37.4548C38.3271 37.413 38.2605 37.3713 38.1938 37.3463C37.2606 36.9206 36.3858 37.0542 35.5526 37.63C33.0113 39.3576 30.4701 41.0934 27.8955 42.7876C27.4206 43.0964 26.829 43.3718 26.2791 43.3885C23.7545 43.4552 21.2299 43.4219 18.697 43.4219C18.1804 43.4219 17.8221 43.1632 17.6722 42.6624C17.4639 41.9447 17.9554 41.3188 18.7553 41.3104C20.6383 41.2937 22.5297 41.3021 24.4127 41.3021C24.946 41.3021 25.4792 41.3188 26.0041 41.2937C26.5457 41.277 26.929 40.9098 26.9706 40.4258C27.0123 39.9668 26.654 39.5328 26.1291 39.4243C25.9125 39.3826 25.6959 39.3742 25.4709 39.3742C23.9878 39.3742 22.5047 39.3409 21.0216 39.3826C18.7387 39.441 16.789 38.7149 15.1642 37.0959C14.4977 36.4366 13.6978 35.9275 12.773 35.8274C11.2732 35.6771 9.75679 35.6688 8.2237 35.602C8.2487 38.5397 8.2487 41.3355 8.2487 44.2147Z" fill="white"/>
<path d="M35.086 25.1868C35.0777 30.6782 30.645 35.1264 25.1709 35.1348C19.6885 35.1431 15.2309 30.6532 15.2476 25.1451C15.2642 19.662 19.7218 15.2138 25.1876 15.2305C30.6534 15.2389 35.0943 19.7038 35.086 25.1868ZM25.1793 32.99C29.4786 32.9816 32.9697 29.4848 32.9697 25.1785C32.9697 20.8721 29.4869 17.367 25.1876 17.3503C20.88 17.3336 17.3555 20.8721 17.3639 25.1952C17.3722 29.5015 20.88 32.9983 25.1793 32.99Z" fill="white"/>
<path d="M4.82426 43.3718C4.80759 43.9476 4.341 44.4066 3.75777 44.3983C3.14953 44.3983 2.69127 43.9143 2.71627 43.2967C2.74127 42.7125 3.20786 42.2702 3.79943 42.2952C4.37433 42.3202 4.83259 42.8043 4.82426 43.3718Z" fill="white"/>
<path d="M30.2201 7.77778C29.2953 7.54411 28.2621 7.3605 27.2873 7.00999C25.8458 6.49256 24.4627 6.5176 23.0296 7.02668C22.1881 7.32712 21.3049 7.49403 20.4384 7.71102C19.6802 7.90297 19.1053 7.61922 18.9386 7.00999C18.772 6.36738 19.1469 5.84995 19.9385 5.64131C21.5299 5.23237 23.1213 4.81509 24.721 4.42285C25.0043 4.35608 25.3376 4.34774 25.6292 4.4145C27.2956 4.82344 28.962 5.24906 30.62 5.69138C31.2449 5.85829 31.5532 6.35903 31.4449 6.92653C31.3283 7.44396 30.8367 7.81951 30.2201 7.77778Z" fill="white"/>
<path d="M28.2704 26.8644C28.2121 28.3749 27.6872 29.2763 26.6707 29.9022C26.4707 30.0274 26.2874 30.261 26.2041 30.4864C26.0125 30.9954 25.6625 31.3042 25.1543 31.2959C24.6127 31.2792 24.2961 30.9788 24.1294 30.4697C24.0628 30.261 23.8795 30.044 23.6878 29.9272C23.038 29.5266 22.5547 29.0092 22.2881 28.2915C22.0464 27.6405 22.2714 27.048 22.838 26.8226C23.3962 26.5973 23.9461 26.831 24.2211 27.4569C24.4294 27.9243 24.7377 28.208 25.2709 28.1579C25.7458 28.1162 26.1124 27.6906 26.1208 27.2232C26.1291 26.7642 25.7875 26.3469 25.3042 26.2551C25.021 26.2051 24.721 26.2051 24.4377 26.1383C23.1879 25.8379 22.2964 24.8447 22.1048 23.5845C21.9215 22.3577 22.5297 21.1059 23.6462 20.48C23.9211 20.3298 24.0878 20.1795 24.1544 19.8457C24.2544 19.3366 24.621 19.0696 25.1376 19.0612C25.6542 19.0529 26.0375 19.3116 26.1458 19.8123C26.2208 20.1629 26.4041 20.3214 26.6957 20.48C27.3289 20.8222 27.7705 21.3563 28.0205 22.0323C28.2704 22.6916 28.0621 23.2758 27.5039 23.5178C26.929 23.7682 26.3791 23.5261 26.0875 22.8752C25.9041 22.4662 25.6209 22.1491 25.1876 22.2075C24.8876 22.2493 24.5127 22.4495 24.3461 22.6999C23.9211 23.3342 24.4127 24.0769 25.2626 24.1187C26.2791 24.1771 27.1206 24.586 27.6622 25.4373C27.9955 25.9464 28.1454 26.5639 28.2704 26.8644Z" fill="white"/>
</svg>
