<svg width="60" height="60" viewBox="0 0 60 60" fill="none" xmlns="http://www.w3.org/2000/svg">
<rect opacity="0.1" width="60" height="60" rx="10" fill="#B3BAC5"/>
<path fill-rule="evenodd" clip-rule="evenodd" d="M30.0031 30.7996C26.9103 30.7996 24.4031 28.2924 24.4031 25.1996C24.4031 22.1068 26.9103 19.5996 30.0031 19.5996C33.0959 19.5996 35.6031 22.1068 35.6031 25.1996C35.6031 28.2924 33.0959 30.7996 30.0031 30.7996ZM15.9979 37.2048C15.3351 37.2048 14.7979 36.6676 14.7979 36.0048C14.7979 35.3421 15.3351 34.8048 15.9979 34.8048H44.0001C44.6629 34.8048 45.2001 35.3421 45.2001 36.0048C45.2001 36.6676 44.6629 37.2048 44.0001 37.2048H15.9979ZM30.8031 25.1996C30.8031 25.6414 30.4449 25.9996 30.0031 25.9996C29.5612 25.9996 29.2031 25.6414 29.2031 25.1996C29.2031 24.7578 29.5612 24.3996 30.0031 24.3996C30.4449 24.3996 30.8031 24.7578 30.8031 25.1996Z" fill="#0364FF"/>
<path fill-rule="evenodd" clip-rule="evenodd" d="M25.9998 19.2126V17.2002C25.9998 14.9911 27.7907 13.2002 29.9998 13.2002C32.2089 13.2002 33.9998 14.9911 33.9998 17.2002V19.2126C32.8557 18.4468 31.4799 18.0002 29.9998 18.0002C28.5197 18.0002 27.1439 18.4468 25.9998 19.2126ZM26.8017 31.6527C25.1128 34.7265 20.8498 42.5281 19.3039 45.3574L18.7426 46.3844C18.5274 46.7776 18.0313 46.9173 17.6426 46.6942C14.9255 45.1348 13.9938 41.6782 15.5596 38.9824L22.8571 26.1126C23.165 28.5476 24.6891 30.6036 26.8017 31.6527ZM44.4386 38.9766L37.1433 26.1065C36.8375 28.5413 35.3159 30.5977 33.2057 31.6489C34.1963 33.4428 36.3646 37.4115 41.2615 46.3836C41.4765 46.7775 41.9733 46.9175 42.3623 46.694C45.0758 45.1347 46.0061 41.6789 44.4386 38.9766Z" fill="#0364FF"/>
</svg>
