<svg width="39" height="51" viewBox="0 0 39 51" fill="none" xmlns="http://www.w3.org/2000/svg">
<path d="M31.375 33.5719V49.6066C31.375 49.813 31.3193 50.0158 31.2136 50.1941C31.1078 50.3725 30.9558 50.5201 30.773 50.6218C30.5902 50.7236 30.3832 50.7759 30.1731 50.7734C29.963 50.7709 29.7574 50.7137 29.5771 50.6076L19.5 44.6669L9.42288 50.6076C9.24248 50.7138 9.0366 50.771 8.82631 50.7734C8.61602 50.7758 8.40884 50.7233 8.22598 50.6213C8.04311 50.5192 7.89111 50.3713 7.78552 50.1926C7.67993 50.0139 7.62454 49.8109 7.625 49.6043V33.5743C4.5521 31.1571 2.31923 27.862 1.23497 24.1442C0.150698 20.4264 0.26857 16.4695 1.57229 12.8204C2.87601 9.17123 5.30121 6.01001 8.51274 3.77358C11.7243 1.53715 15.5635 0.335938 19.5 0.335938C23.4365 0.335937 27.2757 1.53715 30.4873 3.77358C33.6988 6.01001 36.124 9.17123 37.4277 12.8204C38.7314 16.4695 38.8493 20.4264 37.765 24.1442C36.6808 27.862 34.4479 31.1571 31.375 33.5743V33.5719ZM12.375 36.3089V43.4256L19.5 39.2256L26.625 43.4256V36.3089C24.3613 37.2084 21.9419 37.6696 19.5 37.6669C17.0581 37.6696 14.6387 37.2084 12.375 36.3089ZM19.5 33.0003C23.2793 33.0003 26.9039 31.5253 29.5763 28.8998C32.2487 26.2743 33.75 22.7133 33.75 19.0003C33.75 15.2872 32.2487 11.7263 29.5763 9.10077C26.9039 6.47526 23.2793 5.00027 19.5 5.00027C15.7207 5.00027 12.0961 6.47526 9.42373 9.10077C6.75134 11.7263 5.25 15.2872 5.25 19.0003C5.25 22.7133 6.75134 26.2743 9.42373 28.8998C12.0961 31.5253 15.7207 33.0003 19.5 33.0003Z" fill="white"/>
</svg>
