<svg width="60" height="60" viewBox="0 0 60 60" fill="none" xmlns="http://www.w3.org/2000/svg">
<rect opacity="0.1" width="60" height="60" rx="10" fill="#B3BAC5"/>
<path fill-rule="evenodd" clip-rule="evenodd" d="M22.7998 18.0002V17.2002C22.7998 14.9911 24.5907 13.2002 26.7998 13.2002H33.1998C35.4089 13.2002 37.1998 14.9911 37.1998 17.2002V18.0002H44.3998C44.8416 18.0002 45.1998 18.3584 45.1998 18.8002V30.0002C45.1998 31.3257 44.1253 32.4002 42.7998 32.4002H38.7998V28.4002C38.7998 27.9584 38.4416 27.6002 37.9998 27.6002C37.558 27.6002 37.1998 27.9584 37.1998 28.4002V32.4002H22.7998V28.4002C22.7998 27.9584 22.4416 27.6002 21.9998 27.6002C21.558 27.6002 21.1998 27.9584 21.1998 28.4002V32.4002H17.1998C15.8743 32.4002 14.7998 31.3257 14.7998 30.0002V18.8002C14.7998 18.3584 15.158 18.0002 15.5998 18.0002H22.7998ZM43.5998 34.0002H38.7998V34.8002C38.7998 35.242 38.4416 35.6002 37.9998 35.6002C37.558 35.6002 37.1998 35.242 37.1998 34.8002V34.0002H22.7998V34.8002C22.7998 35.242 22.4416 35.6002 21.9998 35.6002C21.558 35.6002 21.1998 35.242 21.1998 34.8002V34.0002H16.3998V41.2002C16.3998 44.293 18.907 46.8002 21.9998 46.8002H37.9998C41.0926 46.8002 43.5998 44.293 43.5998 41.2002V34.0002ZM26.7998 38.8002H33.1998C33.6416 38.8002 33.9998 39.1584 33.9998 39.6002C33.9998 40.042 33.6416 40.4002 33.1998 40.4002H26.7998C26.358 40.4002 25.9998 40.042 25.9998 39.6002C25.9998 39.1584 26.358 38.8002 26.7998 38.8002ZM35.5998 18.0002H24.3998V17.2002C24.3998 15.8747 25.4743 14.8002 26.7998 14.8002H33.1998C34.5253 14.8002 35.5998 15.8747 35.5998 17.2002V18.0002Z" fill="#0364FF"/>
<path d="M35.5998 18.0002V17.2002C35.5998 15.8747 34.5253 14.8002 33.1998 14.8002H26.7998C25.4743 14.8002 24.3998 15.8747 24.3998 17.2002V18.0002H22.7998V17.2002C22.7998 14.9911 24.5907 13.2002 26.7998 13.2002H33.1998C35.4089 13.2002 37.1998 14.9911 37.1998 17.2002V18.0002H35.5998Z" fill="#0364FF"/>
</svg>
