<svg width="40" height="45" viewBox="0 0 40 45" fill="none" xmlns="http://www.w3.org/2000/svg">
<path fill-rule="evenodd" clip-rule="evenodd" d="M26.3078 4.79452V2.61503C26.3078 1.41196 27.2842 0.435547 28.4873 0.435547C29.6904 0.435547 30.6668 1.41196 30.6668 2.61503V4.79452C35.4813 4.79452 39.3847 8.69798 39.3847 13.5125V35.3073C39.3847 40.1218 35.4813 44.0253 30.6668 44.0253C24.4335 44.0253 15.1031 44.0253 8.87191 44.0253C4.05742 44.0253 0.153961 40.1218 0.153961 35.3073V13.5125C0.153961 8.69798 4.05742 4.79452 8.87191 4.79452V2.61503C8.87191 1.41196 9.84832 0.435547 11.0514 0.435547C12.2545 0.435547 13.2309 1.41196 13.2309 2.61503V4.79452H26.3078ZM35.0258 22.2304H4.51294V35.3073C4.51294 37.7135 6.46358 39.6663 8.87191 39.6663H30.6668C33.0729 39.6663 35.0258 37.7135 35.0258 35.3073V22.2304ZM30.6668 9.1535V11.333C30.6668 12.5361 29.6904 13.5125 28.4873 13.5125C27.2842 13.5125 26.3078 12.5361 26.3078 11.333V9.1535H13.2309V11.333C13.2309 12.5361 12.2545 13.5125 11.0514 13.5125C9.84832 13.5125 8.87191 12.5361 8.87191 11.333V9.1535C6.46358 9.1535 4.51294 11.1041 4.51294 13.5125V17.8714H35.0258V13.5125C35.0258 11.1041 33.0729 9.1535 30.6668 9.1535Z" fill="white"/>
</svg>
