<svg width="60" height="60" viewBox="0 0 60 60" fill="none" xmlns="http://www.w3.org/2000/svg">
<rect opacity="0.1" width="60" height="60" rx="10" fill="#B3BAC5"/>
<path fill-rule="evenodd" clip-rule="evenodd" d="M31.1999 18.7998C31.1999 19.4625 30.6626 19.9998 29.9999 19.9998C29.3372 19.9998 28.7999 19.4625 28.7999 18.7998V13.9998C28.7999 13.3371 29.3372 12.7998 29.9999 12.7998C30.6626 12.7998 31.1999 13.3371 31.1999 13.9998V18.7998ZM37.5999 18.7998C37.5999 19.4625 37.0626 19.9998 36.3999 19.9998C35.7372 19.9998 35.1999 19.4625 35.1999 18.7998V13.9998C35.1999 13.3371 35.7372 12.7998 36.3999 12.7998C37.0626 12.7998 37.5999 13.3371 37.5999 13.9998V18.7998ZM29.9999 47.1998C30.6626 47.1998 31.1999 46.6625 31.1999 45.9998V41.1998C31.1999 40.5371 30.6626 39.9998 29.9999 39.9998C29.3372 39.9998 28.7999 40.5371 28.7999 41.1998V45.9998C28.7999 46.6625 29.3372 47.1998 29.9999 47.1998ZM37.5999 45.9998C37.5999 46.6625 37.0626 47.1998 36.3999 47.1998C35.7372 47.1998 35.1999 46.6625 35.1999 45.9998V41.1998C35.1999 40.5371 35.7372 39.9998 36.3999 39.9998C37.0626 39.9998 37.5999 40.5371 37.5999 41.1998V45.9998ZM23.5999 47.1998C24.2626 47.1998 24.7999 46.6625 24.7999 45.9998V41.1998C24.7999 40.5371 24.2626 39.9998 23.5999 39.9998C22.9372 39.9998 22.3999 40.5371 22.3999 41.1998V45.9998C22.3999 46.6625 22.9372 47.1998 23.5999 47.1998ZM44.3999 31.1998H41.1999C39.5999 31.1998 39.5999 28.7998 41.1999 28.7998H44.3999C45.9999 28.7998 45.9999 31.1998 44.3999 31.1998ZM41.1999 24.7998H44.3999C45.1209 24.7998 45.5999 24.2609 45.5999 23.5998C45.5999 22.9387 45.1209 22.3998 44.3999 22.3998H41.1999C40.4789 22.3998 39.9999 22.9387 39.9999 23.5998C39.9999 24.2609 40.4789 24.7998 41.1999 24.7998ZM44.3999 37.5998H41.1999C39.5999 37.5998 39.5999 35.1998 41.1999 35.1998H44.3999C45.9999 35.1998 45.9999 37.5998 44.3999 37.5998ZM15.5999 31.1998H18.7999C20.3999 31.1998 20.3999 28.7998 18.7999 28.7998H15.5999C13.9999 28.7998 13.9999 31.1998 15.5999 31.1998ZM18.7999 24.7998H15.5999C14.8789 24.7998 14.3999 24.2609 14.3999 23.5998C14.3999 22.9387 14.8789 22.3998 15.5999 22.3998H18.7999C19.5209 22.3998 19.9999 22.9387 19.9999 23.5998C19.9999 24.2609 19.5209 24.7998 18.7999 24.7998ZM15.5999 37.5998H18.7999C19.5209 37.5998 19.9999 37.0609 19.9999 36.3998C19.9999 35.7387 19.5209 35.1998 18.7999 35.1998H15.5999C14.8789 35.1998 14.3999 35.7387 14.3999 36.3998C14.3999 37.0609 14.8789 37.5998 15.5999 37.5998ZM24.7999 18.7998C24.7999 19.4625 24.2626 19.9998 23.5999 19.9998C22.9372 19.9998 22.3999 19.4625 22.3999 18.7998V13.9998C22.3999 13.3371 22.9372 12.7998 23.5999 12.7998C24.2626 12.7998 24.7999 13.3371 24.7999 13.9998V18.7998ZM27.5999 28.3998C27.5999 27.958 27.9581 27.5998 28.3999 27.5998H31.5999C32.0417 27.5998 32.3999 27.958 32.3999 28.3998V31.5998C32.3999 32.0416 32.0417 32.3998 31.5999 32.3998H28.3999C27.9581 32.3998 27.5999 32.0416 27.5999 31.5998V28.3998Z" fill="#0364FF"/>
<path fill-rule="evenodd" clip-rule="evenodd" d="M36.4 18H23.6C20.5072 18 18 20.5072 18 23.6V36.4C18 39.4928 20.5072 42 23.6 42H36.4C39.4928 42 42 39.4928 42 36.4V23.6C42 20.5072 39.4928 18 36.4 18ZM31.6 26H28.4C27.0745 26 26 27.0745 26 28.4V31.6C26 32.9255 27.0745 34 28.4 34H31.6C32.9255 34 34 32.9255 34 31.6V28.4C34 27.0745 32.9255 26 31.6 26Z" fill="#0364FF"/>
</svg>
