<svg width="221" height="51" viewBox="0 0 221 51" fill="none" xmlns="http://www.w3.org/2000/svg">
<path d="M70.4297 31.579C68.8609 33.1367 66.5243 33.9652 64.4548 33.9652C58.5801 33.9652 56.3103 29.8888 56.2769 25.978C56.2435 22.0341 58.7136 17.792 64.4548 17.792C66.5243 17.792 68.6272 18.4879 70.196 20.0125L73.1668 17.1623C70.7301 14.7761 67.6592 13.5498 64.4548 13.5498C55.8763 13.5498 51.8374 19.8136 51.8708 25.978C51.9042 32.1093 55.6427 38.1411 64.4548 38.1411C67.8929 38.1411 71.0305 37.0474 73.5006 34.6281L70.4297 31.579Z" fill="#01134A"/>
<path d="M83.214 20.6753C77.8733 20.6753 74.5687 24.586 74.5687 29.3253C74.5687 34.0978 77.8399 37.9754 83.2473 37.9754C88.6548 37.9754 91.9593 34.0978 91.9593 29.3253C91.9927 24.586 88.5546 20.6753 83.214 20.6753ZM83.2473 34.1972C80.2432 34.1972 78.7078 31.8441 78.7078 29.3253C78.7078 26.8397 80.2766 24.4203 83.2473 24.4203C86.0178 24.4203 87.7869 26.8397 87.7869 29.3253C87.8203 31.8441 86.2849 34.1972 83.2473 34.1972Z" fill="#01134A"/>
<path d="M113.923 20.7748C111.753 20.7748 109.817 21.4376 108.315 23.7907C107.381 21.5039 105.378 20.7085 103.375 20.7085C101.773 20.7085 99.8368 21.305 98.969 22.9953L98.6686 20.9736H94.83V37.6109H98.969V28.7288C98.969 26.5415 100.304 24.5529 102.541 24.5529C104.81 24.5529 105.979 26.5415 105.979 28.7288V37.6109H110.118V28.7288C110.118 26.5415 111.52 24.6192 113.756 24.6192C115.992 24.6192 116.927 26.4752 116.927 28.6626V37.6109H121.066V28.6626C121.033 23.6581 118.696 20.7748 113.923 20.7748Z" fill="#01134A"/>
<path d="M134.485 20.6421C132.582 20.6421 130.345 21.4375 129.044 23.2934L128.777 21.0067H124.905V44.5705H129.044V35.6885C130.245 37.5113 132.849 38.0416 134.618 38.0416C139.992 38.0416 143.063 34.1971 143.063 29.3584C143.063 24.4534 139.625 20.6421 134.485 20.6421ZM134.151 34.0314C131.347 34.0314 129.411 31.9103 129.411 29.3253C129.411 26.7402 131.18 24.6191 134.151 24.6191C137.121 24.6191 138.891 26.7402 138.891 29.3253C138.924 31.9103 136.988 34.0314 134.151 34.0314Z" fill="#01134A"/>
<path d="M153.978 20.6753C148.637 20.6753 145.333 24.586 145.333 29.3253C145.333 34.0978 148.604 37.9754 154.011 37.9754C159.452 37.9754 162.723 34.0978 162.723 29.3253C162.723 24.586 159.319 20.6753 153.978 20.6753ZM154.011 34.1972C151.007 34.1972 149.472 31.8441 149.472 29.3253C149.472 26.8397 151.041 24.4203 154.011 24.4203C156.782 24.4203 158.551 26.8397 158.551 29.3253C158.551 31.8441 157.049 34.1972 154.011 34.1972Z" fill="#01134A"/>
<path d="M172.437 27.4033C170.3 27.2708 169.332 26.6742 169.332 25.5805C169.332 24.52 170.4 23.9234 172.37 23.9234C173.972 23.9234 175.307 24.288 176.509 25.4148L178.812 22.7303C176.876 21.0401 174.907 20.543 172.303 20.543C169.232 20.543 165.227 21.9018 165.227 25.7462C165.227 29.5244 168.998 30.6512 172.136 30.9164C174.506 31.0489 175.474 31.5129 175.474 32.6729C175.474 33.8991 174.005 34.6946 172.47 34.6614C170.601 34.6283 167.897 33.634 166.695 32.3415L164.659 35.2911C167.096 37.8099 169.733 38.2407 172.403 38.2407C177.176 38.2407 179.58 35.7219 179.58 32.7723C179.613 28.2982 175.608 27.6022 172.437 27.4033Z" fill="#01134A"/>
<path d="M181.883 16.3334C181.883 19.5482 186.756 19.5482 186.756 16.3334C186.756 13.1187 181.883 13.1187 181.883 16.3334ZM182.25 20.9402V37.6105H186.389V20.9402H182.25Z" fill="#01134A"/>
<path d="M200.108 33.6009C199.507 33.8992 198.74 34.098 198.105 34.098C196.804 34.098 195.936 33.3358 195.936 31.745V24.5863H200.576V21.0401H195.969V16.334L191.83 16.7648V21.0401H188.726V24.5863H191.83V31.745C191.83 35.8877 194.2 37.9425 197.838 37.8099C199.107 37.7768 200.075 37.5779 201.276 37.114L200.108 33.6009Z" fill="#01134A"/>
<path d="M211.824 20.5098C206.383 20.5098 202.945 24.1554 202.945 29.1929C202.945 34.5288 206.383 38.0418 212.158 38.0418C214.695 38.0418 217.599 37.1801 219.335 35.3573L216.698 32.7723C215.763 33.7334 213.76 34.3299 212.225 34.3299C209.321 34.3299 207.518 32.8385 207.251 30.7837H220.303C220.903 23.9234 217.399 20.5098 211.824 20.5098ZM207.251 27.3701C207.852 25.2159 209.688 24.1222 211.924 24.1222C214.294 24.1222 215.997 25.1828 216.264 27.3701H207.251Z" fill="#01134A"/>
<path d="M22.4303 0.259766L0.299805 12.9531V38.3067L22.4303 51L44.5607 38.3067V12.9531L22.4303 0.259766ZM22.4303 43.9739L6.4416 34.7936V16.433L22.4303 7.25271L35.3814 14.6765L38.4523 16.433V34.7936L35.3814 36.5501L22.4303 43.9739Z" fill="#0364FF"/>
<path d="M30.6082 24.3206L32.5776 23.1938V19.747L29.5067 17.9905L22.3969 13.9141L12.2162 19.747V31.413L22.3969 37.2459L29.5067 33.1695L32.5776 31.413V27.9662L30.6082 26.8394H26.4691V27.8668L22.4302 30.1867L18.3914 27.8668V23.2269L22.4302 20.907L26.4691 23.2269V24.2875H30.6082V24.3206Z" fill="#0364FF"/>
<path d="M43.0253 17.3277L38.419 19.9459L32.611 23.2269L30.6082 24.3206H26.4692V19.7802L29.5401 18.0236L35.3481 14.6763H35.3814L39.9544 12.0581L43.0253 17.3277Z" fill="#0364FF"/>
<path d="M43.0253 33.8987L41.4899 36.5501L39.9544 39.1683L35.3481 36.5501L29.5401 33.2027L26.4692 31.4462V26.9058H30.6082L32.611 27.9995L38.419 31.2805L43.0253 33.8987Z" fill="#0364FF"/>
</svg>
