<svg width="22" height="24" viewBox="0 0 22 24" fill="none" xmlns="http://www.w3.org/2000/svg">
<path d="M17.2939 7.10709H16.0054V4.82655C16.0054 3.54647 15.4624 2.31882 14.4958 1.41366C13.5292 0.50851 12.2182 0 10.8512 0C9.48429 0 8.17331 0.50851 7.20672 1.41366C6.24013 2.31882 5.69711 3.54647 5.69711 4.82655V7.10709H4.40857C3.38335 7.10709 2.40012 7.48847 1.67518 8.16734C0.950237 8.8462 0.542969 9.76694 0.542969 10.727V20.3801C0.542969 21.3402 0.950237 22.2609 1.67518 22.9398C2.40012 23.6186 3.38335 24 4.40857 24H17.2939C18.3191 24 19.3024 23.6186 20.0273 22.9398C20.7523 22.2609 21.1595 21.3402 21.1595 20.3801V10.727C21.1595 9.76694 20.7523 8.8462 20.0273 8.16734C19.3024 7.48847 18.3191 7.10709 17.2939 7.10709ZM8.27418 4.82655C8.25685 4.16929 8.51829 3.53237 9.00128 3.0552C9.48427 2.57803 10.1495 2.29949 10.8512 2.28054C11.553 2.29949 12.2182 2.57803 12.7012 3.0552C13.1842 3.53237 13.4457 4.16929 13.4283 4.82655V7.10709H8.27418V4.82655ZM10.8512 19.1735C10.0867 19.1735 9.33933 18.9612 8.70363 18.5634C8.06794 18.1656 7.57247 17.6003 7.27989 16.9388C6.98732 16.2774 6.91076 15.5495 7.05992 14.8473C7.20907 14.1451 7.57724 13.5001 8.11785 12.9939C8.65847 12.4876 9.34725 12.1429 10.0971 12.0032C10.847 11.8635 11.6242 11.9352 12.3306 12.2092C13.0369 12.4832 13.6406 12.9471 14.0654 13.5424C14.4901 14.1377 14.7169 14.8376 14.7169 15.5535C14.7169 16.5136 14.3096 17.4343 13.5846 18.1132C12.8597 18.7921 11.8765 19.1735 10.8512 19.1735Z" fill="black"/>
</svg>
