<svg width="24" height="24" viewBox="0 0 24 24" fill="none" xmlns="http://www.w3.org/2000/svg">
<path d="M4.64418 4.80005H20.5442C22.0442 4.80005 22.8002 5.50805 22.8002 6.94805V17.052C22.8002 18.48 22.0442 19.2 20.5442 19.2H4.64418C3.14418 19.2 2.38818 18.48 2.38818 17.052V6.94805C2.38818 5.50805 3.14418 4.80005 4.64418 4.80005ZM12.5882 15.12L20.6762 8.48405C20.9642 8.24405 21.1922 7.69205 20.8322 7.20005C20.4842 6.70805 19.8482 6.69605 19.4282 6.99605L12.5882 11.628L5.76018 6.99605C5.34018 6.69605 4.70418 6.70805 4.35618 7.20005C3.99618 7.69205 4.22418 8.24405 4.51218 8.48405L12.5882 15.12Z" fill="black"/>
</svg>
