<svg width="60" height="60" viewBox="0 0 60 60" fill="none" xmlns="http://www.w3.org/2000/svg">
<rect opacity="0.1" width="60" height="60" rx="10" fill="#B3BAC5"/>
<path fill-rule="evenodd" clip-rule="evenodd" d="M20.2002 31.0002C20.2002 40.3126 23.9868 47.8002 29.0002 47.8002C34.0136 47.8002 37.8002 40.3126 37.8002 31.0002C37.8002 21.6878 34.0136 14.2002 29.0002 14.2002C23.9868 14.2002 20.2002 21.6878 20.2002 31.0002ZM35.5045 31.0002C35.5045 38.9414 32.4309 45.456 29.0002 45.456C25.5694 45.456 22.4958 38.9414 22.4958 31.0002C22.4958 23.059 25.5694 16.5444 29.0002 16.5444C32.4309 16.5444 35.5045 23.059 35.5045 31.0002Z" fill="#0364FF"/>
<path fill-rule="evenodd" clip-rule="evenodd" d="M14.4948 22.2527C11.9824 26.8338 16.5017 34.2243 24.4986 39.0848C32.5356 43.9698 40.9593 44.3888 43.5048 39.7473C46.0172 35.1662 41.4979 27.7757 33.501 22.9152C25.4641 18.0302 17.0403 17.6112 14.4948 22.2527ZM16.5487 23.3633C18.2966 20.1762 25.4362 20.7361 32.2801 24.8958C39.1652 29.0806 43.2328 35.3875 41.4509 38.6367C39.703 41.8238 32.5634 41.2639 25.7195 37.1042C18.8344 32.9194 14.7668 26.6125 16.5487 23.3633Z" fill="#0364FF"/>
<path fill-rule="evenodd" clip-rule="evenodd" d="M14.4948 39.7473C17.0403 44.3888 25.4641 43.9698 33.501 39.0848C41.4979 34.2243 46.0172 26.8338 43.5048 22.2527C40.9593 17.6112 32.5356 18.0302 24.4986 22.9152C16.5017 27.7757 11.9824 35.1662 14.4948 39.7473ZM16.5487 38.6367C14.7668 35.3875 18.8344 29.0806 25.7195 24.8958C32.5634 20.7361 39.703 20.1762 41.4509 23.3633C43.2328 26.6125 39.1652 32.9194 32.2801 37.1042C25.4362 41.2639 18.2966 41.8238 16.5487 38.6367Z" fill="#0364FF"/>
<path d="M29 35C26.7909 35 25 33.2091 25 31C25 28.7909 26.7909 27 29 27C31.2091 27 33 28.7909 33 31C33 33.2091 31.2091 35 29 35Z" fill="#0364FF"/>
</svg>
