<svg width="27" height="17" viewBox="0 0 27 17" fill="none" xmlns="http://www.w3.org/2000/svg">
<path d="M26.2548 4.46318L14.487 0.847713C13.8457 0.650697 13.1538 0.650697 12.513 0.847713L0.74482 4.46318C-0.248273 4.7682 -0.248273 6.08149 0.74482 6.38651L2.7964 7.01679C2.34626 7.57324 2.06951 8.25204 2.04209 8.99539C1.63582 9.22826 1.34979 9.64845 1.34979 10.1501C1.34979 10.6048 1.58941 10.9875 1.93451 11.2322L0.857461 16.0787C0.763805 16.5001 1.08443 16.9001 1.51601 16.9001H3.88315C4.31515 16.9001 4.63577 16.5001 4.54212 16.0787L3.46507 11.2322C3.81016 10.9875 4.04979 10.6048 4.04979 10.1501C4.04979 9.66195 3.77684 9.25357 3.38913 9.01648C3.4212 8.38282 3.7452 7.82257 4.26199 7.46735L12.5126 10.0024C12.8948 10.1197 13.628 10.2661 14.4866 10.0024L26.2548 6.38693C27.2483 6.08149 27.2483 4.76862 26.2548 4.46318ZM14.8831 11.2929C13.6795 11.6625 12.6539 11.4583 12.116 11.2929L5.99801 9.41346L5.39979 14.2001C5.39979 15.6914 9.02623 16.9001 13.4998 16.9001C17.9734 16.9001 21.5998 15.6914 21.5998 14.2001L21.0016 9.41304L14.8831 11.2929Z" fill="black"/>
</svg>
