<svg width="26" height="27" viewBox="0 0 26 27" fill="none" xmlns="http://www.w3.org/2000/svg">
<path d="M25.8416 13.8842C25.8416 6.702 20.0539 0.883301 12.9208 0.883301C5.78288 0.883301 0 6.702 0 13.8842C0 20.3716 4.72337 25.7507 10.9019 26.7249V17.643H7.62086V13.885H10.9019V11.0191C10.9019 7.76157 12.828 5.96257 15.7804 5.96257C17.1944 5.96257 18.6746 6.21609 18.6746 6.21609V9.41512H17.0426C15.4404 9.41512 14.9397 10.4186 14.9397 11.4465V13.8842H18.5228L17.947 17.6422H14.9397V26.7241C21.1134 25.7499 25.8416 20.3708 25.8416 13.8833V13.8842Z" fill="#0364FF"/>
</svg>
