<svg width="14" height="12" viewBox="0 0 14 12" fill="none" xmlns="http://www.w3.org/2000/svg">
<path d="M12.113 1.36397C11.7969 1.0478 11.4216 0.796995 11.0085 0.625883C10.5955 0.45477 10.1527 0.366699 9.70565 0.366699C9.25856 0.366699 8.81584 0.45477 8.40279 0.625883C7.98974 0.796995 7.61444 1.0478 7.29832 1.36397L7.00067 1.66162L6.70301 1.36397C6.3869 1.0478 6.0116 0.796995 5.59855 0.625883C5.18549 0.45477 4.74278 0.366699 4.29569 0.366699C3.8486 0.366699 3.40588 0.45477 2.99283 0.625883C2.57978 0.796995 2.20448 1.0478 1.88836 1.36397C0.86766 2.38437 0.689562 3.95645 1.41256 5.56953C2.29381 7.53653 6.42116 11.3164 6.59635 11.4764C6.70686 11.5772 6.85106 11.6331 7.00065 11.6331C7.15024 11.6331 7.29444 11.5772 7.40495 11.4764C7.58015 11.3164 11.7075 7.53653 12.5887 5.56924C13.3118 3.95645 13.1337 2.38437 12.113 1.36397ZM11.4942 5.07852C10.9124 6.37637 8.34481 8.9489 7.00067 10.2145C5.65653 8.94893 3.08954 6.37725 2.50711 5.07881C2.26219 4.53125 1.79344 3.15576 2.7368 2.2124C3.15024 1.79896 3.71099 1.5667 4.29569 1.5667C4.88038 1.5667 5.44113 1.79896 5.85457 2.2124L6.57647 2.93428C6.63217 2.99001 6.6983 3.03421 6.77109 3.06437C6.84388 3.09454 6.9219 3.11006 7.00069 3.11006C7.07948 3.11006 7.15749 3.09454 7.23028 3.06437C7.30307 3.03421 7.3692 2.99001 7.4249 2.93428L8.14676 2.2124C8.56685 1.81171 9.12511 1.58816 9.70565 1.58816C10.2862 1.58816 10.8444 1.81171 11.2645 2.2124C12.2079 3.15576 11.7391 4.53125 11.4942 5.07852Z" fill="white"/>
</svg>
