<svg width="221" height="51" viewBox="0 0 221 51" fill="none" xmlns="http://www.w3.org/2000/svg">
<path d="M70.1299 31.3192C68.5611 32.8769 66.2245 33.7055 64.155 33.7055C58.2802 33.7055 56.0105 29.629 55.9771 25.7183C55.9437 21.7744 58.4138 17.5322 64.155 17.5322C66.2245 17.5322 68.3274 18.2282 69.8962 19.7527L72.867 16.9025C70.4303 14.5163 67.3594 13.29 64.155 13.29C55.5765 13.29 51.5376 19.5539 51.571 25.7183C51.6044 31.8495 55.3429 37.8813 64.155 37.8813C67.5931 37.8813 70.7307 36.7876 73.2008 34.3683L70.1299 31.3192Z" fill="white"/>
<path d="M82.9143 20.4155C77.5736 20.4155 74.269 24.3263 74.269 29.0656C74.269 33.838 77.5402 37.7156 82.9477 37.7156C88.3551 37.7156 91.6597 33.838 91.6597 29.0656C91.693 24.3263 88.255 20.4155 82.9143 20.4155ZM82.9477 33.9374C79.9435 33.9374 78.4081 31.5843 78.4081 29.0656C78.4081 26.5799 79.9769 24.1606 82.9477 24.1606C85.7181 24.1606 87.4872 26.5799 87.4872 29.0656C87.5206 31.5843 85.9852 33.9374 82.9477 33.9374Z" fill="white"/>
<path d="M113.623 20.515C111.454 20.515 109.518 21.1778 108.016 23.5309C107.081 21.2441 105.078 20.4487 103.075 20.4487C101.473 20.4487 99.5372 21.0453 98.6693 22.7355L98.3689 20.7139H94.5303V37.3511H98.6693V28.4691C98.6693 26.2817 100.004 24.2932 102.241 24.2932C104.511 24.2932 105.679 26.2817 105.679 28.4691V37.3511H109.818V28.4691C109.818 26.2817 111.22 24.3595 113.456 24.3595C115.693 24.3595 116.627 26.2154 116.627 28.4028V37.3511H120.766V28.4028C120.733 23.3984 118.396 20.515 113.623 20.515Z" fill="white"/>
<path d="M134.185 20.3823C132.282 20.3823 130.046 21.1777 128.744 23.0337L128.477 20.7469H124.605V44.3108H128.744V35.4288C129.946 37.2516 132.549 37.7818 134.318 37.7818C139.692 37.7818 142.763 33.9374 142.763 29.0986C142.763 24.1936 139.325 20.3823 134.185 20.3823ZM133.851 33.7717C131.047 33.7717 129.111 31.6506 129.111 29.0655C129.111 26.4804 130.88 24.3594 133.851 24.3594C136.822 24.3594 138.591 26.4804 138.591 29.0655C138.624 31.6506 136.688 33.7717 133.851 33.7717Z" fill="white"/>
<path d="M153.678 20.4155C148.338 20.4155 145.033 24.3263 145.033 29.0656C145.033 33.838 148.304 37.7156 153.712 37.7156C159.153 37.7156 162.424 33.838 162.424 29.0656C162.424 24.3263 159.019 20.4155 153.678 20.4155ZM153.712 33.9374C150.708 33.9374 149.172 31.5843 149.172 29.0656C149.172 26.5799 150.741 24.1606 153.712 24.1606C156.482 24.1606 158.251 26.5799 158.251 29.0656C158.251 31.5843 156.749 33.9374 153.712 33.9374Z" fill="white"/>
<path d="M172.137 27.1436C170 27.011 169.032 26.4144 169.032 25.3208C169.032 24.2602 170.101 23.6637 172.07 23.6637C173.672 23.6637 175.007 24.0282 176.209 25.1551L178.512 22.4706C176.576 20.7803 174.607 20.2832 172.003 20.2832C168.932 20.2832 164.927 21.642 164.927 25.4865C164.927 29.2647 168.699 30.3915 171.836 30.6566C174.206 30.7892 175.174 31.2532 175.174 32.4131C175.174 33.6394 173.706 34.4348 172.17 34.4016C170.301 34.3685 167.597 33.3742 166.396 32.0817L164.359 35.0313C166.796 37.5501 169.433 37.981 172.103 37.981C176.877 37.981 179.28 35.4622 179.28 32.5126C179.313 28.0384 175.308 27.3424 172.137 27.1436Z" fill="white"/>
<path d="M181.583 16.0737C181.583 19.2884 186.457 19.2884 186.457 16.0737C186.457 12.8589 181.583 12.8589 181.583 16.0737ZM181.951 20.6804V37.3508H186.09V20.6804H181.951Z" fill="white"/>
<path d="M199.809 33.3411C199.208 33.6394 198.44 33.8383 197.806 33.8383C196.504 33.8383 195.636 33.076 195.636 31.4852V24.3265H200.276V20.7804H195.67V16.0742L191.531 16.5051V20.7804H188.426V24.3265H191.531V31.4852C191.531 35.6279 193.9 37.6827 197.539 37.5502C198.807 37.517 199.775 37.3182 200.977 36.8542L199.809 33.3411Z" fill="white"/>
<path d="M211.524 20.25C206.084 20.25 202.646 23.8956 202.646 28.9332C202.646 34.269 206.084 37.7821 211.858 37.7821C214.395 37.7821 217.299 36.9204 219.035 35.0976L216.398 32.5125C215.463 33.4736 213.46 34.0702 211.925 34.0702C209.021 34.0702 207.218 32.5788 206.951 30.524H220.003C220.604 23.6636 217.099 20.25 211.524 20.25ZM206.951 27.1104C207.552 24.9561 209.388 23.8625 211.625 23.8625C213.994 23.8625 215.697 24.923 215.964 27.1104H206.951Z" fill="white"/>
<path d="M22.1305 0L0 12.6933V38.0469L22.1305 50.7402L44.2609 38.0469V12.6933L22.1305 0ZM22.1305 43.7142L6.14179 34.5339V16.1732L22.1305 6.99294L35.0816 14.4167L38.1525 16.1732V34.5339L35.0816 36.2904L22.1305 43.7142Z" fill="white"/>
<path d="M30.3085 24.0609L32.2779 22.934V19.4873L29.207 17.7307L22.0972 13.6543L11.9165 19.4873V31.1532L22.0972 36.9862L29.207 32.9097L32.2779 31.1532V27.7065L30.3085 26.5796H26.1695V27.607L22.1306 29.927L18.0917 27.607V22.9672L22.1306 20.6472L26.1695 22.9672V24.0277H30.3085V24.0609Z" fill="white"/>
<path d="M42.7256 17.0679L38.1192 19.6861L32.3112 22.9672L30.3085 24.0608H26.1694V19.5204L29.2403 17.7639L35.0483 14.4165H35.0817L39.6547 11.7983L42.7256 17.0679Z" fill="white"/>
<path d="M42.7256 33.6389L41.1901 36.2903L39.6547 38.9085L35.0483 36.2903L29.2403 32.943L26.1694 31.1864V26.646H30.3085L32.3112 27.7397L38.1192 31.0207L42.7256 33.6389Z" fill="white"/>
</svg>
