<svg width="127" height="30" viewBox="0 0 127 30" fill="none" xmlns="http://www.w3.org/2000/svg">
<path d="M40.471 18.0739C39.5657 18.9728 38.2173 19.451 37.023 19.451C33.6327 19.451 32.3228 17.0985 32.3036 14.8416C32.2843 12.5657 33.7097 10.1175 37.023 10.1175C38.2173 10.1175 39.4308 10.5192 40.3362 11.399L42.0506 9.75415C40.6444 8.37709 38.8722 7.66943 37.023 7.66943C32.0724 7.66943 29.7416 11.2842 29.7609 14.8416C29.7801 18.3799 31.9376 21.8608 37.023 21.8608C39.007 21.8608 40.8177 21.2297 42.2432 19.8335L40.471 18.0739Z" fill="#01134A"/>
<path d="M47.8489 11.7815C44.7669 11.7815 42.8599 14.0383 42.8599 16.7733C42.8599 19.5275 44.7476 21.7652 47.8682 21.7652C50.9888 21.7652 52.8958 19.5275 52.8958 16.7733C52.9151 14.0383 50.931 11.7815 47.8489 11.7815ZM47.8682 19.5848C46.1345 19.5848 45.2485 18.2269 45.2485 16.7733C45.2485 15.3389 46.1538 13.9427 47.8682 13.9427C49.467 13.9427 50.488 15.3389 50.488 16.7733C50.5072 18.2269 49.6211 19.5848 47.8682 19.5848Z" fill="#01134A"/>
<path d="M65.5701 11.8388C64.318 11.8388 63.2008 12.2213 62.334 13.5792C61.7946 12.2596 60.6388 11.8005 59.483 11.8005C58.5584 11.8005 57.4412 12.1448 56.9404 13.1202L56.767 11.9535H54.5518V21.5547H56.9404V16.429C56.9404 15.1667 57.7109 14.0191 59.0015 14.0191C60.3114 14.0191 60.9855 15.1667 60.9855 16.429V21.5547H63.3741V16.429C63.3741 15.1667 64.1832 14.0574 65.4738 14.0574C66.7644 14.0574 67.3038 15.1284 67.3038 16.3907V21.5547H69.6924V16.3907C69.6731 13.5027 68.3247 11.8388 65.5701 11.8388Z" fill="#01134A"/>
<path d="M77.4366 11.7625C76.3387 11.7625 75.048 12.2215 74.2968 13.2925L74.1427 11.9728H71.9082V25.5713H74.2968V20.4456C74.9903 21.4975 76.4928 21.8035 77.5137 21.8035C80.615 21.8035 82.3872 19.5849 82.3872 16.7925C82.3872 13.9619 80.4031 11.7625 77.4366 11.7625ZM77.244 19.4893C75.6259 19.4893 74.5087 18.2652 74.5087 16.7734C74.5087 15.2816 75.5296 14.0576 77.244 14.0576C78.9584 14.0576 79.9793 15.2816 79.9793 16.7734C79.9986 18.2652 78.8814 19.4893 77.244 19.4893Z" fill="#01134A"/>
<path d="M88.6858 11.7815C85.6038 11.7815 83.6968 14.0383 83.6968 16.7733C83.6968 19.5275 85.5845 21.7652 88.7051 21.7652C91.845 21.7652 93.7327 19.5275 93.7327 16.7733C93.7327 14.0383 91.7679 11.7815 88.6858 11.7815ZM88.7051 19.5848C86.9715 19.5848 86.0854 18.2269 86.0854 16.7733C86.0854 15.3389 86.9907 13.9427 88.7051 13.9427C90.3039 13.9427 91.3249 15.3389 91.3249 16.7733C91.3249 18.2269 90.458 19.5848 88.7051 19.5848Z" fill="#01134A"/>
<path d="M99.3383 15.6639C98.1055 15.5874 97.5469 15.2431 97.5469 14.612C97.5469 13.9999 98.1633 13.6557 99.2998 13.6557C100.224 13.6557 100.995 13.8661 101.688 14.5163L103.018 12.9671C101.9 11.9917 100.764 11.7048 99.2613 11.7048C97.4891 11.7048 95.1776 12.489 95.1776 14.7076C95.1776 16.8879 97.3543 17.5382 99.165 17.6912C100.533 17.7677 101.091 18.0355 101.091 18.7049C101.091 19.4126 100.244 19.8716 99.3576 19.8524C98.2789 19.8333 96.7186 19.2595 96.0251 18.5136L94.8501 20.2158C96.2563 21.6694 97.7781 21.918 99.3191 21.918C102.074 21.918 103.461 20.4645 103.461 18.7623C103.48 16.1803 101.168 15.7786 99.3383 15.6639Z" fill="#01134A"/>
<path d="M104.79 9.27593C104.79 11.1311 107.602 11.1311 107.602 9.27593C107.602 7.42072 104.79 7.42072 104.79 9.27593ZM105.001 11.9344V21.5547H107.39V11.9344H105.001Z" fill="#01134A"/>
<path d="M115.307 19.2407C114.961 19.4128 114.518 19.5276 114.152 19.5276C113.4 19.5276 112.9 19.0877 112.9 18.1696V14.0385H115.577V11.992H112.919V9.27612L110.53 9.52476V11.992H108.739V14.0385H110.53V18.1696C110.53 20.5604 111.898 21.7462 113.998 21.6697C114.73 21.6506 115.288 21.5358 115.982 21.268L115.307 19.2407Z" fill="#01134A"/>
<path d="M122.069 11.6858C118.929 11.6858 116.945 13.7896 116.945 16.6968C116.945 19.776 118.929 21.8034 122.261 21.8034C123.725 21.8034 125.401 21.3061 126.403 20.2542L124.881 18.7624C124.342 19.317 123.186 19.6613 122.3 19.6613C120.624 19.6613 119.584 18.8006 119.43 17.6148H126.962C127.308 13.6557 125.286 11.6858 122.069 11.6858ZM119.43 15.6448C119.776 14.4017 120.836 13.7705 122.127 13.7705C123.494 13.7705 124.477 14.3825 124.631 15.6448H119.43Z" fill="#01134A"/>
<path d="M12.7713 0L0 7.3252V21.9565L12.7713 29.2817L25.5425 21.9565V7.3252L12.7713 0ZM12.7713 25.227L3.54437 19.9291V9.33342L12.7713 4.03556L20.2453 8.31975L22.0174 9.33342V19.9291L20.2453 20.9428L12.7713 25.227Z" fill="#0364FF"/>
<path d="M17.4898 13.8854L18.6263 13.2351V11.246L16.8541 10.2324L12.7511 7.87988L6.87598 11.246V17.9783L12.7511 21.3445L16.8541 18.992L18.6263 17.9783V15.9892L17.4898 15.339H15.1012V15.9319L12.7704 17.2707L10.4396 15.9319V13.2542L12.7704 11.9154L15.1012 13.2542V13.8663H17.4898V13.8854Z" fill="#0364FF"/>
<path d="M24.6569 9.84985L21.9986 11.3608L18.6469 13.2542L17.4911 13.8854H15.1025V11.2652L16.8747 10.2515L20.2265 8.31978H20.2457L22.8847 6.80884L24.6569 9.84985Z" fill="#0364FF"/>
<path d="M24.6569 19.4128L23.7708 20.9428L22.8847 22.4538L20.2265 20.9428L16.8747 19.0111L15.1025 17.9974V15.3772H17.4911L18.6469 16.0084L21.9986 17.9018L24.6569 19.4128Z" fill="#0364FF"/>
</svg>
