<svg width="60" height="60" viewBox="0 0 60 60" fill="none" xmlns="http://www.w3.org/2000/svg">
<rect opacity="0.1" width="60" height="60" rx="10" fill="#B3BAC5"/>
<path fill-rule="evenodd" clip-rule="evenodd" d="M15.6002 14.2002H44.4002C45.7257 14.2002 46.8002 15.2747 46.8002 16.6002V42.2002C46.8002 45.293 44.293 47.8002 41.2002 47.8002H18.8002C15.7074 47.8002 13.2002 45.293 13.2002 42.2002V16.6002C13.2002 15.2747 14.2747 14.2002 15.6002 14.2002ZM18.8002 19.0002C18.3584 19.0002 18.0002 19.3584 18.0002 19.8002V26.2002C18.0002 26.642 18.3584 27.0002 18.8002 27.0002H41.2002C41.642 27.0002 42.0002 26.642 42.0002 26.2002V19.8002C42.0002 19.3584 41.642 19.0002 41.2002 19.0002H18.8002ZM18.8002 30.2002H22.0002C22.442 30.2002 22.8002 30.5584 22.8002 31.0002C22.8002 31.442 22.442 31.8002 22.0002 31.8002H18.8002C18.3584 31.8002 18.0002 31.442 18.0002 31.0002C18.0002 30.5584 18.3584 30.2002 18.8002 30.2002ZM41.2002 30.2002H38.0002C37.5584 30.2002 37.2002 30.5584 37.2002 31.0002C37.2002 31.442 37.5584 31.8002 38.0002 31.8002H41.2002C41.642 31.8002 42.0002 31.442 42.0002 31.0002C42.0002 30.5584 41.642 30.2002 41.2002 30.2002ZM28.4002 30.2002H31.6002C32.042 30.2002 32.4002 30.5584 32.4002 31.0002C32.4002 31.442 32.042 31.8002 31.6002 31.8002H28.4002C27.9584 31.8002 27.6002 31.442 27.6002 31.0002C27.6002 30.5584 27.9584 30.2002 28.4002 30.2002ZM22.0002 35.0002H18.8002C18.3584 35.0002 18.0002 35.3584 18.0002 35.8002C18.0002 36.242 18.3584 36.6002 18.8002 36.6002H22.0002C22.442 36.6002 22.8002 36.242 22.8002 35.8002C22.8002 35.3584 22.442 35.0002 22.0002 35.0002ZM38.0002 35.0002H41.2002C41.642 35.0002 42.0002 35.3584 42.0002 35.8002C42.0002 36.242 41.642 36.6002 41.2002 36.6002H38.0002C37.5584 36.6002 37.2002 36.242 37.2002 35.8002C37.2002 35.3584 37.5584 35.0002 38.0002 35.0002ZM31.6002 35.0002H28.4002C27.9584 35.0002 27.6002 35.3584 27.6002 35.8002C27.6002 36.242 27.9584 36.6002 28.4002 36.6002H31.6002C32.042 36.6002 32.4002 36.242 32.4002 35.8002C32.4002 35.3584 32.042 35.0002 31.6002 35.0002ZM18.8002 39.8002H22.0002C22.442 39.8002 22.8002 40.1584 22.8002 40.6002C22.8002 41.042 22.442 41.4002 22.0002 41.4002H18.8002C18.3584 41.4002 18.0002 41.042 18.0002 40.6002C18.0002 40.1584 18.3584 39.8002 18.8002 39.8002ZM41.2002 39.8002H38.0002C37.5584 39.8002 37.2002 40.1584 37.2002 40.6002C37.2002 41.042 37.5584 41.4002 38.0002 41.4002H41.2002C41.642 41.4002 42.0002 41.042 42.0002 40.6002C42.0002 40.1584 41.642 39.8002 41.2002 39.8002ZM28.4002 39.8002H31.6002C32.042 39.8002 32.4002 40.1584 32.4002 40.6002C32.4002 41.042 32.042 41.4002 31.6002 41.4002H28.4002C27.9584 41.4002 27.6002 41.042 27.6002 40.6002C27.6002 40.1584 27.9584 39.8002 28.4002 39.8002Z" fill="#0364FF"/>
<path d="M19.6001 20.5996V25.3996H40.4001V20.5996H19.6001Z" fill="#0364FF"/>
</svg>
