<svg width="38" height="41" viewBox="0 0 38 41" fill="none" xmlns="http://www.w3.org/2000/svg">
<path d="M0.642055 29.6457C0.214018 26.5492 0 23.4704 0 20.4091C0 17.3482 0.213961 14.2697 0.641882 11.1737C0.737147 10.4845 1.09548 9.85963 1.64091 9.43168C4.0771 7.5202 6.62013 5.79487 9.26999 4.25571C11.9206 2.71612 14.678 1.3628 17.5424 0.195739C18.1824 -0.0650388 18.8982 -0.0652536 19.5383 0.195139C22.3872 1.3539 25.1444 2.70742 27.81 4.25571C30.4752 5.80378 33.0186 7.52904 35.4402 9.43148C35.9849 9.85941 36.3427 10.4838 36.4379 11.1725C36.8659 14.2689 37.08 17.3478 37.08 20.4091C37.08 23.4699 36.866 26.5484 36.4381 29.6444C36.3428 30.3337 35.9845 30.9585 35.4391 31.3865C33.0029 33.2979 30.4598 35.0233 27.81 36.5624C25.1594 38.102 22.4019 39.4553 19.5376 40.6224C18.8975 40.8832 18.1818 40.8834 17.5416 40.623C14.6928 39.4642 11.9356 38.1107 9.26999 36.5624C6.60479 35.0144 4.06138 33.2891 1.63978 31.3867C1.09507 30.9587 0.737253 30.3343 0.642055 29.6457Z" fill="#82C43C"/>
<mask id="mask0_1780_1653" style="mask-type:alpha" maskUnits="userSpaceOnUse" x="0" y="0" width="38" height="41">
<path d="M0.642055 29.6457C0.214018 26.5492 0 23.4704 0 20.4091C0 17.3482 0.213961 14.2697 0.641882 11.1737C0.737147 10.4845 1.09548 9.85963 1.64091 9.43168C4.0771 7.5202 6.62013 5.79487 9.26999 4.25571C11.9206 2.71612 14.678 1.3628 17.5424 0.195739C18.1824 -0.0650388 18.8982 -0.0652536 19.5383 0.195139C22.3872 1.3539 25.1444 2.70742 27.81 4.25571C30.4752 5.80378 33.0186 7.52904 35.4402 9.43148C35.9849 9.85941 36.3427 10.4838 36.4379 11.1725C36.8659 14.2689 37.08 17.3478 37.08 20.4091C37.08 23.4699 36.866 26.5484 36.4381 29.6444C36.3428 30.3337 35.9845 30.9585 35.4391 31.3865C33.0029 33.2979 30.4598 35.0233 27.81 36.5624C25.1594 38.102 22.4019 39.4553 19.5376 40.6224C18.8975 40.8832 18.1818 40.8834 17.5416 40.623C14.6928 39.4642 11.9356 38.1107 9.26999 36.5624C6.60479 35.0144 4.06138 33.2891 1.63978 31.3867C1.09507 30.9587 0.737253 30.3343 0.642055 29.6457Z" fill="white"/>
</mask>
<g mask="url(#mask0_1780_1653)">
</g>
<g clip-path="url(#clip0_1780_1653)">
<path d="M17.3036 20.8789L18.6523 33.0647L24.6916 35.5867C25.6676 35.9942 26.744 35.2773 26.744 34.2196V20.8789H17.3036Z" fill="#F1543F"/>
<path d="M10.5605 20.8789V34.2184C10.5605 35.2764 11.6375 35.9934 12.6136 35.5852L18.6523 33.0601V20.8789H10.5605Z" fill="#FF7058"/>
<path d="M16.6293 15.8047L30.4527 17.1581C30.4527 23.6879 25.1587 29.0009 18.6523 29.0009L16.6293 15.8047Z" fill="#FFD15C"/>
<path d="M30.4527 17.1572H16.6293L18.6523 5.31445C25.1587 5.31445 30.4527 10.6275 30.4527 17.1572Z" fill="#FFD15C"/>
<path d="M18.6523 17.1571V28.9999C12.1459 28.9999 6.85187 23.6869 6.85187 17.1571L12.7521 15.127L18.6523 17.1571Z" fill="#FFD15C"/>
<path d="M18.6523 5.31445V17.1572H6.85187C6.85187 10.6275 12.1459 5.31445 18.6523 5.31445Z" fill="#FFD15C"/>
<path d="M18.6523 8.69727C14.0042 8.69727 10.2234 12.4917 10.2234 17.1564L18.6523 24.2621C24.8559 24.2621 27.0811 17.1564 27.0811 17.1564C27.0811 12.4917 23.3003 8.69727 18.6523 8.69727Z" fill="white"/>
<path d="M25.0582 17.1575C25.0582 20.7022 22.1843 23.5864 18.6523 23.5864V10.7285C15.1202 10.7285 12.2463 13.6127 12.2463 17.1575H10.2234C10.2234 21.8222 14.0042 25.6166 18.6523 25.6166C23.3003 25.6166 27.0811 21.8222 27.0811 17.1575H25.0582Z" fill="white"/>
<ellipse cx="18.6523" cy="17.083" rx="8.75514" ry="8.73148" fill="#F8B64C"/>
<path d="M21.0753 19.0333V20.5391H16.0228V19.0333H17.7899V15.2626C17.7153 15.3622 17.595 15.4659 17.429 15.5737C17.2714 15.6733 17.0972 15.7687 16.9064 15.86C16.7156 15.9512 16.5165 16.0259 16.309 16.084C16.1099 16.142 15.9316 16.1711 15.7739 16.1711V14.6155C15.9233 14.6155 16.1058 14.5699 16.3215 14.4786C16.5372 14.3791 16.7487 14.2629 16.9562 14.1302C17.1636 13.9974 17.3419 13.8688 17.4913 13.7444C17.6489 13.6117 17.7485 13.508 17.7899 13.4333H19.4948V19.0333H21.0753Z" fill="#FFEFC8"/>
</g>
<defs>
<clipPath id="clip0_1780_1653">
<rect width="23.6008" height="31.1296" fill="white" transform="translate(6.85187 5.31445)"/>
</clipPath>
</defs>
</svg>
