<svg width="21" height="21" viewBox="0 0 21 21" fill="none" xmlns="http://www.w3.org/2000/svg">
<path d="M9.93949 0.931152C4.98077 0.931152 0.941437 4.97047 0.941437 9.92921C0.941437 14.8879 4.98077 18.9351 9.93949 18.9351C12.0575 18.9351 14.0054 18.1929 15.545 16.9605L19.293 20.7065C19.4822 20.8879 19.7348 20.9879 19.9968 20.9852C20.2588 20.9825 20.5093 20.8774 20.6947 20.6922C20.8801 20.5071 20.9856 20.2568 20.9887 19.9948C20.9917 19.7328 20.892 19.48 20.711 19.2906L16.9629 15.5426C18.1964 14.0007 18.9395 12.0497 18.9395 9.92921C18.9395 4.97047 14.8982 0.931152 9.93949 0.931152ZM9.93949 2.93118C13.8173 2.93118 16.9375 6.05138 16.9375 9.92921C16.9375 13.807 13.8173 16.9351 9.93949 16.9351C6.06165 16.9351 2.94144 13.807 2.94144 9.92921C2.94144 6.05138 6.06165 2.93118 9.93949 2.93118Z" fill="#01134A"/>
</svg>
