<svg width="60" height="72" viewBox="0 0 60 72" fill="none" xmlns="http://www.w3.org/2000/svg">
<g opacity="0.15">
<path d="M8.06345 4.19603C8.06345 6.08304 6.41116 7.61277 4.37297 7.61277C2.33478 7.61277 0.682495 6.08304 0.682495 4.19603C0.682495 2.30902 2.33478 0.779297 4.37297 0.779297C6.41116 0.779297 8.06345 2.30902 8.06345 4.19603Z" fill="#4CBC9A"/>
<path d="M25.2857 4.19603C25.2857 6.08304 23.6334 7.61277 21.5952 7.61277C19.557 7.61277 17.9047 6.08304 17.9047 4.19603C17.9047 2.30902 19.557 0.779297 21.5952 0.779297C23.6334 0.779297 25.2857 2.30902 25.2857 4.19603Z" fill="#4CBC9A"/>
<path d="M42.5079 4.19603C42.5079 6.08304 40.8556 7.61277 38.8174 7.61277C36.7792 7.61277 35.1269 6.08304 35.1269 4.19603C35.1269 2.30902 36.7792 0.779297 38.8174 0.779297C40.8556 0.779297 42.5079 2.30902 42.5079 4.19603Z" fill="#4CBC9A"/>
<path d="M59.7301 4.19603C59.7301 6.08304 58.0778 7.61277 56.0396 7.61277C54.0014 7.61277 52.3492 6.08304 52.3492 4.19603C52.3492 2.30902 54.0014 0.779297 56.0396 0.779297C58.0778 0.779297 59.7301 2.30902 59.7301 4.19603Z" fill="#4CBC9A"/>
<path d="M8.06345 20.1408C8.06345 22.0278 6.41116 23.5575 4.37297 23.5575C2.33478 23.5575 0.682495 22.0278 0.682495 20.1408C0.682495 18.2538 2.33478 16.7241 4.37297 16.7241C6.41116 16.7241 8.06345 18.2538 8.06345 20.1408Z" fill="#4CBC9A"/>
<path d="M25.2857 20.1408C25.2857 22.0278 23.6334 23.5575 21.5952 23.5575C19.557 23.5575 17.9047 22.0278 17.9047 20.1408C17.9047 18.2538 19.557 16.7241 21.5952 16.7241C23.6334 16.7241 25.2857 18.2538 25.2857 20.1408Z" fill="#4CBC9A"/>
<path d="M42.5079 20.1408C42.5079 22.0278 40.8556 23.5575 38.8174 23.5575C36.7792 23.5575 35.1269 22.0278 35.1269 20.1408C35.1269 18.2538 36.7792 16.7241 38.8174 16.7241C40.8556 16.7241 42.5079 18.2538 42.5079 20.1408Z" fill="#4CBC9A"/>
<path d="M59.7301 20.1408C59.7301 22.0278 58.0778 23.5575 56.0396 23.5575C54.0014 23.5575 52.3492 22.0278 52.3492 20.1408C52.3492 18.2538 54.0014 16.7241 56.0396 16.7241C58.0778 16.7241 59.7301 18.2538 59.7301 20.1408Z" fill="#4CBC9A"/>
<path d="M8.06345 36.0855C8.06345 37.9726 6.41116 39.5023 4.37297 39.5023C2.33478 39.5023 0.682495 37.9726 0.682495 36.0855C0.682495 34.1985 2.33478 32.6688 4.37297 32.6688C6.41116 32.6688 8.06345 34.1985 8.06345 36.0855Z" fill="#4CBC9A"/>
<path d="M25.2857 36.0855C25.2857 37.9726 23.6334 39.5023 21.5952 39.5023C19.557 39.5023 17.9047 37.9726 17.9047 36.0855C17.9047 34.1985 19.557 32.6688 21.5952 32.6688C23.6334 32.6688 25.2857 34.1985 25.2857 36.0855Z" fill="#4CBC9A"/>
<path d="M42.5079 36.0855C42.5079 37.9726 40.8556 39.5023 38.8174 39.5023C36.7792 39.5023 35.1269 37.9726 35.1269 36.0855C35.1269 34.1985 36.7792 32.6688 38.8174 32.6688C40.8556 32.6688 42.5079 34.1985 42.5079 36.0855Z" fill="#4CBC9A"/>
<path d="M59.7301 36.0855C59.7301 37.9726 58.0778 39.5023 56.0396 39.5023C54.0014 39.5023 52.3492 37.9726 52.3492 36.0855C52.3492 34.1985 54.0014 32.6688 56.0396 32.6688C58.0778 32.6688 59.7301 34.1985 59.7301 36.0855Z" fill="#4CBC9A"/>
<path d="M8.06345 52.0303C8.06345 53.9173 6.41116 55.447 4.37297 55.447C2.33478 55.447 0.682495 53.9173 0.682495 52.0303C0.682495 50.1433 2.33478 48.6136 4.37297 48.6136C6.41116 48.6136 8.06345 50.1433 8.06345 52.0303Z" fill="#4CBC9A"/>
<path d="M25.2857 52.0303C25.2857 53.9173 23.6334 55.447 21.5952 55.447C19.557 55.447 17.9047 53.9173 17.9047 52.0303C17.9047 50.1433 19.557 48.6136 21.5952 48.6136C23.6334 48.6136 25.2857 50.1433 25.2857 52.0303Z" fill="#4CBC9A"/>
<path d="M42.5079 52.0303C42.5079 53.9173 40.8556 55.447 38.8174 55.447C36.7792 55.447 35.1269 53.9173 35.1269 52.0303C35.1269 50.1433 36.7792 48.6136 38.8174 48.6136C40.8556 48.6136 42.5079 50.1433 42.5079 52.0303Z" fill="#4CBC9A"/>
<path d="M59.7301 52.0303C59.7301 53.9173 58.0778 55.447 56.0396 55.447C54.0014 55.447 52.3492 53.9173 52.3492 52.0303C52.3492 50.1433 54.0014 48.6136 56.0396 48.6136C58.0778 48.6136 59.7301 50.1433 59.7301 52.0303Z" fill="#4CBC9A"/>
<path d="M8.06345 67.9751C8.06345 69.8621 6.41116 71.3918 4.37297 71.3918C2.33478 71.3918 0.682495 69.8621 0.682495 67.9751C0.682495 66.0881 2.33478 64.5583 4.37297 64.5583C6.41116 64.5583 8.06345 66.0881 8.06345 67.9751Z" fill="#4CBC9A"/>
<path d="M25.2857 67.9751C25.2857 69.8621 23.6334 71.3918 21.5952 71.3918C19.557 71.3918 17.9047 69.8621 17.9047 67.9751C17.9047 66.0881 19.557 64.5583 21.5952 64.5583C23.6334 64.5583 25.2857 66.0881 25.2857 67.9751Z" fill="#4CBC9A"/>
<path d="M42.5079 67.9751C42.5079 69.8621 40.8556 71.3918 38.8174 71.3918C36.7792 71.3918 35.1269 69.8621 35.1269 67.9751C35.1269 66.0881 36.7792 64.5583 38.8174 64.5583C40.8556 64.5583 42.5079 66.0881 42.5079 67.9751Z" fill="#4CBC9A"/>
<path d="M59.7301 67.9751C59.7301 69.8621 58.0778 71.3918 56.0396 71.3918C54.0014 71.3918 52.3492 69.8621 52.3492 67.9751C52.3492 66.0881 54.0014 64.5583 56.0396 64.5583C58.0778 64.5583 59.7301 66.0881 59.7301 67.9751Z" fill="#4CBC9A"/>
</g>
</svg>
