<svg width="20" height="20" viewBox="0 0 20 20" fill="none" xmlns="http://www.w3.org/2000/svg">
<path d="M9.5 9C11.9853 9 14 6.98528 14 4.5C14 2.01472 11.9853 0 9.5 0C7.01472 0 5 2.01472 5 4.5C5 6.98528 7.01472 9 9.5 9Z" fill="#03014C"/>
<path d="M19.8684 17.7733C19.0846 16.0702 17.7247 14.6092 15.965 13.5798C14.2054 12.5504 12.1272 12 10 12C7.87277 12 5.7946 12.5504 4.03497 13.5798C2.27535 14.6092 0.915441 16.0702 0.131592 17.7733C0.018112 18.0196 -0.0229094 18.2863 0.0121757 18.5496C0.0472608 18.8129 0.157365 19.0647 0.332695 19.2825C0.507352 19.5047 0.742892 19.6864 1.01849 19.8115C1.29408 19.9367 1.60124 20.0014 1.91279 20H18.0872C18.3988 20.0014 18.7059 19.9367 18.9815 19.8115C19.2571 19.6864 19.4926 19.5047 19.6673 19.2825C19.8426 19.0647 19.9527 18.8129 19.9878 18.5496C20.0229 18.2863 19.9819 18.0196 19.8684 17.7733Z" fill="#03014C"/>
</svg>
