<svg width="71" height="71" viewBox="0 0 71 71" fill="none" xmlns="http://www.w3.org/2000/svg">
<circle cx="3.32625" cy="35.2582" r="3.32625" transform="rotate(-90 3.32625 35.2582)" fill="#CCCCCC"/>
<circle cx="3.32625" cy="51.4662" r="3.32625" transform="rotate(-90 3.32625 51.4662)" fill="#CCCCCC"/>
<circle cx="3.32625" cy="67.6737" r="3.32625" transform="rotate(-90 3.32625 67.6737)" fill="#CCCCCC"/>
<circle cx="3.32625" cy="19.2924" r="3.32625" transform="rotate(-90 3.32625 19.2924)" fill="#CCCCCC"/>
<circle cx="3.32625" cy="3.32609" r="3.32625" transform="rotate(-90 3.32625 3.32609)" fill="#CCCCCC"/>
<circle cx="19.2923" cy="35.2582" r="3.32625" transform="rotate(-90 19.2923 35.2582)" fill="#CCCCCC"/>
<circle cx="19.2923" cy="51.4662" r="3.32625" transform="rotate(-90 19.2923 51.4662)" fill="#CCCCCC"/>
<circle cx="19.2923" cy="67.6737" r="3.32625" transform="rotate(-90 19.2923 67.6737)" fill="#CCCCCC"/>
<circle cx="19.2923" cy="19.2924" r="3.32625" transform="rotate(-90 19.2923 19.2924)" fill="#CCCCCC"/>
<circle cx="19.2923" cy="3.32609" r="3.32625" transform="rotate(-90 19.2923 3.32609)" fill="#CCCCCC"/>
<circle cx="35.2583" cy="35.2582" r="3.32625" transform="rotate(-90 35.2583 35.2582)" fill="#CCCCCC"/>
<circle cx="35.2583" cy="51.4662" r="3.32625" transform="rotate(-90 35.2583 51.4662)" fill="#CCCCCC"/>
<circle cx="35.2583" cy="67.6737" r="3.32625" transform="rotate(-90 35.2583 67.6737)" fill="#CCCCCC"/>
<circle cx="35.2583" cy="19.2924" r="3.32625" transform="rotate(-90 35.2583 19.2924)" fill="#CCCCCC"/>
<circle cx="35.2583" cy="3.32609" r="3.32625" transform="rotate(-90 35.2583 3.32609)" fill="#CCCCCC"/>
<circle cx="51.2243" cy="35.2582" r="3.32625" transform="rotate(-90 51.2243 35.2582)" fill="#CCCCCC"/>
<circle cx="51.2243" cy="51.4662" r="3.32625" transform="rotate(-90 51.2243 51.4662)" fill="#CCCCCC"/>
<circle cx="51.2243" cy="67.6737" r="3.32625" transform="rotate(-90 51.2243 67.6737)" fill="#CCCCCC"/>
<circle cx="51.2243" cy="19.2924" r="3.32625" transform="rotate(-90 51.2243 19.2924)" fill="#CCCCCC"/>
<circle cx="51.2243" cy="3.32609" r="3.32625" transform="rotate(-90 51.2243 3.32609)" fill="#CCCCCC"/>
<circle cx="67.1903" cy="35.2582" r="3.32625" transform="rotate(-90 67.1903 35.2582)" fill="#CCCCCC"/>
<circle cx="67.1903" cy="51.4662" r="3.32625" transform="rotate(-90 67.1903 51.4662)" fill="#CCCCCC"/>
<circle cx="67.1903" cy="67.6737" r="3.32625" transform="rotate(-90 67.1903 67.6737)" fill="#CCCCCC"/>
<circle cx="67.1903" cy="19.2924" r="3.32625" transform="rotate(-90 67.1903 19.2924)" fill="#CCCCCC"/>
<circle cx="67.1903" cy="3.32609" r="3.32625" transform="rotate(-90 67.1903 3.32609)" fill="#CCCCCC"/>
</svg>
