<svg width="21" height="20" viewBox="0 0 21 20" fill="none" xmlns="http://www.w3.org/2000/svg">
<path d="M19.7836 6.91921L13.8328 6.05437L11.1726 0.661398C11.1 0.513742 10.9805 0.39421 10.8328 0.321554C10.4625 0.138742 10.0125 0.291085 9.82733 0.661398L7.16717 6.05437L1.21639 6.91921C1.05233 6.94265 0.902327 7.01999 0.787483 7.13718C0.648643 7.27988 0.572136 7.47187 0.574773 7.67095C0.57741 7.87003 0.658975 8.05992 0.801545 8.1989L5.10701 12.3966L4.08983 18.3239C4.06597 18.4618 4.08123 18.6036 4.13387 18.7332C4.18651 18.8629 4.27442 18.9752 4.38764 19.0574C4.50086 19.1397 4.63486 19.1885 4.77444 19.1985C4.91401 19.2084 5.05358 19.1791 5.17733 19.1137L10.5 16.3153L15.8226 19.1137C15.968 19.1911 16.1367 19.2169 16.2984 19.1887C16.7062 19.1184 16.9805 18.7317 16.9101 18.3239L15.893 12.3966L20.1984 8.1989C20.3156 8.08405 20.393 7.93405 20.4164 7.76999C20.4797 7.35984 20.1937 6.98015 19.7836 6.91921Z" fill="#0364FF"/>
</svg>
