<svg width="14" height="14" viewBox="0 0 14 14" fill="none" xmlns="http://www.w3.org/2000/svg">
<path fill-rule="evenodd" clip-rule="evenodd" d="M6.66667 13.3333C10.3486 13.3333 13.3333 10.3486 13.3333 6.66667C13.3333 2.98477 10.3486 0 6.66667 0C2.98477 0 0 2.98477 0 6.66667C0 10.3486 2.98477 13.3333 6.66667 13.3333ZM6.66667 12.1212C3.6542 12.1212 1.21212 9.67913 1.21212 6.66667C1.21212 3.6542 3.6542 1.21212 6.66667 1.21212C9.67913 1.21212 12.1212 3.6542 12.1212 6.66667C12.1212 9.67913 9.67913 12.1212 6.66667 12.1212ZM9.81292 4.28702C9.97085 3.81323 9.5201 3.36248 9.04631 3.52041L5.18936 4.80606C5.00839 4.86638 4.86638 5.00839 4.80606 5.18936L3.52041 9.04631C3.36248 9.5201 3.81323 9.97085 4.28702 9.81292L8.14397 8.52728C8.32494 8.46695 8.46695 8.32494 8.52728 8.14397L9.81292 4.28702ZM5.05328 8.27963L5.63977 6.52014L6.82649 7.68856L5.05328 8.27963ZM7.68595 6.83373L6.48529 5.65159L8.27934 5.05357L7.68595 6.83373Z" fill="#EB6B09"/>
</svg>
