<svg width="1620" height="383" viewBox="0 0 1620 383" fill="none" xmlns="http://www.w3.org/2000/svg">
<path d="M489.463 302.411C252.095 192.083 358.181 -18.188 440.896 -109.533C600.241 -276.402 624.995 -122.82 815.384 -202.062C1005.77 -281.303 899.624 -119.08 960.365 -13.9445C1021.11 91.1913 1163.11 -138.066 1270.12 57.9566C1377.14 253.979 1098.77 555.29 1011.27 252.652C923.776 -49.9869 786.173 440.32 489.463 302.411Z" stroke="#5155C2" stroke-width="2"/>
<path d="M565.165 261.617C382.374 176.552 463.92 14.7478 527.542 -55.5215C650.113 -183.885 669.256 -65.6449 815.774 -126.536C962.291 -187.427 880.67 -62.6098 927.489 18.3575C974.308 99.3248 1083.49 -77.0744 1165.98 73.8828C1248.48 224.84 1034.36 456.629 966.831 223.61C899.302 -9.40847 793.653 367.947 565.165 261.617Z" stroke="#5155C2" stroke-width="2"/>
<path d="M419.197 340.013C130.909 205.914 259.605 -49.3446 359.989 -160.212C553.379 -362.739 583.525 -176.24 814.66 -272.35C1045.79 -368.46 916.996 -171.543 990.811 -43.8489C1064.63 83.8454 1236.92 -194.446 1366.98 43.6325C1497.03 281.711 1159.2 647.416 1052.78 279.891C946.362 -87.6337 779.557 507.636 419.197 340.013Z" stroke="#5155C2" stroke-width="2"/>
<path d="M360.384 371.806C29.7919 218.201 177.617 -74.7125 292.853 -201.968C514.848 -434.443 549.284 -220.528 814.494 -330.957C1079.7 -441.386 931.806 -215.398 1016.38 -68.9733C1100.95 77.4511 1298.81 -241.917 1447.81 31.0882C1596.82 304.093 1209 723.864 1087.21 302.349C965.426 -119.166 773.624 563.813 360.384 371.806Z" stroke="#5155C2" stroke-width="2"/>
<path d="M275.948 416.814C-116.008 234.427 58.8725 -112.546 195.307 -263.234C458.153 -538.503 499.191 -284.958 813.38 -415.545C1127.57 -546.132 952.533 -278.472 1052.92 -104.855C1153.31 68.761 1387.45 -309.511 1564.33 14.1843C1741.2 337.879 1282.04 834.935 1137.26 335.272C992.479 -164.392 765.893 644.798 275.948 416.814Z" stroke="#5155C2" stroke-width="2"/>
<path d="M177.344 469.23C-286.42 253.05 -80.0386 -157.055 81.1227 -335.084C391.624 -660.282 440.475 -360.393 811.878 -514.428C1183.28 -668.464 976.615 -352.154 1095.55 -146.712C1214.49 58.7295 1490.92 -388.314 1700.5 -5.29625C1910.09 377.722 1367.7 964.956 1195.85 373.88C1024 -217.195 757.049 739.455 177.344 469.23Z" stroke="#5155C2" stroke-width="2"/>
</svg>
