<svg width="256" height="219" viewBox="0 0 256 219" fill="none" xmlns="http://www.w3.org/2000/svg">
<g id="Group 48096009">
<g id="paper">
<g id="Group">
<g id="Group_2">
<path id="Vector" d="M176.83 11.7431L188.573 61.8836L224.69 53.4251L235.429 36.1166L226.971 0L176.83 11.7431Z" fill="#FFC221"/>
<path id="Vector_2" d="M221.427 39.2554L235.442 35.9282L224.754 53.2691L221.427 39.2554Z" fill="#3BBCA7"/>
</g>
</g>
<g id="Group_3">
<path id="Vector_3" d="M217.192 15.477L206.691 19.1735C206.443 17.0162 206.34 15.0576 206.653 14.3483C206.653 14.3483 202.085 12.113 201.071 15.5741C201.071 15.5741 203.161 15.9258 204.616 19.9049L194.006 23.6397L192.806 25.101C192.806 25.101 199.129 24.3638 205.488 23.266C205.698 24.4668 205.854 25.8515 205.933 27.4526C205.933 27.4526 199.089 27.5982 197.41 30.3824C197.41 30.3824 196.695 33.3771 200.256 33.1255C200.256 33.1255 202.746 27.5718 218.352 26.9537C218.352 26.9537 213.811 24.8862 207.897 26.7683C207.897 26.7683 207.567 25.0907 207.224 22.9555C211.98 22.0799 216.43 21.0204 217.884 19.9358C221.445 17.2811 217.192 15.477 217.192 15.477Z" fill="#081F51"/>
<path id="Vector_4" d="M218.203 30.8002C213.409 28.6988 209.992 32.2747 203.963 33.0193C197.934 33.764 202.465 35.365 203.907 35.8624C205.349 36.3598 210.355 33.4196 213.2 32.9561C216.044 32.4925 213.038 39.9136 212.008 40.074C210.978 40.2344 204.905 42.558 203.713 42.0812C202.972 41.7854 202.379 39.7047 202.037 38.1698C201.769 36.9749 201.005 35.9404 199.923 35.3164C196.676 33.4402 195.915 34.7587 195.915 34.7587C195.534 37.1014 198.155 37.4561 199.544 41.3454C201.414 46.5827 201.082 47.6555 202.775 46.9727C204.469 46.2899 207.321 43.7529 211.873 43.7396C216.501 43.7264 217.004 42.477 216.764 41.5779C216.47 40.4728 216.498 39.3 216.989 38.2566C218.674 34.6837 222.173 32.541 218.203 30.8002Z" fill="#081F51"/>
</g>
</g>
<g id="certificate">
<path id="Vector_5" d="M255.89 55.8984H142.905V132.693H255.89V55.8984Z" fill="#0071DC"/>
<path id="Vector_6" d="M250.169 119.371V69.219C246.063 69.219 242.733 65.8903 242.733 61.7832H156.061C156.061 65.8889 152.732 69.219 148.625 69.219V119.371C152.731 119.371 156.061 122.7 156.061 126.807H242.733C242.734 122.701 246.063 119.371 250.169 119.371Z" fill="#F5F5F5"/>
<g id="Group_4">
<path id="Vector_7" d="M185.112 87.9448C186.045 87.9448 186.946 87.2635 187.638 85.8817L187.697 85.7684L187.916 85.9346L187.857 86.0479C187.068 87.6298 185.928 88.4598 184.731 88.4598C183.192 88.4598 181.654 87.1413 181.654 84.3865C181.654 80.7679 183.632 79.1875 185.09 79.1875C186.366 79.1875 187.277 80.0881 187.277 81.4817C187.277 82.8061 186.397 83.9038 185.444 83.9038C184.805 83.9038 184.291 83.433 184.291 82.6972C184.291 81.9953 184.762 81.3683 185.133 81.127L185.277 81.2713C184.983 81.62 184.731 82.0482 184.731 82.6442C184.731 83.2549 185.058 83.6302 185.444 83.6302C185.979 83.6302 186.543 82.8311 186.543 81.3787C186.543 80.0602 185.916 79.4597 185.111 79.4597C184.259 79.4597 182.533 80.4884 182.533 84.1128C182.534 86.6807 183.81 87.9448 185.112 87.9448Z" fill="#382040"/>
<path id="Vector_8" d="M190.912 85.8816L190.965 85.7683L191.184 85.9346L191.131 86.0479C190.365 87.5812 189.594 88.1861 188.934 88.1861C188.001 88.1861 187.466 87.3502 187.466 86.3746C187.466 84.8368 188.387 83.7964 189.352 83.7964C189.845 83.7964 190.113 84.0804 190.113 84.4556C190.113 85.1797 189.213 85.7153 188.188 86.3422C188.29 87.0868 188.681 87.5798 189.277 87.5798C189.782 87.5798 190.307 87.0868 190.912 85.8816ZM189.048 84.1555C188.672 84.1555 188.169 84.6646 188.169 85.9463V86.07C188.662 85.808 189.445 85.2017 189.445 84.6175C189.444 84.3321 189.267 84.1555 189.048 84.1555Z" fill="#382040"/>
<path id="Vector_9" d="M190.912 85.8813L190.965 85.768C191.184 85.3339 191.318 84.8247 191.34 84.6525C190.965 84.6158 190.638 84.3524 190.638 83.9447C190.638 83.6181 190.89 83.4297 191.141 83.4297C191.49 83.4297 191.656 83.7402 191.656 84.0683C192.064 84.0683 192.61 83.7947 192.997 83.7947C193.163 83.7947 193.271 83.8594 193.271 84.0139C193.271 84.3627 192.589 86.1521 192.589 87.0851C192.589 87.4706 192.665 87.578 192.884 87.578C193.072 87.578 193.415 87.3367 194.149 85.8784L194.202 85.7651L194.422 85.9314L194.369 86.0447C193.511 87.7546 193.06 88.1829 192.557 88.1829C192.139 88.1829 191.845 87.8664 191.845 87.1969C191.845 86.0976 192.831 84.7262 192.997 84.0669L192.965 84.0345C192.734 84.0345 192.172 84.6128 191.614 84.6717C191.592 84.8703 191.405 85.4914 191.184 85.9314L191.131 86.0447L190.912 85.8813ZM191.062 83.8388C191.062 84.0051 191.261 84.0801 191.362 84.0801C191.362 83.8815 191.293 83.7314 191.174 83.7314C191.111 83.7314 191.062 83.7844 191.062 83.8388Z" fill="#382040"/>
<path id="Vector_10" d="M194.338 84.1234H193.849L193.908 83.7966H194.38C194.478 83.0726 194.589 82.3325 194.675 81.5981H195.222C195.19 81.9086 195.115 82.8313 195.062 83.7966H196.102L196.049 84.1234H195.041C194.982 84.9386 194.95 85.7259 194.95 86.1541C194.95 87.2431 195.084 87.5801 195.358 87.5801C195.722 87.5801 196.248 86.8031 196.708 85.8804L196.761 85.7671L196.981 85.9334L196.928 86.0467C196.268 87.3814 195.619 88.1849 195.062 88.1849C194.51 88.1849 194.183 87.6919 194.183 86.4264C194.182 85.6729 194.246 84.9062 194.338 84.1234Z" fill="#382040"/>
<path id="Vector_11" d="M197.034 85.8273L196.981 85.9347L196.928 86.0481L196.708 85.8818L196.761 85.7685C197.126 85.0445 197.201 84.2351 197.297 84.0159C197.378 83.8496 197.662 83.7966 197.737 83.7966C197.893 83.7966 197.936 83.8496 197.936 84.0159C197.936 84.1763 197.78 85.3344 197.78 86.5837C197.78 87.4843 197.968 87.5594 198.133 87.5594C198.364 87.5594 198.68 87.2106 199.35 85.8818L199.409 85.7685L199.628 85.9347L199.569 86.0481C199.034 87.1091 198.486 88.1862 197.924 88.1862C197.346 88.1862 197.078 87.7566 197.078 86.438C197.078 86.2556 197.078 86.0466 197.088 85.8273H197.034ZM197.693 83.1373C197.452 83.1373 197.253 82.949 197.253 82.6973C197.253 82.456 197.452 82.2573 197.693 82.2573C197.945 82.2573 198.133 82.456 198.133 82.6973C198.133 82.949 197.946 83.1373 197.693 83.1373Z" fill="#382040"/>
<path id="Vector_12" d="M201.703 85.7682L201.922 85.9345L201.869 86.0478C201.607 86.5731 201.145 86.9101 200.636 86.9101C200.486 86.9101 200.32 86.8778 200.164 86.8145V90.8775L199.618 90.9305C199.618 90.9305 199.398 87.8917 199.398 84.3967C199.398 81.6523 200.047 80.1733 200.77 80.1733C201.044 80.1733 201.263 80.3396 201.263 80.8326C201.263 82.0599 200.624 83.8934 200.164 85.0677V86.2686C200.287 86.4407 200.549 86.5202 200.727 86.5202C201.097 86.5202 201.419 86.3436 201.65 85.8815L201.703 85.7682ZM200.165 84.3746C200.52 83.3563 200.824 82.1393 200.824 81.1048C200.824 80.7781 200.771 80.5574 200.593 80.5574C200.277 80.5574 200.165 81.9289 200.165 83.5756V84.3746Z" fill="#382040"/>
<path id="Vector_13" d="M201.977 85.8273L201.924 85.9347L201.871 86.0481L201.651 85.8818L201.704 85.7685C202.069 85.0445 202.144 84.2351 202.24 84.0159C202.321 83.8496 202.605 83.7966 202.68 83.7966C202.836 83.7966 202.879 83.8496 202.879 84.0159C202.879 84.1763 202.723 85.3344 202.723 86.5837C202.723 87.4843 202.911 87.5594 203.076 87.5594C203.307 87.5594 203.623 87.2106 204.293 85.8818L204.352 85.7685L204.572 85.9347L204.514 86.0481C203.978 87.1091 203.43 88.1862 202.868 88.1862C202.29 88.1862 202.021 87.7566 202.021 86.438C202.021 86.2556 202.021 86.0466 202.031 85.8273H201.977ZM202.636 83.1373C202.395 83.1373 202.196 82.949 202.196 82.6973C202.196 82.456 202.395 82.2573 202.636 82.2573C202.887 82.2573 203.076 82.456 203.076 82.6973C203.076 82.949 202.887 83.1373 202.636 83.1373Z" fill="#382040"/>
<path id="Vector_14" d="M206.319 84.5734C206.319 84.332 206.218 84.1231 205.901 84.1231C205.494 84.1231 204.98 84.7176 204.98 85.9449C204.98 86.9102 205.398 87.5798 206.09 87.5798C206.593 87.5798 207.118 87.0868 207.725 85.8801L207.778 85.7668L207.997 85.9331L207.944 86.0464C207.171 87.5798 206.406 88.1846 205.747 88.1846C204.814 88.1846 204.278 87.3487 204.278 86.3731C204.278 84.8353 205.201 83.7949 206.053 83.7949C206.712 83.7949 206.921 84.2128 206.921 84.5071C206.921 84.8117 206.648 85.1664 206.219 85.2738L206.166 85.1237C206.249 84.9913 206.319 84.772 206.319 84.5734Z" fill="#382040"/>
<path id="Vector_15" d="M211.267 87.5798C211.476 87.5798 211.76 87.1883 212.302 86.1008L212.462 85.7683L212.681 85.9345L212.521 86.2671C211.915 87.4738 211.497 88.186 211.046 88.186C210.575 88.186 210.414 87.6283 210.365 86.9588C210.016 87.6401 209.534 88.186 209.041 88.186C208.322 88.186 207.641 87.5916 207.641 86.3201C207.641 84.8353 208.477 83.7949 209.42 83.7949C209.994 83.7949 210.396 84.385 210.487 84.6734L210.552 84.154C210.584 83.8803 211.088 83.7949 211.201 83.7949C211.286 83.7949 211.308 83.8155 211.308 83.9023C211.308 84.1216 211.024 85.2208 211.024 86.8558C211.026 87.2648 211.09 87.5798 211.267 87.5798ZM209.503 84.1231C208.886 84.1231 208.403 84.8574 208.403 85.9345C208.403 87.0014 208.773 87.5798 209.325 87.5798C209.807 87.5798 210.434 86.7704 210.434 85.4416C210.436 84.7823 210.007 84.1231 209.503 84.1231Z" fill="#382040"/>
<path id="Vector_16" d="M212.595 84.1234H212.106L212.165 83.7966H212.638C212.735 83.0726 212.847 82.3325 212.932 81.5981H213.479C213.447 81.9086 213.372 82.8313 213.319 83.7966H214.359L214.306 84.1234H213.298C213.24 84.9386 213.207 85.7259 213.207 86.1541C213.207 87.2431 213.341 87.5801 213.615 87.5801C213.98 87.5801 214.505 86.8031 214.966 85.8804L215.019 85.7671L215.238 85.9334L215.185 86.0467C214.526 87.3814 213.877 88.1849 213.319 88.1849C212.767 88.1849 212.44 87.6919 212.44 86.4264C212.439 85.6729 212.504 84.9062 212.595 84.1234Z" fill="#382040"/>
<path id="Vector_17" d="M218.235 85.8816L218.287 85.7683L218.507 85.9346L218.452 86.0479C217.686 87.5812 216.915 88.1861 216.255 88.1861C215.322 88.1861 214.787 87.3502 214.787 86.3746C214.787 84.8368 215.709 83.7964 216.673 83.7964C217.166 83.7964 217.434 84.0804 217.434 84.4556C217.434 85.1797 216.533 85.7153 215.509 86.3422C215.611 87.0868 216.002 87.5798 216.598 87.5798C217.104 87.5798 217.63 87.0868 218.235 85.8816ZM216.369 84.1555C215.993 84.1555 215.49 84.6646 215.49 85.9463V86.07C215.983 85.808 216.766 85.2017 216.766 84.6175C216.766 84.3321 216.589 84.1555 216.369 84.1555Z" fill="#382040"/>
</g>
<g id="Group_5">
<g id="Group_6">
<path id="Vector_18" d="M205.424 72.1227C205.427 72.1242 205.429 72.1256 205.431 72.1256C205.487 72.1492 205.546 72.1713 205.605 72.1919C205.711 72.2272 205.82 72.2522 205.932 72.264C206.145 72.2846 206.357 72.2419 206.535 72.1301C206.751 71.9932 206.896 71.7872 206.996 71.5694C207.081 71.384 207.134 71.1765 207.149 70.9764C207.018 70.8852 206.847 70.8322 206.682 70.8204C206.447 70.8027 206.223 70.8822 206.047 71.0176C205.817 71.1942 205.657 71.4326 205.523 71.6798C205.582 71.3649 205.617 71.0455 205.632 70.7262C205.746 70.7542 205.866 70.7747 205.985 70.7806C206.194 70.7909 206.404 70.7512 206.573 70.6379C206.781 70.4981 206.899 70.2862 206.965 70.0655C207.025 69.8668 207.049 69.6431 207.022 69.4371C206.725 69.2988 206.347 69.34 206.101 69.5445C205.845 69.7579 205.729 70.064 205.636 70.3583C205.635 70.0419 205.611 69.727 205.568 69.4136C205.577 69.415 205.585 69.4151 205.593 69.4165C205.624 69.4195 205.654 69.421 205.685 69.4224C205.741 69.4254 205.796 69.4254 205.852 69.4224C206.048 69.4121 206.241 69.3591 206.391 69.2414C206.565 69.106 206.654 68.9014 206.691 68.6998C206.729 68.4953 206.718 68.2687 206.66 68.0686C206.4 67.9891 206.089 68.0436 205.891 68.2157C205.651 68.4232 205.573 68.7426 205.532 69.028C205.527 69.0545 205.524 69.0825 205.521 69.109C205.521 69.1075 205.521 69.106 205.52 69.1046C205.467 68.8058 205.396 68.5101 205.309 68.2172C205.318 68.2172 205.327 68.2172 205.334 68.2172C205.364 68.2157 205.395 68.2142 205.424 68.2128C205.618 68.1981 205.819 68.1495 205.972 68.0347C206.154 67.8993 206.235 67.6933 206.253 67.4858C206.263 67.3696 206.25 67.2533 206.228 67.1386C206.21 67.0517 206.191 66.9619 206.154 66.8795C205.932 66.8398 205.68 66.8972 205.517 67.0385C205.33 67.2003 205.265 67.4402 205.245 67.6654C205.236 67.7743 205.233 67.8817 205.239 67.9906C205.146 67.7065 205.039 67.4255 204.918 67.1488C204.925 67.1474 204.934 67.1473 204.943 67.1459C204.972 67.1415 205.002 67.1371 205.031 67.1327C205.084 67.1224 205.136 67.1106 205.187 67.0958C205.277 67.0694 205.362 67.0311 205.437 66.9796C205.814 66.7206 205.749 66.2056 205.561 65.8642C205.387 65.8495 205.198 65.8995 205.064 65.9995C204.921 66.1055 204.853 66.26 204.825 66.4219C204.793 66.6088 204.812 66.8015 204.846 66.9884C204.744 66.7662 204.634 66.5455 204.516 66.3292C204.494 66.2894 204.472 66.2497 204.45 66.21C204.476 66.2041 204.503 66.1997 204.529 66.1923C204.631 66.1673 204.731 66.1305 204.821 66.079C205.017 65.9642 205.12 65.7744 205.117 65.564C205.114 65.3697 205.046 65.1696 204.936 65.0033C204.69 65.0018 204.453 65.1328 204.363 65.3403C204.276 65.5375 204.304 65.767 204.356 65.9686C204.368 66.0172 204.382 66.0643 204.396 66.1128C204.22 65.8053 204.029 65.5051 203.826 65.2137C203.757 65.1151 203.686 65.018 203.614 64.9224H203.596C203.785 65.1887 203.96 65.4624 204.125 65.7391C204.303 66.0407 204.469 66.3498 204.618 66.6647C204.61 66.6544 204.603 66.6456 204.596 66.6353C204.557 66.5867 204.516 66.5396 204.471 66.4984C204.382 66.419 204.281 66.3468 204.162 66.3086C203.947 66.2394 203.722 66.3262 203.585 66.4837C203.583 66.4852 203.582 66.4881 203.58 66.4896C203.664 66.6529 203.823 66.8104 204.013 66.8766C204.228 66.9502 204.453 66.8825 204.634 66.7692C204.643 66.7633 204.65 66.7589 204.659 66.753C204.705 66.853 204.749 66.9546 204.791 67.0561C204.84 67.1753 204.889 67.2945 204.934 67.4137C204.911 67.3784 204.886 67.3431 204.858 67.3093C204.799 67.2357 204.733 67.168 204.656 67.1091C204.552 67.0311 204.425 66.9737 204.287 66.9693C204.109 66.9649 203.931 67.0488 203.817 67.1695C203.904 67.3563 204.057 67.5373 204.266 67.6242C204.475 67.711 204.708 67.6698 204.903 67.5771C204.93 67.5653 204.955 67.5521 204.98 67.5373C205.008 67.6124 205.034 67.6874 205.059 67.764C205.112 67.9244 205.158 68.0877 205.202 68.251C205.17 68.1922 205.133 68.1363 205.092 68.0818C204.98 67.9361 204.828 67.7978 204.631 67.7551C204.416 67.7065 204.181 67.7875 204.023 67.9244C204.088 68.1068 204.209 68.2834 204.378 68.4012C204.549 68.5189 204.763 68.5498 204.971 68.5115C205.027 68.5012 205.08 68.4865 205.133 68.4688C205.162 68.4585 205.192 68.4482 205.22 68.4365C205.228 68.432 205.237 68.4291 205.246 68.4247C205.252 68.4497 205.259 68.4732 205.265 68.4982C205.324 68.7308 205.365 68.9692 205.398 69.2046C205.39 69.1855 205.381 69.1664 205.373 69.1472C205.299 68.9927 205.2 68.8441 205.056 68.7337C204.916 68.6263 204.741 68.5748 204.559 68.5983C204.421 68.616 204.281 68.669 204.17 68.747C204.207 68.9309 204.313 69.1237 204.457 69.259C204.607 69.3988 204.81 69.4739 205.025 69.4739C205.143 69.4739 205.259 69.4548 205.373 69.4239C205.39 69.4194 205.406 69.4136 205.424 69.4077C205.448 69.6108 205.462 69.8138 205.468 70.0169C205.47 70.0905 205.471 70.1641 205.471 70.2376C205.415 70.0478 205.331 69.8653 205.184 69.7182C204.937 69.471 204.529 69.468 204.225 69.6314C204.245 69.8315 204.325 70.0449 204.462 70.2053C204.591 70.3583 204.778 70.4584 204.987 70.4937C205.096 70.5128 205.206 70.5143 205.317 70.504C205.367 70.4996 205.417 70.4922 205.467 70.4834C205.457 70.7703 205.427 71.0573 205.38 71.3413C205.361 71.1942 205.323 71.047 205.252 70.9131C205.148 70.7189 204.977 70.5629 204.737 70.5128C204.55 70.4746 204.337 70.4966 204.16 70.5614C204.156 70.7542 204.189 70.9558 204.282 71.1324C204.382 71.3207 204.549 71.4679 204.762 71.5488C204.855 71.5841 204.953 71.6077 205.053 71.6209C205.109 71.6283 205.167 71.6327 205.223 71.6342C205.253 71.6356 205.284 71.6356 205.315 71.6342C205.318 71.6342 205.321 71.6342 205.324 71.6342C205.262 71.9241 205.181 72.211 205.081 72.4906C205.084 72.3979 205.08 72.3067 205.065 72.2154C205.028 71.9903 204.925 71.7666 204.712 71.6312C204.494 71.4929 204.191 71.4679 203.936 71.5209C203.891 71.7078 203.901 71.9153 203.951 72.0992C204.013 72.3023 204.136 72.4774 204.326 72.6039C204.509 72.7261 204.73 72.7923 204.953 72.8232C204.93 72.8776 204.906 72.9321 204.881 72.9865C204.778 73.2146 204.659 73.4383 204.526 73.6546C204.54 73.6016 204.549 73.5486 204.556 73.4957C204.59 73.2102 204.541 72.9041 204.297 72.7011C204.097 72.5348 203.795 72.4627 203.527 72.4715C203.348 72.8644 203.39 73.3426 203.719 73.6605C203.861 73.7988 204.041 73.9004 204.232 73.9725C204.256 73.9813 204.278 73.9886 204.301 73.9975C204.116 74.2579 203.907 74.5052 203.676 74.7333C203.685 74.7156 203.695 74.698 203.702 74.6803C203.823 74.4213 203.872 74.1152 203.733 73.8548C203.586 73.5766 203.242 73.4103 202.917 73.3515C202.643 73.7105 202.606 74.1903 202.839 74.5729C202.94 74.7407 203.083 74.8849 203.248 75.0041C203.273 75.0217 203.298 75.0393 203.323 75.0555C203.298 75.0761 203.273 75.0982 203.246 75.1188C203.04 75.2851 202.814 75.4352 202.581 75.5706C202.543 75.5927 202.503 75.6147 202.465 75.6368C202.703 75.3793 202.886 75.0526 202.783 74.7127C202.694 74.4213 202.409 74.1888 202.122 74.0475C202.05 74.1005 201.987 74.1682 201.929 74.2344C201.857 74.3183 201.794 74.4095 201.741 74.5052C201.629 74.7127 201.585 74.9481 201.623 75.1762C201.653 75.3572 201.729 75.5294 201.834 75.6839C201.879 75.753 201.932 75.8178 201.988 75.8811C201.951 75.8973 201.914 75.9149 201.879 75.9311C201.382 76.1445 200.87 76.3226 200.338 76.4535C199.85 76.5757 199.351 76.6654 198.849 76.7243C198.649 76.7478 198.447 76.767 198.246 76.7788C198.224 76.7802 198.227 76.7802 198.215 76.7994C198.193 76.8406 198.169 76.8803 198.146 76.9215C198.093 77.0127 198.038 77.1069 197.975 77.1937C198.11 77.1878 198.247 77.179 198.381 77.1658C199.4 77.0716 200.418 76.8523 201.363 76.4962C201.742 76.3534 202.11 76.1872 202.459 75.9929C202.496 76.0857 202.538 76.1754 202.591 76.2622C202.7 76.4447 202.855 76.6125 203.061 76.7096C203.298 76.8214 203.57 76.8347 203.827 76.7905C204.301 76.7096 204.749 76.4476 205.075 76.1342C205.03 75.8914 204.846 75.6618 204.609 75.5412C204.213 75.341 203.727 75.4264 203.315 75.5368C203.233 75.5588 203.152 75.5824 203.071 75.6088C203.374 75.3969 203.655 75.16 203.908 74.8981C203.917 74.9084 203.926 74.9187 203.935 74.929C204.086 75.1011 204.268 75.2616 204.497 75.3455C204.749 75.4382 205.028 75.4175 205.276 75.3234C205.721 75.1527 206.079 74.7863 206.301 74.4066C206.284 74.3772 206.264 74.3507 206.242 74.3242C206.107 74.1579 205.913 74.0284 205.689 73.9798C205.439 73.9254 205.178 73.974 204.947 74.0696C204.719 74.1638 204.516 74.2903 204.318 74.4242C204.529 74.1476 204.715 73.8548 204.874 73.5516C205.044 73.6694 205.236 73.7724 205.446 73.818C205.664 73.8651 205.889 73.8371 206.088 73.7429C206.323 73.6325 206.507 73.4501 206.647 73.2514C206.775 73.0704 206.881 72.8673 206.94 72.6598C206.928 72.6481 206.915 72.6363 206.902 72.6245C206.735 72.4818 206.512 72.3876 206.281 72.3817C206.023 72.3758 205.786 72.4789 205.586 72.6187C205.436 72.7231 205.305 72.8497 205.184 72.9807C205.155 73.0116 205.127 73.0439 205.097 73.0763C205.227 72.7717 205.333 72.4597 205.414 72.1463C205.421 72.1345 205.423 72.1286 205.424 72.1227Z" fill="#FFCC33"/>
<path id="Vector_19" d="M201.039 76.7935C201.028 76.7743 201.031 76.7744 201.008 76.7729C200.806 76.7611 200.605 76.742 200.405 76.7184C199.901 76.6596 199.404 76.5698 198.915 76.4477C198.384 76.3152 197.872 76.1386 197.375 75.9252C197.338 75.9091 197.301 75.8929 197.266 75.8752C197.322 75.8119 197.375 75.7472 197.42 75.678C197.526 75.522 197.601 75.3499 197.631 75.1703C197.669 74.9422 197.623 74.7068 197.511 74.4993C197.46 74.4037 197.397 74.3124 197.325 74.2286C197.267 74.1623 197.204 74.0946 197.132 74.0416C196.845 74.1814 196.559 74.4139 196.471 74.7068C196.368 75.0467 196.551 75.3734 196.789 75.631C196.749 75.6089 196.711 75.5868 196.673 75.5647C196.44 75.4293 196.215 75.2792 196.009 75.1129C195.983 75.0923 195.957 75.0703 195.932 75.0497C195.957 75.032 195.984 75.0159 196.008 74.9982C196.172 74.879 196.315 74.7348 196.417 74.567C196.648 74.1844 196.612 73.7047 196.339 73.3456C196.013 73.4045 195.669 73.5708 195.522 73.8489C195.384 74.1094 195.432 74.4155 195.553 74.6745C195.562 74.6921 195.57 74.7097 195.579 74.7274C195.348 74.4978 195.139 74.2521 194.954 73.9916C194.977 73.9843 195.001 73.9754 195.025 73.9666C195.216 73.8945 195.395 73.793 195.538 73.6546C195.866 73.3368 195.907 72.8585 195.729 72.4656C195.462 72.4583 195.16 72.5289 194.96 72.6952C194.715 72.8997 194.668 73.2058 194.701 73.4898C194.707 73.5428 194.717 73.5972 194.73 73.6487C194.598 73.4324 194.48 73.2102 194.376 72.9807C194.351 72.9262 194.327 72.8718 194.305 72.8173C194.529 72.7864 194.749 72.7202 194.932 72.5981C195.12 72.4715 195.244 72.2964 195.307 72.0933C195.357 71.9079 195.369 71.7019 195.322 71.515C195.067 71.4635 194.763 71.487 194.546 71.6253C194.333 71.7607 194.23 71.9844 194.193 72.2096C194.178 72.3008 194.174 72.3935 194.177 72.4848C194.077 72.2037 193.996 71.9167 193.934 71.6283C193.937 71.6283 193.94 71.6283 193.944 71.6283C193.975 71.6298 194.006 71.6298 194.037 71.6283C194.095 71.6268 194.15 71.6224 194.206 71.6151C194.306 71.6018 194.405 71.5783 194.498 71.5429C194.711 71.4605 194.877 71.3149 194.977 71.1265C195.07 70.9514 195.104 70.7498 195.1 70.5555C194.923 70.4893 194.71 70.4673 194.523 70.507C194.283 70.557 194.112 70.7115 194.008 70.9072C193.936 71.0411 193.897 71.1868 193.88 71.3355C193.833 71.0514 193.805 70.7645 193.793 70.4775C193.843 70.4864 193.893 70.4937 193.943 70.4981C194.053 70.507 194.164 70.5055 194.273 70.4879C194.482 70.4525 194.668 70.3525 194.798 70.1994C194.935 70.039 195.014 69.8257 195.035 69.6255C194.73 69.4622 194.323 69.4651 194.075 69.7123C193.928 69.8595 193.844 70.0434 193.788 70.2318C193.788 70.1582 193.788 70.0846 193.791 70.0111C193.797 69.808 193.812 69.6034 193.835 69.4018C193.853 69.4077 193.869 69.4121 193.887 69.418C193.999 69.4489 194.117 69.468 194.234 69.468C194.449 69.468 194.652 69.393 194.802 69.2532C194.947 69.1193 195.052 68.925 195.089 68.7411C194.98 68.6631 194.839 68.6101 194.701 68.5924C194.518 68.5689 194.343 68.6204 194.203 68.7278C194.059 68.8382 193.961 68.9868 193.887 69.1414C193.878 69.1605 193.871 69.1796 193.862 69.1988C193.894 68.9618 193.934 68.7234 193.994 68.4924C194 68.4674 194.008 68.4438 194.014 68.4188C194.022 68.4232 194.031 68.4262 194.04 68.4306C194.069 68.4424 194.097 68.4527 194.127 68.463C194.18 68.4806 194.234 68.4953 194.289 68.5056C194.496 68.5439 194.711 68.513 194.882 68.3953C195.051 68.2776 195.172 68.101 195.236 67.9185C195.08 67.7816 194.845 67.7022 194.629 67.7492C194.431 67.7934 194.28 67.9303 194.168 68.076C194.127 68.1289 194.09 68.1863 194.058 68.2452C194.102 68.0818 194.147 67.92 194.2 67.7581C194.225 67.683 194.252 67.6065 194.28 67.5315C194.305 67.5447 194.33 67.5579 194.356 67.5712C194.554 67.6639 194.786 67.7051 194.994 67.6183C195.203 67.5315 195.354 67.352 195.442 67.1636C195.328 67.0444 195.15 66.959 194.972 66.9634C194.833 66.9678 194.707 67.0238 194.602 67.1032C194.526 67.1606 194.459 67.2298 194.401 67.3034C194.374 67.3372 194.349 67.3725 194.324 67.4078C194.37 67.2887 194.418 67.1695 194.467 67.0503C194.509 66.9488 194.554 66.8472 194.599 66.7471C194.608 66.753 194.615 66.7589 194.624 66.7633C194.805 66.8766 195.03 66.9458 195.245 66.8707C195.435 66.8045 195.593 66.6471 195.678 66.4837C195.676 66.4823 195.675 66.4808 195.673 66.4778C195.537 66.3204 195.311 66.235 195.097 66.3027C194.977 66.341 194.876 66.4131 194.788 66.4925C194.742 66.5352 194.701 66.5823 194.663 66.6294C194.655 66.6397 194.648 66.65 194.639 66.6588C194.788 66.3439 194.954 66.0349 195.132 65.7332C195.297 65.4566 195.472 65.1829 195.66 64.9165H195.643C195.57 65.0136 195.5 65.1093 195.431 65.2079C195.226 65.4992 195.036 65.8009 194.86 66.107C194.874 66.0599 194.888 66.0113 194.899 65.9628C194.951 65.7612 194.977 65.5316 194.892 65.3344C194.802 65.1269 194.564 64.996 194.32 64.9974C194.209 65.1637 194.142 65.3639 194.139 65.5581C194.136 65.7685 194.239 65.9584 194.434 66.0732C194.524 66.1247 194.623 66.1615 194.726 66.1865C194.752 66.1938 194.779 66.1982 194.805 66.2041C194.783 66.2439 194.76 66.2821 194.739 66.3233C194.621 66.5396 194.512 66.7589 194.411 66.9826C194.446 66.7957 194.464 66.6029 194.431 66.416C194.402 66.2556 194.336 66.1011 194.193 65.9937C194.059 65.8936 193.869 65.8436 193.696 65.8583C193.509 66.1997 193.443 66.7148 193.819 66.9738C193.894 67.0253 193.98 67.062 194.069 67.09C194.121 67.1047 194.172 67.1179 194.225 67.1268C194.255 67.1327 194.284 67.1371 194.314 67.14C194.321 67.1415 194.33 67.1415 194.339 67.143C194.218 67.4196 194.111 67.7007 194.018 67.9847C194.024 67.8758 194.022 67.7669 194.012 67.6595C193.993 67.4344 193.928 67.1945 193.741 67.0326C193.578 66.8913 193.325 66.8339 193.104 66.8737C193.067 66.9561 193.047 67.0459 193.031 67.1327C193.008 67.2475 192.995 67.3637 193.006 67.48C193.023 67.6875 193.104 67.8935 193.287 68.0288C193.44 68.1436 193.64 68.1907 193.834 68.2069C193.863 68.2084 193.894 68.2114 193.924 68.2114C193.933 68.2114 193.94 68.2114 193.949 68.2114C193.862 68.5027 193.791 68.7985 193.738 69.0987C193.738 69.1002 193.738 69.1016 193.737 69.1031C193.734 69.0766 193.731 69.0487 193.727 69.0222C193.684 68.7367 193.607 68.4174 193.368 68.2099C193.169 68.0377 192.858 67.9832 192.596 68.0627C192.541 68.2643 192.527 68.4894 192.566 68.694C192.604 68.8941 192.692 69.0987 192.867 69.2355C193.017 69.3533 193.21 69.4048 193.406 69.4166C193.462 69.4195 193.518 69.4195 193.574 69.4166C193.604 69.4151 193.634 69.4136 193.665 69.4106C193.672 69.4106 193.681 69.4092 193.69 69.4077C193.647 69.7212 193.625 70.0361 193.622 70.3525C193.529 70.0581 193.413 69.7506 193.157 69.5387C192.911 69.3341 192.535 69.2929 192.236 69.4312C192.209 69.6373 192.233 69.8609 192.295 70.0596C192.362 70.2803 192.479 70.4923 192.686 70.6321C192.857 70.7468 193.066 70.7851 193.276 70.7748C193.396 70.7689 193.513 70.7483 193.629 70.7203C193.644 71.0397 193.68 71.359 193.738 71.6739C193.604 71.4267 193.444 71.1883 193.214 71.0117C193.038 70.8749 192.813 70.7969 192.579 70.8145C192.415 70.8263 192.245 70.8808 192.114 70.9705C192.127 71.1707 192.18 71.3781 192.265 71.5636C192.365 71.7799 192.508 71.9874 192.726 72.1242C192.903 72.2361 193.116 72.2773 193.329 72.2582C193.441 72.2478 193.551 72.2213 193.656 72.186C193.715 72.1669 193.772 72.1448 193.83 72.1198C193.833 72.1183 193.835 72.1169 193.837 72.1169C193.838 72.1228 193.84 72.1286 193.841 72.1345C193.924 72.4494 194.03 72.7614 194.158 73.0645C194.13 73.0322 194.1 72.9998 194.071 72.9689C193.949 72.8379 193.819 72.7114 193.669 72.6069C193.471 72.4686 193.232 72.3641 192.975 72.37C192.744 72.3759 192.52 72.4701 192.354 72.6128C192.34 72.6246 192.327 72.6363 192.315 72.6481C192.374 72.8571 192.48 73.0601 192.608 73.2397C192.749 73.4383 192.933 73.6208 193.167 73.7312C193.366 73.8239 193.591 73.8518 193.809 73.8062C194.019 73.7606 194.211 73.659 194.381 73.5398C194.54 73.8445 194.726 74.1373 194.938 74.4125C194.738 74.2786 194.534 74.152 194.308 74.0579C194.078 73.9637 193.816 73.9136 193.568 73.9681C193.344 74.0166 193.148 74.1462 193.014 74.3124C192.992 74.3389 192.972 74.3669 192.955 74.3949C193.178 74.776 193.534 75.1409 193.981 75.3116C194.228 75.4073 194.508 75.4264 194.76 75.3337C194.989 75.2498 195.17 75.0894 195.322 74.9172C195.331 74.9069 195.339 74.8966 195.348 74.8863C195.601 75.1483 195.882 75.3852 196.186 75.5971C196.105 75.5721 196.024 75.5471 195.941 75.525C195.529 75.4146 195.044 75.3278 194.649 75.5294C194.412 75.6501 194.227 75.8782 194.181 76.1224C194.508 76.4359 194.955 76.6964 195.429 76.7788C195.688 76.8229 195.96 76.8097 196.197 76.6979C196.403 76.6007 196.558 76.4329 196.667 76.2505C196.718 76.1637 196.761 76.0739 196.799 75.9812C197.149 76.174 197.517 76.3417 197.897 76.4844C198.842 76.8406 199.86 77.0599 200.878 77.154C201.014 77.1673 201.149 77.1761 201.285 77.182C201.221 77.0951 201.168 77.001 201.114 76.9097C201.084 76.8759 201.061 76.8347 201.039 76.7935Z" fill="#FFCC33"/>
</g>
</g>
<path id="Vector_20" d="M202.173 69.7987C202.173 71.204 201.034 72.3445 199.627 72.3445C198.222 72.3445 197.082 71.2055 197.082 69.7987C197.082 68.3934 198.221 67.2529 199.627 67.2529C201.034 67.2529 202.173 68.3934 202.173 69.7987Z" fill="#FFCC33"/>
<g id="Group_7">
<path id="Vector_21" d="M230.392 92.4785H169.69V96.4017H230.392V92.4785Z" fill="#CCCCCC"/>
<path id="Vector_22" d="M238.181 99.4951H161.903V103.418H238.181V99.4951Z" fill="#CCCCCC"/>
<path id="Vector_23" d="M230.392 106.512H169.69V110.435H230.392V106.512Z" fill="#CCCCCC"/>
</g>
<g id="Group_8">
<g id="Group_9">
<path id="Vector_24" d="M244.895 135.356L240.642 133.176L239.179 137.725L233.058 122.956L238.772 120.587L244.895 135.356Z" fill="#17B8C1"/>
<path id="Vector_25" d="M220.748 135.356L224.999 133.176L226.462 137.725L232.583 122.956L226.869 120.587L220.748 135.356Z" fill="#17B8C1"/>
<path id="Vector_26" d="M232.952 99.3594L233.512 98.4161C233.834 97.8746 234.648 97.9761 234.825 98.5824L235.134 99.6346C235.287 100.16 235.948 100.329 236.336 99.9436L237.113 99.1696C237.56 98.7252 238.323 99.0268 238.343 99.6567L238.38 100.753C238.398 101.3 238.995 101.629 239.468 101.35L240.412 100.794C240.955 100.475 241.619 100.956 241.484 101.573L241.247 102.644C241.129 103.178 241.625 103.645 242.152 103.493L243.205 103.19C243.812 103.015 244.334 103.648 244.049 104.21L243.553 105.188C243.305 105.677 243.67 106.252 244.218 106.236L245.314 106.204C245.944 106.186 246.293 106.928 245.878 107.401L245.154 108.226C244.793 108.638 245.004 109.285 245.538 109.406L246.608 109.647C247.223 109.785 247.376 110.592 246.856 110.946L245.95 111.565C245.498 111.874 245.541 112.553 246.028 112.804L247.003 113.304C247.564 113.591 247.514 114.409 246.921 114.625L245.89 114.999C245.374 115.186 245.246 115.856 245.657 116.218L246.478 116.945C246.95 117.362 246.697 118.142 246.069 118.203L244.977 118.309C244.433 118.362 244.141 118.978 244.449 119.432L245.064 120.339C245.417 120.862 244.977 121.555 244.355 121.456L243.27 121.287C242.729 121.203 242.294 121.727 242.48 122.244L242.849 123.277C243.061 123.871 242.464 124.432 241.884 124.183L240.876 123.751C240.373 123.534 239.822 123.934 239.872 124.48L239.974 125.572C240.031 126.201 239.313 126.595 238.814 126.21L237.946 125.538C237.513 125.203 236.879 125.455 236.792 125.995L236.619 127.078C236.519 127.7 235.724 127.905 235.337 127.407L234.663 126.542C234.326 126.109 233.651 126.196 233.431 126.698L232.994 127.705C232.743 128.283 231.923 128.283 231.67 127.705L231.231 126.698C231.013 126.196 230.337 126.111 230 126.542L229.326 127.407C228.939 127.905 228.144 127.702 228.044 127.078L227.87 125.995C227.783 125.455 227.151 125.203 226.717 125.538L225.848 126.21C225.349 126.595 224.63 126.199 224.689 125.572L224.79 124.48C224.84 123.934 224.288 123.534 223.787 123.751L222.779 124.183C222.199 124.432 221.601 123.871 221.813 123.277L222.183 122.244C222.367 121.729 221.932 121.203 221.392 121.287L220.308 121.456C219.685 121.554 219.245 120.862 219.599 120.339L220.214 119.432C220.52 118.978 220.23 118.362 219.685 118.309L218.593 118.203C217.965 118.142 217.712 117.362 218.184 116.945L219.006 116.218C219.415 115.854 219.288 115.185 218.773 114.999L217.741 114.625C217.148 114.411 217.097 113.592 217.659 113.304L218.635 112.804C219.122 112.553 219.164 111.874 218.713 111.565L217.808 110.946C217.287 110.59 217.44 109.785 218.055 109.647L219.125 109.406C219.659 109.285 219.869 108.638 219.507 108.226L218.783 107.401C218.367 106.928 218.717 106.186 219.347 106.204L220.443 106.236C220.991 106.252 221.356 105.677 221.108 105.188L220.612 104.21C220.327 103.648 220.851 103.015 221.456 103.19L222.509 103.493C223.036 103.645 223.532 103.178 223.414 102.644L223.177 101.573C223.042 100.958 223.704 100.475 224.249 100.794L225.193 101.35C225.666 101.629 226.262 101.3 226.281 100.753L226.318 99.6567C226.338 99.0268 227.102 98.7237 227.548 99.1696L228.325 99.9436C228.713 100.331 229.373 100.16 229.527 99.6346L229.836 98.5824C230.013 97.9776 230.827 97.8746 231.149 98.4161L231.71 99.3594C231.991 99.8303 232.672 99.8303 232.952 99.3594Z" fill="#FFC221"/>
<path id="Vector_27" d="M243.491 114.519C244.486 108.399 240.333 102.631 234.213 101.635C228.093 100.639 222.325 104.793 221.329 110.913C220.334 117.032 224.487 122.8 230.607 123.796C236.727 124.792 242.495 120.638 243.491 114.519Z" fill="#F7F4EA"/>
<path id="Vector_28" d="M241.323 112.683C241.323 117.611 237.328 121.605 232.401 121.605C227.473 121.605 223.479 117.61 223.479 112.683C223.479 107.756 227.474 103.761 232.401 103.761C237.328 103.759 241.323 107.755 241.323 112.683Z" fill="#FFC221"/>
</g>
<path id="Vector_29" d="M232.399 106.604L233.765 110.804H238.181L234.608 113.4L235.972 117.601L232.399 115.005L228.826 117.601L230.192 113.4L226.619 110.804H231.035L232.399 106.604Z" fill="#F7F4EA"/>
</g>
<path id="Vector_30" d="M204.57 120.587H167.315V121.604H204.57V120.587Z" fill="#CCCCCC"/>
<g id="Group_10">
<path id="Vector_31" d="M175.043 121.925C174.846 121.925 174.639 121.883 174.445 121.767C174.179 121.605 174.02 121.355 173.89 121.108C173.518 120.407 173.243 119.661 173.071 118.889C173.021 118.664 172.974 118.399 173.052 118.121C173.177 117.679 173.553 117.426 173.824 117.274C174.953 116.647 176.355 116.521 177.575 116.94C178.064 117.108 178.51 117.352 178.941 117.601C179.22 117.008 179.416 116.377 179.51 115.731C179.535 115.561 179.555 115.389 179.574 115.216C179.662 114.445 179.761 113.569 180.331 112.914C180.48 112.745 180.735 112.727 180.905 112.876C181.075 113.023 181.092 113.281 180.945 113.451C180.54 113.913 180.464 114.592 180.383 115.308C180.362 115.491 180.327 115.67 180.315 115.85C180.27 116.508 180.148 117.089 179.647 118.007C179.912 118.154 180.177 118.285 180.452 118.39C181.565 118.806 182.855 118.722 183.904 118.157C184.093 118.057 184.271 117.942 184.45 117.828C184.724 117.654 185.007 117.475 185.32 117.333C186.015 117.024 186.714 117.012 187.236 117.302C187.399 117.394 187.542 117.513 187.685 117.633C187.779 117.714 187.872 117.795 187.978 117.86C188.329 118.068 188.856 118.032 189.318 117.769C189.766 117.513 190.129 117.098 190.478 116.683C190.506 116.643 190.538 116.606 190.575 116.571L191.165 117.132C191.156 117.142 191.148 117.154 191.139 117.164C191.186 117.146 191.271 117.242 191.343 117.248C191.489 117.263 191.661 117.221 191.844 117.176C192.028 117.129 192.211 117.086 192.4 117.076C192.866 117.058 193.29 117.22 193.667 117.373C194.023 117.517 194.363 117.645 194.657 117.597C194.823 117.566 194.997 117.472 195.181 117.372C195.422 117.241 195.698 117.092 196.023 117.051C196.488 116.993 196.904 117.163 197.275 117.313C197.621 117.451 197.92 117.57 198.168 117.497C198.385 117.435 198.611 117.552 198.676 117.769C198.741 117.985 198.62 118.212 198.404 118.276C197.873 118.438 197.394 118.238 196.968 118.068C196.663 117.945 196.37 117.822 196.124 117.86C195.949 117.882 195.764 117.982 195.567 118.088C195.346 118.207 195.096 118.344 194.803 118.397C194.272 118.502 193.788 118.3 193.359 118.129C193.034 118 192.728 117.876 192.442 117.891C192.306 117.898 192.173 117.934 192.041 117.967C191.808 118.025 191.543 118.094 191.258 118.06C191.025 118.037 190.797 117.917 190.628 117.744C190.363 118.019 190.067 118.279 189.72 118.48C188.995 118.893 188.165 118.927 187.555 118.563C187.411 118.475 187.282 118.368 187.152 118.259C187.051 118.172 186.952 118.085 186.836 118.02C186.413 117.788 185.863 117.987 185.647 118.082C185.388 118.199 185.144 118.355 184.883 118.521C184.686 118.646 184.49 118.771 184.286 118.881C183.032 119.555 181.491 119.658 180.161 119.158C179.843 119.039 179.541 118.887 179.25 118.728C178.454 120.016 177.288 121.081 175.918 121.707C175.776 121.766 175.427 121.925 175.043 121.925ZM176.086 117.51C175.437 117.51 174.787 117.672 174.22 117.985C173.992 118.113 173.867 118.229 173.835 118.341C173.807 118.435 173.836 118.581 173.864 118.711C174.021 119.413 174.27 120.091 174.609 120.725C174.679 120.859 174.763 121.008 174.865 121.067C175 121.149 175.243 121.111 175.586 120.956C176.803 120.4 177.839 119.457 178.549 118.315C178.136 118.075 177.737 117.856 177.31 117.71C176.919 117.576 176.503 117.51 176.086 117.51Z" fill="#1EB1FA"/>
</g>
</g>
<g id="brain">
<g id="Group_11">
<g id="Group_12">
<path id="Vector_32" d="M97.3926 114.941C97.3926 112.819 96.5111 110.898 95.0822 109.476C96.0019 108.203 96.5435 106.662 96.5435 105C96.5435 102.167 94.9763 99.6902 92.6262 98.2936C92.6291 98.2186 92.638 98.1465 92.638 98.07C92.638 94.8325 90.5925 92.0527 87.6685 90.8298C86.4603 87.8838 83.4598 85.7942 79.9399 85.7942C79.7765 85.7942 79.6176 85.8089 79.4572 85.8177C78.8524 82.7937 76.0667 80.5054 72.7145 80.5054C68.9517 80.5054 65.9012 83.3882 65.8526 86.9611H65.8481V132.965H65.8585C65.9659 137.874 70.4762 141.827 76.0358 141.827C79.2276 141.827 82.0751 140.522 83.9425 138.483C84.5076 138.6 85.0932 138.663 85.6951 138.663C90.2805 138.663 93.9962 135.122 93.9962 130.755C93.9962 130.263 93.9432 129.785 93.8535 129.319C95.9916 127.888 97.3926 125.525 97.3926 122.847C97.3926 121.405 96.9806 120.057 96.2727 118.893C96.9806 117.731 97.3926 116.384 97.3926 114.941Z" fill="#3BBCA7"/>
<g id="Group_13">
<path id="Vector_33" d="M71.4401 132.52C71.0619 131.412 71.1679 130.191 71.7506 128.875C72.0464 129.086 72.3775 129.231 72.7542 129.276C72.8484 129.284 72.9411 129.292 73.0353 129.292C75.094 129.292 77.528 126.933 77.809 126.653L76.9967 125.832C76.2992 126.522 74.1919 128.262 72.8808 128.128C72.6556 128.103 72.4776 127.995 72.3157 127.848C72.3819 127.738 72.4231 127.633 72.4967 127.521C76.8716 120.867 76.6862 119.881 73.5459 116.755L73.1913 116.404L72.3745 117.221L72.7307 117.575C75.3692 120.2 75.7076 120.536 71.5313 126.886C70.2584 128.824 69.8537 130.647 70.2319 132.331C69.9862 132.267 69.736 132.233 69.477 132.261C68.2542 132.336 67.4831 133.346 67.4521 133.391L68.3763 134.082C68.3807 134.077 68.8634 133.455 69.5462 133.414C69.9921 133.389 70.4615 133.625 70.9368 134.108C72.4805 136.541 75.5266 137.609 75.6738 137.66L76.0476 136.569C76.0152 136.554 72.3819 135.278 71.4401 132.52Z" fill="white"/>
<path id="Vector_34" d="M82.7129 106.964C82.061 109.788 82.9483 111.529 84.1491 112.726C83.1323 113.667 82.0301 114.114 81.2884 113.799C80.5423 113.483 80.1877 112.415 80.2921 110.787C80.3775 109.401 80.0008 108.232 79.1693 107.317C77.5124 105.488 74.6428 105.369 74.5222 105.364L74.4824 106.519C74.5074 106.519 76.9944 106.63 78.3203 108.098C78.931 108.772 79.2061 109.654 79.1384 110.716C78.9574 113.623 80.1259 114.563 80.8381 114.866C81.1427 114.994 81.4724 115.056 81.8167 115.056C82.8394 115.056 83.9931 114.482 85.0321 113.487C85.4618 113.812 85.8944 114.099 86.2844 114.351C86.7111 114.625 87.1099 114.879 87.4278 115.146C88.2489 115.829 89.1995 116.869 89.0597 117.933C88.9317 118.925 87.8442 119.922 85.9179 120.817C85.653 120.941 85.4382 121.081 85.2116 121.216C84.3831 119.635 83.3942 118.698 82.2508 118.508C80.6071 118.254 79.3754 119.543 79.3239 119.597L80.1671 120.386C80.1759 120.377 81.0235 119.488 82.061 119.646C82.8556 119.778 83.6135 120.576 84.2772 121.908C83.6679 122.479 83.2883 123.122 83.2073 123.85C82.9454 126.209 85.6928 128.347 85.8091 128.437L86.5125 127.522C85.8591 127.017 84.1948 125.397 84.3552 123.977C84.4449 123.164 85.1351 122.452 86.4051 121.863C88.739 120.779 90.0177 119.507 90.2046 118.082C90.3694 116.81 89.6837 115.524 88.1665 114.257C87.8148 113.964 87.3777 113.682 86.9083 113.38C85.0747 112.203 82.9983 110.869 83.8371 107.23L82.7129 106.964Z" fill="white"/>
<path id="Vector_35" d="M89.381 106.598C88.8306 105.697 89.1014 104.13 90.1639 102.065C91.0792 100.282 91.2175 98.7191 90.5701 97.4226C89.4811 95.2373 86.5792 94.712 86.457 94.6914L86.2584 95.8275C86.2834 95.8319 88.7144 96.2807 89.5399 97.9406C89.8946 98.6558 89.9049 99.5196 89.5723 100.516C88.579 99.7109 87.6078 99.3813 86.6689 99.5623C84.8001 99.9272 83.9274 102.176 83.8906 102.271L84.9678 102.682C84.9752 102.664 85.6624 100.937 86.8897 100.697C87.5489 100.561 88.2862 100.898 89.094 101.633C87.8668 104.062 87.6255 105.94 88.3951 107.201C89.2383 108.581 90.9482 108.73 91.6443 108.73V107.575C91.1439 107.575 89.9196 107.481 89.381 106.598Z" fill="white"/>
<path id="Vector_36" d="M92.6894 114.038L91.9433 114.918C91.961 114.931 93.6194 116.37 93.6239 118.209C93.6268 119.281 93.0603 120.315 91.9419 121.281L92.6953 122.156C94.0845 120.957 94.7864 119.627 94.779 118.196C94.7658 115.821 92.7748 114.107 92.6894 114.038Z" fill="white"/>
<path id="Vector_37" d="M69.0726 95.2413L69.7672 94.3172C69.2639 93.9405 68.4251 93.3106 68.5016 92.6602C68.5516 92.2276 69.0519 91.3211 71.8229 90.1144C73.8463 89.2329 74.897 88.1793 74.9485 86.9814C75.0265 85.2156 72.9163 84.0118 72.6779 83.8809L72.1231 84.8962C72.569 85.139 73.8345 86.0352 73.7963 86.9329C73.7639 87.6407 72.9236 88.3765 71.3623 89.0549C68.8077 90.1659 67.498 91.3034 67.3523 92.5278C67.2007 93.836 68.4177 94.7498 69.0726 95.2413Z" fill="white"/>
<path id="Vector_38" d="M80.0046 95.9446C79.7986 96.4831 78.8097 97.3676 74.5216 97.1821C71.3106 97.0585 69.4521 97.5383 68.7075 98.7096C67.7936 100.153 68.8414 102.157 69.8538 104.094C71.2429 106.753 71.9684 108.431 70.3659 109.278L70.9074 110.298C73.6401 108.853 72.1097 105.919 70.878 103.56C70.0171 101.912 69.1253 100.209 69.686 99.3291C70.0039 98.8259 71.0325 98.2711 74.0257 98.33C73.6283 99.7662 73.7093 100.755 74.3406 101.286C74.6673 101.562 75.0808 101.666 75.5105 101.666C76.5832 101.666 77.7752 101.032 78.0739 100.861L77.5059 99.8559C76.7524 100.284 75.4634 100.726 75.0837 100.403C74.8718 100.227 74.8291 99.5705 75.2147 98.3506C78.6258 98.4035 80.555 97.7457 81.0847 96.3551C81.3378 95.6885 81.1937 94.9586 80.8787 94.2434C81.4571 94.136 81.9647 93.9285 82.3223 93.5165C83.3642 92.323 82.9492 90.3173 82.9316 90.2334L81.8044 90.4733C81.8058 90.4895 82.1089 92.0081 81.4526 92.7601C81.198 93.05 80.7816 93.1677 80.2695 93.1692C79.3351 91.8124 78.0166 90.6867 77.7708 90.4851L77.0394 91.3783C78.4256 92.5099 80.4579 94.7541 80.0046 95.9446Z" fill="white"/>
<path id="Vector_39" d="M71.0993 120.658L71.1964 119.507C71.1169 119.495 69.2053 119.35 68.3724 120.637C67.7367 121.62 67.9516 123.082 69.0082 124.983L70.0177 124.419C69.2083 122.967 68.967 121.848 69.3393 121.269C69.7204 120.683 70.7373 120.62 71.0993 120.658Z" fill="white"/>
<path id="Vector_40" d="M73.5724 92.9752C72.5673 93.6316 72.6615 95.137 72.6747 95.3077L73.8255 95.215C73.8005 94.8942 73.8623 94.1643 74.2037 93.9421C74.4818 93.767 75.0601 93.8832 75.7842 94.2805L76.3389 93.2651C75.1793 92.6368 74.2523 92.5397 73.5724 92.9752Z" fill="white"/>
<path id="Vector_41" d="M73.1768 114.208C75.3665 114.475 76.6924 114.114 77.2265 113.112C77.9329 111.791 76.7659 109.953 76.3024 109.411L75.4268 110.165C75.8006 110.6 76.5584 111.913 76.2067 112.569C75.9389 113.072 74.8911 113.255 73.3136 113.064C71.1328 112.802 69.6171 113.167 68.8195 114.148C67.8482 115.342 68.3633 116.929 68.3868 116.994L69.4831 116.629C69.4787 116.617 69.1521 115.571 69.7157 114.877C70.2381 114.229 71.4374 113.999 73.1768 114.208Z" fill="white"/>
<path id="Vector_42" d="M85.5272 133.076C84.9769 133.187 84.4427 133.172 83.9453 133.091C84.4073 132.396 84.5839 131.664 84.4544 130.903C84.0645 128.625 81.0404 127.031 80.9124 126.965L80.3797 127.989C81.1155 128.372 83.0741 129.678 83.3155 131.098C83.4111 131.661 83.1992 132.202 82.7371 132.748C81.7895 132.37 81.1493 131.867 81.1375 131.856L80.8506 131.622L80.5195 131.784C77.6602 133.169 76.3859 131.5 76.3314 131.43L75.3926 132.102C75.4102 132.129 77.1629 134.505 80.7005 132.97C81.323 133.403 82.8505 134.312 84.6914 134.312C85.0313 134.312 85.3815 134.283 85.7406 134.211C87.6433 133.834 89.2503 132.443 90.5173 130.073L89.4975 129.527C88.4041 131.575 87.0694 132.767 85.5272 133.076Z" fill="white"/>
</g>
</g>
<g id="Group_14">
<path id="Vector_43" d="M14.4653 114.941C14.4653 112.819 15.3468 110.898 16.7757 109.476C15.856 108.203 15.3144 106.662 15.3144 105C15.3144 102.167 16.8817 99.6902 19.2317 98.2936C19.2303 98.2186 19.22 98.1465 19.22 98.07C19.22 94.8325 21.2654 92.0527 24.1894 90.8298C25.3976 87.8838 28.3981 85.7942 31.9181 85.7942C32.0814 85.7942 32.2404 85.8089 32.4008 85.8177C33.0056 82.7937 35.7912 80.5054 39.1434 80.5054C42.9062 80.5054 45.9568 83.3882 46.0068 86.9611H46.0112V132.965H46.0009C45.895 137.874 41.3832 141.827 35.8236 141.827C32.6318 141.827 29.7843 140.522 27.9169 138.483C27.3518 138.6 26.7661 138.663 26.1643 138.663C21.5789 138.663 17.8632 135.122 17.8632 130.755C17.8632 130.263 17.9162 129.785 18.0074 129.319C15.8692 127.888 14.4683 125.525 14.4683 122.847C14.4683 121.405 14.8803 120.057 15.5881 118.893C14.8774 117.731 14.4653 116.384 14.4653 114.941Z" fill="#0071DC"/>
<g id="Group_15">
<path id="Vector_44" d="M40.4192 132.52C40.7974 131.412 40.6915 130.191 40.1087 128.875C39.8129 129.086 39.4819 129.231 39.1052 129.276C39.011 129.284 38.9182 129.292 38.8241 129.292C36.7654 129.292 34.3314 126.933 34.0503 126.653L34.8626 125.832C35.5601 126.522 37.6674 128.262 38.9786 128.128C39.2037 128.103 39.3818 127.995 39.5422 127.848C39.4745 127.738 39.4348 127.633 39.3612 127.521C34.9862 120.867 35.1717 119.881 38.312 116.755L38.6666 116.404L39.4833 117.221L39.1272 117.575C36.4887 120.2 36.1502 120.536 40.3265 126.886C41.5994 128.824 42.0041 130.647 41.6259 132.331C41.8717 132.267 42.1218 132.233 42.3808 132.261C43.6037 132.336 44.3748 133.346 44.4057 133.391L43.4816 134.082C43.4772 134.077 42.9945 133.455 42.3117 133.414C41.8643 133.389 41.3963 133.625 40.921 134.108C39.3774 136.541 36.3312 137.609 36.1841 137.66L35.8103 136.569C35.8441 136.554 39.4759 135.278 40.4192 132.52Z" fill="white"/>
<path id="Vector_45" d="M29.1456 106.964C29.7975 109.788 28.9101 111.529 27.7093 112.726C28.7262 113.667 29.8284 114.114 30.5701 113.799C31.3161 113.483 31.6708 112.415 31.5663 110.787C31.481 109.401 31.8577 108.232 32.6891 107.317C34.3461 105.488 37.2156 105.369 37.3363 105.364L37.3775 106.519C37.3525 106.519 34.8656 106.63 33.5397 108.098C32.929 108.772 32.6538 109.654 32.7215 110.716C32.9025 113.623 31.7341 114.563 31.0204 114.866C30.7157 114.994 30.3876 115.056 30.0417 115.056C29.019 115.056 27.8653 114.482 26.8264 113.487C26.3967 113.812 25.9641 114.099 25.5741 114.351C25.1474 114.625 24.7486 114.879 24.4307 115.146C23.6096 115.829 22.6589 116.869 22.7987 117.933C22.9267 118.925 24.0142 119.922 25.9405 120.817C26.2054 120.941 26.4203 121.081 26.6469 121.216C27.4754 119.635 28.4643 118.698 29.6077 118.508C31.2514 118.254 32.4831 119.543 32.5346 119.597L31.6914 120.386C31.6825 120.377 30.8349 119.488 29.7975 119.646C29.0028 119.778 28.245 120.576 27.5813 121.908C28.1905 122.479 28.5702 123.122 28.6512 123.85C28.9131 126.209 26.1657 128.347 26.0479 128.437L25.3445 127.522C25.9979 127.017 27.6623 125.397 27.5019 123.977C27.4121 123.164 26.7219 122.452 25.452 121.863C23.1181 120.779 21.8393 119.507 21.6524 118.082C21.4876 116.81 22.1733 115.524 23.6905 114.257C24.0422 113.964 24.4792 113.682 24.9487 113.38C26.7822 112.203 28.8586 110.869 28.0198 107.23L29.1456 106.964Z" fill="white"/>
<path id="Vector_46" d="M22.4776 106.598C23.028 105.697 22.7572 104.13 21.6947 102.065C20.7794 100.282 20.6411 98.7191 21.2886 97.4226C22.3775 95.2373 25.2795 94.712 25.4016 94.6914L25.6003 95.8275C25.5753 95.8319 23.1442 96.2807 22.3187 97.9406C21.964 98.6558 21.9537 99.5196 22.2863 100.516C23.2796 99.7109 24.2508 99.3813 25.1897 99.5623C27.0586 99.9272 27.9312 102.176 27.968 102.271L26.8908 102.682C26.8835 102.664 26.1962 100.937 24.969 100.697C24.3097 100.561 23.5725 100.898 22.7646 101.633C23.9919 104.062 24.2332 105.94 23.4635 107.201C22.6203 108.581 20.9104 108.73 20.2144 108.73V107.575C20.7132 107.575 21.939 107.481 22.4776 106.598Z" fill="white"/>
<path id="Vector_47" d="M19.1697 114.038L19.9158 114.918C19.8982 114.931 18.2397 116.37 18.2353 118.209C18.2324 119.281 18.7989 120.315 19.9173 121.281L19.1638 122.156C17.7747 120.957 17.0728 119.627 17.0801 118.196C17.0919 115.821 19.0844 114.107 19.1697 114.038Z" fill="white"/>
<path id="Vector_48" d="M42.7868 95.2413L42.0923 94.3172C42.5956 93.9405 43.4343 93.3106 43.3578 92.6602C43.3078 92.2276 42.8075 91.3211 40.0365 90.1144C38.0131 89.2329 36.9624 88.1793 36.9109 86.9814C36.8314 85.2156 38.9431 84.0118 39.1815 83.8809L39.7363 84.8962C39.2904 85.139 38.0249 86.0352 38.0631 86.9329C38.0955 87.6407 38.9358 88.3765 40.4971 89.0549C43.0517 90.1659 44.3629 91.3034 44.5071 92.5278C44.6587 93.836 43.4417 94.7498 42.7868 95.2413Z" fill="white"/>
<path id="Vector_49" d="M31.8548 95.9446C32.0608 96.4831 33.0496 97.3676 37.3363 97.1821C40.5473 97.0585 42.4059 97.5383 43.1505 98.7096C44.0643 100.153 43.018 102.157 42.0041 104.094C40.6149 106.753 39.8895 108.431 41.492 109.278L40.9505 110.298C38.2178 108.853 39.7482 105.919 40.9799 103.56C41.8408 101.912 42.7326 100.209 42.1734 99.3291C41.8555 98.8259 40.8269 98.2711 37.8337 98.33C38.231 99.7662 38.1486 100.755 37.5188 101.286C37.1921 101.562 36.7786 101.666 36.3489 101.666C35.2761 101.666 34.0842 101.032 33.7854 100.861L34.3535 99.8559C35.1069 100.284 36.396 100.726 36.7757 100.403C36.9876 100.227 37.0287 99.5705 36.6447 98.3506C33.2336 98.4035 31.3059 97.7457 30.7746 96.3551C30.5215 95.6885 30.6657 94.9586 30.9806 94.2434C30.4023 94.136 29.8946 93.9285 29.5356 93.5165C28.4937 92.323 28.9087 90.3173 28.9263 90.2334L30.0536 90.4733C30.0521 90.4895 29.7489 92.0081 30.4053 92.7601C30.6598 93.05 31.0763 93.1677 31.5884 93.1692C32.5229 91.8124 33.8414 90.6867 34.0871 90.4851L34.8185 91.3783C33.4323 92.5099 31.4015 94.7541 31.8548 95.9446Z" fill="white"/>
<path id="Vector_50" d="M40.7588 120.658L40.6616 119.507C40.7411 119.495 42.6527 119.35 43.4856 120.637C44.1213 121.62 43.9079 123.082 42.8498 124.983L41.8403 124.419C42.6497 122.967 42.891 121.848 42.5187 121.269C42.1391 120.683 41.1222 120.62 40.7588 120.658Z" fill="white"/>
<path id="Vector_51" d="M38.2851 92.9752C39.2916 93.6316 39.196 95.137 39.1827 95.3077L38.032 95.215C38.057 94.8942 37.9952 94.1643 37.6538 93.9421C37.3757 93.767 36.7973 93.8832 36.0733 94.2805L35.5186 93.2651C36.6796 92.6368 37.6067 92.5397 38.2851 92.9752Z" fill="white"/>
<path id="Vector_52" d="M38.6825 114.208C36.4928 114.475 35.167 114.114 34.6328 113.112C33.9264 111.791 35.0934 109.953 35.5569 109.411L36.4325 110.165C36.0587 110.6 35.3009 111.913 35.6526 112.569C35.9204 113.072 36.9667 113.255 38.5457 113.064C40.7265 112.802 42.2422 113.167 43.0398 114.148C44.0125 115.342 43.496 116.929 43.4724 116.994L42.3761 116.629C42.3806 116.617 42.7072 115.571 42.1436 114.877C41.6212 114.229 40.4219 113.999 38.6825 114.208Z" fill="white"/>
<path id="Vector_53" d="M26.3318 133.076C26.8822 133.187 27.4164 133.172 27.9138 133.091C27.4517 132.396 27.2751 131.664 27.4061 130.903C27.796 128.625 30.8201 127.031 30.9481 126.965L31.4809 127.989C30.7451 128.372 28.7864 129.678 28.545 131.098C28.4494 131.661 28.6613 132.202 29.1249 132.748C30.0725 132.37 30.7127 131.867 30.7245 131.856L31.0114 131.622L31.3425 131.784C34.2017 133.169 35.4761 131.5 35.5306 131.43L36.4679 132.102C36.4503 132.129 34.6977 134.505 31.16 132.97C30.5376 133.403 29.0115 134.312 27.1691 134.312C26.8292 134.312 26.479 134.283 26.1199 134.211C24.2172 133.834 22.6117 132.443 21.3447 130.073L22.3645 129.527C23.4535 131.575 24.7896 132.767 26.3318 133.076Z" fill="white"/>
</g>
</g>
<path id="Vector_54" d="M84.3351 78.8147C84.0687 79.2547 83.4492 79.3665 82.9503 79.0663C82.4515 78.7647 82.2646 78.1643 82.5309 77.7228L86.0833 71.8527C86.3496 71.4127 86.9692 71.3009 87.468 71.6026C87.9669 71.9042 88.1538 72.5046 87.8874 72.9446L84.3351 78.8147Z" fill="#FFC221"/>
<path id="Vector_55" d="M41.7157 73.4462C41.7157 73.9598 41.2433 74.3777 40.6606 74.3777C40.0778 74.3777 39.6069 73.9598 39.6069 73.4462L39.6099 66.5858C39.6099 66.0722 40.0823 65.6543 40.665 65.6558C41.2478 65.6558 41.7186 66.0737 41.7186 66.5873L41.7157 73.4462Z" fill="#FFC221"/>
<path id="Vector_56" d="M41.7157 159.426C41.7157 159.941 41.2433 160.358 40.6606 160.356C40.0778 160.356 39.6069 159.938 39.6069 159.425L39.6099 152.564C39.6099 152.051 40.0823 151.633 40.665 151.634C41.2478 151.634 41.7186 152.052 41.7186 152.566L41.7157 159.426Z" fill="#FFC221"/>
<path id="Vector_57" d="M70.6586 73.4462C70.6586 73.9598 70.1862 74.3777 69.6034 74.3777C69.0207 74.3777 68.5498 73.9598 68.5498 73.4462L68.5528 66.5858C68.5528 66.0722 69.0252 65.6543 69.6079 65.6558C70.1906 65.6558 70.6615 66.0737 70.6615 66.5873L70.6586 73.4462Z" fill="#FFC221"/>
<path id="Vector_58" d="M70.6586 159.426C70.6586 159.941 70.1862 160.358 69.6034 160.356C69.0207 160.356 68.5498 159.938 68.5498 159.425L68.5528 152.564C68.5528 152.051 69.0252 151.633 69.6079 151.634C70.1906 151.634 70.6615 152.052 70.6615 152.566L70.6586 159.426Z" fill="#FFC221"/>
<path id="Vector_59" d="M96.9436 90.9329C96.5301 91.239 95.915 91.1095 95.5677 90.6415C95.2204 90.1736 95.2749 89.5467 95.6869 89.2406L101.196 85.1511C101.61 84.8451 102.225 84.9746 102.572 85.4425C102.92 85.9105 102.867 86.5374 102.453 86.8449L96.9436 90.9329Z" fill="#FFC221"/>
<path id="Vector_60" d="M104.036 106.331C103.539 106.462 103.015 106.112 102.866 105.55C102.718 104.986 103 104.424 103.498 104.293L110.131 102.542C110.629 102.411 111.153 102.761 111.301 103.325C111.45 103.889 111.167 104.451 110.67 104.582L104.036 106.331Z" fill="#FFC221"/>
<path id="Vector_61" d="M84.3351 146.131C84.0687 145.691 83.4492 145.579 82.9503 145.879C82.4515 146.181 82.2646 146.783 82.5309 147.223L86.0833 153.091C86.3496 153.531 86.9692 153.643 87.468 153.343C87.9669 153.041 88.1538 152.441 87.8874 152L84.3351 146.131Z" fill="#FFC221"/>
<path id="Vector_62" d="M96.9436 134.013C96.5301 133.707 95.915 133.837 95.5677 134.304C95.2204 134.772 95.2749 135.399 95.6869 135.706L101.196 139.794C101.61 140.1 102.225 139.971 102.572 139.503C102.92 139.035 102.867 138.408 102.453 138.101L96.9436 134.013Z" fill="#FFC221"/>
<path id="Vector_63" d="M104.036 118.614C103.539 118.483 103.015 118.834 102.866 119.396C102.718 119.959 103 120.522 103.498 120.652L110.131 122.402C110.629 122.533 111.153 122.183 111.301 121.621C111.45 121.057 111.167 120.495 110.67 120.364L104.036 118.614Z" fill="#FFC221"/>
<path id="Vector_64" d="M27.0076 78.8147C27.2739 79.2547 27.8934 79.3665 28.3923 79.0663C28.8912 78.7647 29.0781 78.1643 28.8117 77.7228L25.2593 71.8527C24.993 71.4127 24.3735 71.3009 23.8746 71.6026C23.3758 71.9042 23.1889 72.5046 23.4552 72.9446L27.0076 78.8147Z" fill="#FFC221"/>
<path id="Vector_65" d="M14.3981 90.9329C14.8116 91.239 15.4267 91.1095 15.774 90.6415C16.1213 90.1736 16.0669 89.5467 15.6548 89.2406L10.1453 85.1511C9.7318 84.8451 9.11667 84.9746 8.76938 85.4425C8.42209 85.9105 8.47508 86.5374 8.88859 86.8449L14.3981 90.9329Z" fill="#FFC221"/>
<path id="Vector_66" d="M7.30471 106.331C7.8021 106.462 8.32597 106.112 8.4746 105.55C8.62323 104.986 8.34069 104.424 7.8433 104.293L1.2095 102.542C0.712113 102.411 0.188239 102.761 0.0396113 103.325C-0.109017 103.889 0.173525 104.451 0.670913 104.582L7.30471 106.331Z" fill="#FFC221"/>
<path id="Vector_67" d="M27.0076 146.131C27.2739 145.691 27.8934 145.579 28.3923 145.879C28.8912 146.181 29.0781 146.783 28.8117 147.223L25.2593 153.091C24.993 153.531 24.3735 153.643 23.8746 153.343C23.3758 153.041 23.1889 152.441 23.4552 152L27.0076 146.131Z" fill="#FFC221"/>
<path id="Vector_68" d="M14.3981 134.013C14.8116 133.707 15.4267 133.837 15.774 134.304C16.1213 134.772 16.0669 135.399 15.6548 135.706L10.1453 139.794C9.7318 140.1 9.11667 139.971 8.76938 139.503C8.42209 139.035 8.47508 138.408 8.88859 138.101L14.3981 134.013Z" fill="#FFC221"/>
<path id="Vector_69" d="M7.30471 118.614C7.8021 118.483 8.32597 118.834 8.4746 119.396C8.62323 119.959 8.34069 120.522 7.8433 120.652L1.2095 122.402C0.712113 122.533 0.188239 122.183 0.0396113 121.621C-0.109017 121.057 0.173525 120.495 0.670913 120.364L7.30471 118.614Z" fill="#FFC221"/>
</g>
<g id="Group_16">
<g id="Group_17">
<g id="Group_18">
<path id="Vector_70" d="M51.677 93.1979H60.062L59.2835 95.0344C60.5358 94.1029 62.5563 93.2244 64.1853 92.7079C62.5563 92.1928 60.5358 91.3143 59.2835 90.3828L60.062 92.2193H51.677L52.4555 90.3828C51.2032 91.3143 49.1827 92.1928 47.5537 92.7079C49.1827 93.2229 51.2032 94.1029 52.4555 95.0344L51.677 93.1979Z" fill="#3BBCA7"/>
<path id="Vector_71" d="M60.062 102.026H51.677L52.4555 100.189C51.2032 101.121 49.1827 101.999 47.5537 102.516C49.1827 103.031 51.2032 103.911 52.4555 104.843L51.677 103.006H60.062L59.2835 104.843C60.5358 103.911 62.5563 103.033 64.1853 102.516C62.5563 102.001 60.5358 101.121 59.2835 100.189L60.062 102.026Z" fill="#3BBCA7"/>
<path id="Vector_72" d="M60.062 111.831H51.677L52.4555 109.995C51.2032 110.926 49.1827 111.805 47.5537 112.32C49.1827 112.835 51.2032 113.715 52.4555 114.646L51.677 112.81H60.062L59.2835 114.646C60.5358 113.715 62.5563 112.836 64.1853 112.32C62.5563 111.805 60.5358 110.925 59.2835 109.995L60.062 111.831Z" fill="#3BBCA7"/>
<path id="Vector_73" d="M60.062 121.638H51.677L52.4555 119.801C51.2032 120.733 49.1827 121.611 47.5537 122.126C49.1827 122.641 51.2032 123.521 52.4555 124.453L51.677 122.616H60.062L59.2835 124.453C60.5358 123.521 62.5563 122.643 64.1853 122.126C62.5563 121.611 60.5358 120.731 59.2835 119.801L60.062 121.638Z" fill="#3BBCA7"/>
<path id="Vector_74" d="M60.062 131.443H51.677L52.4555 129.607C51.2032 130.538 49.1827 131.417 47.5537 131.932C49.1827 132.447 51.2032 133.327 52.4555 134.259L51.677 132.422H60.062L59.2835 134.259C60.5358 133.327 62.5563 132.449 64.1853 131.932C62.5563 131.417 60.5358 130.538 59.2835 129.607L60.062 131.443Z" fill="#3BBCA7"/>
</g>
</g>
<g id="Group_19">
<path id="Vector_75" d="M55.8695 93.1979V92.2193H51.677L52.4555 90.3828C51.2032 91.3143 49.1827 92.1928 47.5537 92.7079C49.1827 93.2229 51.2032 94.1029 52.4555 95.0344L51.677 93.1979H55.8695Z" fill="#0071DC"/>
<path id="Vector_76" d="M55.8695 103.005V102.026H51.677L52.4555 100.189C51.2032 101.121 49.1827 101.999 47.5537 102.516C49.1827 103.031 51.2032 103.911 52.4555 104.843L51.677 103.006H55.8695V103.005Z" fill="#0071DC"/>
<path id="Vector_77" d="M55.8695 112.81V111.831H51.677L52.4555 109.995C51.2032 110.926 49.1827 111.805 47.5537 112.32C49.1827 112.835 51.2032 113.715 52.4555 114.646L51.677 112.81H55.8695Z" fill="#0071DC"/>
<path id="Vector_78" d="M55.8695 122.616V121.638H51.677L52.4555 119.801C51.2032 120.733 49.1827 121.611 47.5537 122.126C49.1827 122.641 51.2032 123.521 52.4555 124.453L51.677 122.616H55.8695Z" fill="#0071DC"/>
<path id="Vector_79" d="M55.8695 132.421V131.442H51.677L52.4555 129.605C51.2032 130.537 49.1827 131.416 47.5537 131.931C49.1827 132.446 51.2032 133.326 52.4555 134.257L51.677 132.421H55.8695Z" fill="#0071DC"/>
</g>
</g>
</g>
<g id="man">
<path id="Vector_80" d="M184.306 110.126C184.306 110.126 209.87 174.462 201.085 189.048C198.704 193 187.771 197.489 184.553 193.561C176.789 184.089 164.053 149.75 164.053 149.75C164.053 149.75 166.815 117.459 184.306 110.126Z" fill="#081F51"/>
<path id="Vector_81" d="M161.244 103.042C157.735 102.406 154.555 102.046 151.717 101.872C148.494 101.673 145.955 99.0583 145.955 95.8297V81.8999H125.036V95.8341C125.036 99.0142 122.584 101.675 119.41 101.866C116.911 102.016 114.145 102.309 111.121 102.808L110.797 131.208H161.583L161.244 103.042Z" fill="#FBA489"/>
<path id="Vector_82" d="M86.6884 110.126C86.6884 110.126 61.1244 174.462 69.9096 189.048C72.2906 193 83.2229 197.489 86.4412 193.561C94.2051 184.089 106.942 149.75 106.942 149.75C106.942 149.75 104.181 117.459 86.6884 110.126Z" fill="#081F51"/>
<path id="Vector_83" d="M125.036 97.7657C128.254 99.3977 131.773 100.362 135.496 100.362C139.219 100.362 142.738 99.3991 145.954 97.7657V81.1694H125.035V97.7657H125.036Z" fill="#F1856A"/>
<g id="Group_20">
<path id="Vector_84" d="M117.744 60.8053C117.744 65.8056 113.968 69.8598 109.311 69.8598C104.653 69.8598 100.935 61.7736 100.935 56.7732C100.935 51.7728 104.597 51.0076 109.311 51.7507C113.911 52.4762 117.744 55.8034 117.744 60.8053Z" fill="#FBA489"/>
<path id="Vector_85" d="M153.25 60.8053C153.25 65.8056 157.026 69.8598 161.685 69.8598C166.342 69.8598 170.061 61.7736 170.061 56.7732C170.061 51.7728 166.398 51.0076 161.685 51.7507C157.082 52.4762 153.25 55.8034 153.25 60.8053Z" fill="#FBA489"/>
</g>
<path id="Vector_86" d="M161.937 35.6281C158.712 26.2778 135.497 25.9556 135.497 25.9556C135.497 25.9556 112.282 26.2778 109.057 35.6281C105.833 44.9785 106.155 64.3251 110.992 73.6754C115.83 83.0257 124.858 90.7647 135.498 90.7647C146.139 90.7647 155.167 83.0257 160.004 73.6754C164.838 64.3251 165.161 44.9785 161.937 35.6281Z" fill="#FBA489"/>
<g id="Group_21">
<path id="Vector_87" d="M123.816 56.4658C123.816 58.5907 122.456 60.3139 120.78 60.3139C119.104 60.3139 117.744 58.5907 117.744 56.4658C117.744 54.3409 119.104 52.6177 120.78 52.6177C122.456 52.6177 123.816 54.3409 123.816 56.4658Z" fill="#081F51"/>
<path id="Vector_88" d="M153.25 56.4658C153.25 58.5907 151.89 60.3139 150.214 60.3139C148.538 60.3139 147.178 58.5907 147.178 56.4658C147.178 54.3409 148.538 52.6177 150.214 52.6177C151.89 52.6177 153.25 54.3409 153.25 56.4658Z" fill="#081F51"/>
</g>
<path id="Vector_89" d="M135.496 66.4814C133.842 66.4814 132.494 65.7589 132.029 64.7817C131.923 65.0054 131.812 65.2306 131.812 65.4778C131.812 66.8007 133.461 67.8735 135.496 67.8735C137.53 67.8735 139.179 66.8007 139.179 65.4778C139.179 65.2306 139.07 65.0069 138.963 64.7817C138.498 65.7589 137.151 66.4814 135.496 66.4814Z" fill="#E4776D"/>
<path id="Vector_90" d="M122.357 66.3272C122.357 68.642 120.464 70.5198 118.128 70.5198C115.793 70.5198 113.899 68.6435 113.899 66.3272C113.899 64.0125 115.793 62.1362 118.128 62.1362C120.465 62.1362 122.357 64.0125 122.357 66.3272Z" fill="#3BBCA7"/>
<path id="Vector_91" d="M152.863 70.5198C155.198 70.5198 157.092 68.6427 157.092 66.3272C157.092 64.0118 155.198 62.1348 152.863 62.1348C150.527 62.1348 148.633 64.0118 148.633 66.3272C148.633 68.6427 150.527 70.5198 152.863 70.5198Z" fill="#3BBCA7"/>
<path id="Vector_92" d="M184.303 110.127C170.972 104.437 159.983 102.393 151.817 101.88C150.389 105.2 143.638 107.721 135.496 107.721C127.354 107.721 120.604 105.2 119.175 101.88C111.009 102.395 100.019 104.439 86.6885 110.127C86.6885 110.127 99.5293 159.89 100.406 176.267C100.863 184.797 100.595 192.329 100.22 198.002H173.028C172.654 192.331 172.385 184.797 172.841 176.267C173.72 159.889 184.303 110.127 184.303 110.127Z" fill="#081F51"/>
<g id="Group_22">
<path id="Vector_93" d="M115.992 50.9797C115.784 50.9797 115.577 50.8987 115.421 50.7369C115.119 50.4205 115.129 49.9216 115.446 49.62C115.491 49.5773 120.066 45.2995 125.964 48.7238C126.341 48.9431 126.471 49.4272 126.251 49.8039C126.034 50.1836 125.549 50.3116 125.171 50.0909C120.286 47.2537 116.573 50.7251 116.539 50.7619C116.385 50.9061 116.187 50.9797 115.992 50.9797Z" fill="#081F51"/>
</g>
<g id="Group_23">
<path id="Vector_94" d="M155.001 50.9786C154.806 50.9786 154.611 50.9064 154.458 50.7622C154.307 50.618 150.668 47.2717 145.823 50.0897C145.449 50.3105 144.964 50.1825 144.743 49.8028C144.524 49.4261 144.653 48.9419 145.03 48.7227C150.918 45.2998 155.505 49.5762 155.549 49.6189C155.864 49.9191 155.875 50.4179 155.575 50.7328C155.419 50.8962 155.21 50.9786 155.001 50.9786Z" fill="#081F51"/>
</g>
<path id="Vector_95" d="M164.569 24.6404C160.134 16.616 152.506 12.6707 144.453 11.6568C141.481 11.283 138.362 11.18 135.237 11.3669C132.111 11.18 128.993 11.283 126.02 11.6568C117.966 12.6707 110.339 16.616 105.903 24.6404C103.435 29.1037 102.071 35.8875 104.508 40.3846C104.552 40.4656 104.608 40.5259 104.653 40.6039C104.961 42.2447 105.333 43.8722 105.822 45.4674C106.275 46.9463 107.315 62.6582 108.263 68.5724C108.261 68.5709 108.26 68.5695 108.26 68.5695C108.666 72.2499 109.726 80.5406 110.991 82.9849C115.828 92.3352 124.856 96.1774 135.497 96.1774C146.138 96.1774 155.166 92.3352 160.003 82.9849C161.092 80.8806 162.205 74.0408 162.495 69.8571C162.514 69.863 162.533 69.8483 162.552 69.8571C162.55 69.8571 162.559 69.0139 162.568 68.0588V68.0529C162.581 66.7742 162.596 65.2908 162.595 65.2967C163.725 60.0006 164.043 54.5058 164.686 49.1346C165.006 46.4519 164.914 43.8016 165.755 41.2249C165.889 40.8173 166.004 40.4008 166.129 39.9888C168.297 35.4991 166.969 28.98 164.569 24.6404ZM148.632 73.586C148.166 73.4786 139.65 67.872 135.496 67.872C130.35 67.872 125.504 73.0151 121.155 74.0672C117.553 74.9399 114.301 73.6405 111.495 71.5141C111.499 71.5067 111.509 71.5023 111.514 71.495C111.636 71.2728 111.631 63.3086 111.625 63.0555C111.571 60.6554 111.674 58.2524 111.935 55.8655C112.126 54.1026 112.408 52.3293 113.078 50.687C113.871 48.7416 115.176 47.0552 116.464 45.3968C118.286 43.0526 120.106 40.7084 121.928 38.3627C122.316 37.8624 122.706 37.3312 123.055 36.7808C125.283 35.3975 127.667 34.5175 130.019 35.1532C131.751 35.6212 133.334 36.875 135.037 37.5283C135.101 37.5534 135.171 37.5651 135.237 37.5887C135.303 37.5651 135.372 37.5534 135.437 37.5283C137.139 36.875 138.723 35.6212 140.455 35.1532C143.177 34.4189 145.939 35.7051 148.456 37.4636C148.675 37.7711 148.899 38.0728 149.124 38.3612L154.588 45.3953C155.877 47.0537 157.181 48.7402 157.974 50.6856C158.643 52.3278 158.926 54.1011 159.117 55.864C159.376 58.2509 159.479 60.6539 159.426 63.054C159.422 63.2674 159.417 68.933 159.49 70.8548C156.377 73.202 152.716 74.5293 148.632 73.586Z" fill="#081F51"/>
<g id="Group_24">
<path id="Vector_96" d="M126.185 73.8257C127.156 76.2287 129.89 81.4248 135.496 81.4248C141.104 81.4248 143.836 76.2302 144.806 73.8257H126.185Z" fill="white"/>
</g>
<path id="Vector_97" d="M71.7887 170.833C71.7887 170.833 84.5575 165.807 90.5467 174.344C93.9357 179.173 100.958 188.689 102.892 188.36C102.892 188.36 97.5941 199.204 94.0726 200.755C94.0726 200.755 71.2928 196.554 68.6911 186.528C65.8642 175.626 71.7887 170.833 71.7887 170.833Z" fill="#081F51"/>
<path id="Vector_98" d="M191.959 218.696H79.0317L103.688 199.722H167.303L191.959 218.696Z" fill="#DEDEDE"/>
<path id="Vector_99" d="M202.246 171.121C202.246 171.121 189.477 166.096 183.488 174.632C180.099 179.462 173.077 188.977 171.143 188.649C171.143 188.649 176.441 199.493 179.962 201.044C179.962 201.044 206.471 197.112 205.344 186.817C204.215 176.522 202.246 171.121 202.246 171.121Z" fill="#081F51"/>
<g id="Group_25">
<path id="Vector_100" d="M173.893 188.649L159.223 184.144C159.223 184.144 154.538 193.874 169.083 203.598C170.632 204.634 180.099 200.659 180.099 200.659C179.812 199.856 173.893 188.649 173.893 188.649Z" fill="#FBA489"/>
<g id="Group_26">
<path id="Vector_101" d="M167.237 204.729L173.6 201.047C174.849 200.324 174.989 198.632 173.915 197.266L173.875 197.216C172.801 195.851 170.917 195.33 169.669 196.052L163.306 199.734C162.058 200.457 161.917 202.149 162.991 203.515L163.031 203.565C164.105 204.929 165.989 205.45 167.237 204.729Z" fill="#FBA489"/>
<path id="Vector_102" d="M150.11 194.806L159.432 189.957C161.261 189.006 162.017 187.024 161.121 185.53L161.089 185.476C160.193 183.982 157.982 183.542 156.155 184.495L146.832 189.343C145.003 190.294 144.247 192.276 145.143 193.77L145.175 193.824C146.07 195.318 148.28 195.758 150.11 194.806Z" fill="#FBA489"/>
<path id="Vector_103" d="M151.373 201.223L163.495 194.919C165.873 193.681 167.075 191.468 166.177 189.975L166.145 189.92C165.249 188.426 162.594 188.219 160.214 189.455L148.093 195.759C145.715 196.997 144.513 199.21 145.409 200.704L145.441 200.758C146.341 202.253 148.995 202.461 151.373 201.223Z" fill="#FBA489"/>
<path id="Vector_104" d="M159.349 204.15L169.318 198.966C171.273 197.949 172.133 195.912 171.237 194.42L171.204 194.366C170.308 192.872 167.995 192.487 166.039 193.503L156.071 198.688C154.115 199.705 153.256 201.741 154.152 203.235L154.184 203.289C155.08 204.782 157.394 205.169 159.349 204.15Z" fill="#FBA489"/>
</g>
</g>
<g id="Group_27">
<path id="Vector_105" d="M105.331 202.722L95.8673 201.288C94.0102 201.007 92.7049 199.461 92.9506 197.833L92.9595 197.774C93.2052 196.147 94.9108 195.055 96.7679 195.337L106.232 196.771C108.089 197.052 109.394 198.599 109.148 200.226L109.139 200.285C108.894 201.911 107.188 203.003 105.331 202.722Z" fill="#FBA489"/>
<path id="Vector_106" d="M110.195 187.258L97.526 187.782C95.0405 187.885 92.9598 186.405 92.8803 184.476L92.8773 184.405C92.7979 182.476 94.7477 180.829 97.2332 180.726L109.902 180.202C112.387 180.099 114.468 181.58 114.548 183.509L114.551 183.58C114.63 185.509 112.68 187.155 110.195 187.258Z" fill="#FBA489"/>
<g id="Group_28">
<path id="Vector_107" d="M92.1602 156.436L87.0396 159.596L117.161 208.403L122.282 205.243L92.1602 156.436Z" fill="#0071DC"/>
<path id="Vector_108" d="M92.1611 156.353L87.041 159.514L95.6593 173.474L100.779 170.314L92.1611 156.353Z" fill="#BBBBBB"/>
<path id="Vector_109" d="M92.1611 156.355L87.041 159.516L88.72 162.235L93.84 159.074L92.1611 156.355Z" fill="#FFC221"/>
<path id="Vector_110" d="M97.3466 164.751L92.2266 167.912L100.574 181.433L105.694 178.272L97.3466 164.751Z" fill="#FFC221"/>
<path id="Vector_111" d="M122.7 211.595L117.164 208.355L122.285 205.194L122.7 211.595Z" fill="#081F51"/>
</g>
<path id="Vector_112" d="M104.591 187.506L93.4001 183.59C91.2045 182.822 89.9405 180.722 90.5776 178.9L90.6012 178.834C91.2384 177.012 93.5355 176.157 95.731 176.926L106.924 180.84C109.119 181.608 110.383 183.708 109.746 185.531L109.723 185.598C109.084 187.419 106.787 188.274 104.591 187.506Z" fill="#FBA489"/>
<path id="Vector_113" d="M107.759 195.886L93.2067 190.794C90.3519 189.795 88.5536 187.508 89.1908 185.686L89.2143 185.62C89.8515 183.798 92.6828 183.13 95.5391 184.13L110.091 189.22C112.946 190.219 114.745 192.506 114.107 194.327L114.084 194.394C113.447 196.218 110.615 196.885 107.759 195.886Z" fill="#FBA489"/>
<path id="Vector_114" d="M107.533 199.223L94.7389 197.094C92.2284 196.676 90.4213 194.974 90.7009 193.292L90.7112 193.23C90.9908 191.548 93.2526 190.522 95.7631 190.94L108.555 193.069C111.066 193.487 112.873 195.19 112.593 196.872L112.583 196.934C112.305 198.616 110.043 199.641 107.533 199.223Z" fill="#FBA489"/>
</g>
<g id="Group_29">
<path id="Vector_115" d="M151.328 102.635C149.265 105.569 142.999 107.721 135.495 107.721C127.353 107.721 120.603 105.2 119.174 101.88H119.173L135.225 157.552L151.328 102.635Z" fill="#F3F4F0"/>
<path id="Vector_116" d="M121.834 115.386C121.834 115.386 113.736 122.081 117.26 126.651C120.937 131.419 135.325 157.551 135.325 157.551C135.325 157.551 119.922 103.616 119.174 101.878C116.427 102.052 113.332 102.42 109.962 103.02C106.902 110.893 121.834 115.386 121.834 115.386Z" fill="#354C68"/>
<path id="Vector_117" d="M148.718 115.386C148.718 115.386 156.816 122.081 153.291 126.651C149.614 131.419 135.227 157.551 135.227 157.551C135.227 157.551 150.628 103.616 151.377 101.878C154.126 102.052 157.219 102.42 160.589 103.02C163.65 110.893 148.718 115.386 148.718 115.386Z" fill="#354C68"/>
</g>
</g>
</g>
</svg>
