<svg width="101" height="101" viewBox="0 0 101 101" fill="none" xmlns="http://www.w3.org/2000/svg">
<circle cx="27.2834" cy="72.4425" r="3.32625" transform="rotate(-135 27.2834 72.4425)" fill="#EB6B09"/>
<circle cx="38.7443" cy="83.9034" r="3.32625" transform="rotate(-135 38.7443 83.9034)" fill="#EB6B09"/>
<circle cx="50.2047" cy="95.3637" r="3.32625" transform="rotate(-135 50.2047 95.3637)" fill="#EB6B09"/>
<circle cx="15.9938" cy="61.1528" r="3.32625" transform="rotate(-135 15.9938 61.1528)" fill="#EB6B09"/>
<circle cx="4.7041" cy="49.8632" r="3.32625" transform="rotate(-135 4.7041 49.8632)" fill="#EB6B09"/>
<circle cx="38.5731" cy="61.1528" r="3.32625" transform="rotate(-135 38.5731 61.1528)" fill="#EB6B09"/>
<circle cx="50.034" cy="72.6136" r="3.32625" transform="rotate(-135 50.034 72.6136)" fill="#EB6B09"/>
<circle cx="61.4944" cy="84.074" r="3.32625" transform="rotate(-135 61.4944 84.074)" fill="#EB6B09"/>
<circle cx="27.2834" cy="49.8631" r="3.32625" transform="rotate(-135 27.2834 49.8631)" fill="#EB6B09"/>
<circle cx="15.9938" cy="38.5734" r="3.32625" transform="rotate(-135 15.9938 38.5734)" fill="#EB6B09"/>
<circle cx="49.8627" cy="49.8631" r="3.32625" transform="rotate(-135 49.8627 49.8631)" fill="#EB6B09"/>
<circle cx="61.3236" cy="61.324" r="3.32625" transform="rotate(-135 61.3236 61.324)" fill="#EB6B09"/>
<circle cx="72.784" cy="72.7844" r="3.32625" transform="rotate(-135 72.784 72.7844)" fill="#EB6B09"/>
<circle cx="38.5731" cy="38.5734" r="3.32625" transform="rotate(-135 38.5731 38.5734)" fill="#EB6B09"/>
<circle cx="27.2834" cy="27.2839" r="3.32625" transform="rotate(-135 27.2834 27.2839)" fill="#EB6B09"/>
<circle cx="61.1525" cy="38.5734" r="3.32625" transform="rotate(-135 61.1525 38.5734)" fill="#EB6B09"/>
<circle cx="72.6133" cy="50.0343" r="3.32625" transform="rotate(-135 72.6133 50.0343)" fill="#EB6B09"/>
<circle cx="84.0737" cy="61.4947" r="3.32625" transform="rotate(-135 84.0737 61.4947)" fill="#EB6B09"/>
<circle cx="49.8628" cy="27.2838" r="3.32625" transform="rotate(-135 49.8628 27.2838)" fill="#EB6B09"/>
<circle cx="38.5732" cy="15.9941" r="3.32625" transform="rotate(-135 38.5732 15.9941)" fill="#EB6B09"/>
<circle cx="72.4421" cy="27.2838" r="3.32625" transform="rotate(-135 72.4421 27.2838)" fill="#EB6B09"/>
<circle cx="83.903" cy="38.7447" r="3.32625" transform="rotate(-135 83.903 38.7447)" fill="#EB6B09"/>
<circle cx="95.3633" cy="50.205" r="3.32625" transform="rotate(-135 95.3633 50.205)" fill="#EB6B09"/>
<circle cx="61.1525" cy="15.9941" r="3.32625" transform="rotate(-135 61.1525 15.9941)" fill="#EB6B09"/>
<circle cx="49.8628" cy="4.70454" r="3.32625" transform="rotate(-135 49.8628 4.70454)" fill="#EB6B09"/>
</svg>
