<svg width="938" height="918" viewBox="0 0 938 918" fill="none" xmlns="http://www.w3.org/2000/svg">
<g id="Group 60">
<path id="object" fill-rule="evenodd" clip-rule="evenodd" d="M114.873 560.871C74.6323 433.878 158.577 314.182 262.374 225.704C383.463 122.488 537.82 4.72562 672.205 85.7972C811.338 169.733 790.692 360.909 744.787 516.733C700.863 665.83 610.746 817.515 453.396 828.54C291.938 839.853 162.591 711.463 114.873 560.871Z" fill="#F2F2F2"/>
<g id="circles">
<circle id="dot" cx="783.326" cy="120.258" r="3.32625" transform="rotate(-90 783.326 120.258)" fill="#0364FF"/>
<circle id="dot_2" cx="783.326" cy="136.467" r="3.32625" transform="rotate(-90 783.326 136.467)" fill="#0364FF"/>
<circle id="dot_3" cx="783.326" cy="152.674" r="3.32625" transform="rotate(-90 783.326 152.674)" fill="#0364FF"/>
<circle id="dot_4" cx="783.326" cy="104.293" r="3.32625" transform="rotate(-90 783.326 104.293)" fill="#0364FF"/>
<circle id="dot_5" cx="783.326" cy="88.3265" r="3.32625" transform="rotate(-90 783.326 88.3265)" fill="#0364FF"/>
<circle id="dot_6" cx="799.292" cy="120.258" r="3.32625" transform="rotate(-90 799.292 120.258)" fill="#0364FF"/>
<circle id="dot_7" cx="799.292" cy="136.467" r="3.32625" transform="rotate(-90 799.292 136.467)" fill="#0364FF"/>
<circle id="dot_8" cx="799.292" cy="152.674" r="3.32625" transform="rotate(-90 799.292 152.674)" fill="#0364FF"/>
<circle id="dot_9" cx="799.292" cy="104.293" r="3.32625" transform="rotate(-90 799.292 104.293)" fill="#0364FF"/>
<circle id="dot_10" cx="799.292" cy="88.3265" r="3.32625" transform="rotate(-90 799.292 88.3265)" fill="#0364FF"/>
<circle id="dot_11" cx="815.258" cy="120.258" r="3.32625" transform="rotate(-90 815.258 120.258)" fill="#0364FF"/>
<circle id="dot_12" cx="815.258" cy="136.467" r="3.32625" transform="rotate(-90 815.258 136.467)" fill="#0364FF"/>
<circle id="dot_13" cx="815.258" cy="152.674" r="3.32625" transform="rotate(-90 815.258 152.674)" fill="#0364FF"/>
<circle id="dot_14" cx="815.258" cy="104.293" r="3.32625" transform="rotate(-90 815.258 104.293)" fill="#0364FF"/>
<circle id="dot_15" cx="815.258" cy="88.3265" r="3.32625" transform="rotate(-90 815.258 88.3265)" fill="#0364FF"/>
<circle id="dot_16" cx="831.224" cy="120.258" r="3.32625" transform="rotate(-90 831.224 120.258)" fill="#0364FF"/>
<circle id="dot_17" cx="831.224" cy="136.467" r="3.32625" transform="rotate(-90 831.224 136.467)" fill="#0364FF"/>
<circle id="dot_18" cx="831.224" cy="152.674" r="3.32625" transform="rotate(-90 831.224 152.674)" fill="#0364FF"/>
<circle id="dot_19" cx="831.224" cy="104.293" r="3.32625" transform="rotate(-90 831.224 104.293)" fill="#0364FF"/>
<circle id="dot_20" cx="831.224" cy="88.3265" r="3.32625" transform="rotate(-90 831.224 88.3265)" fill="#0364FF"/>
<circle id="dot_21" cx="847.19" cy="120.258" r="3.32625" transform="rotate(-90 847.19 120.258)" fill="#0364FF"/>
<circle id="dot_22" cx="847.19" cy="136.467" r="3.32625" transform="rotate(-90 847.19 136.467)" fill="#0364FF"/>
<circle id="dot_23" cx="847.19" cy="152.674" r="3.32625" transform="rotate(-90 847.19 152.674)" fill="#0364FF"/>
<circle id="dot_24" cx="847.19" cy="104.293" r="3.32625" transform="rotate(-90 847.19 104.293)" fill="#0364FF"/>
<circle id="dot_25" cx="847.19" cy="88.3265" r="3.32625" transform="rotate(-90 847.19 88.3265)" fill="#0364FF"/>
</g>
<g id="circles_2">
<circle id="dot_26" cx="91.2834" cy="749.442" r="3.32625" transform="rotate(-135 91.2834 749.442)" fill="#EB6B09"/>
<circle id="dot_27" cx="102.744" cy="760.903" r="3.32625" transform="rotate(-135 102.744 760.903)" fill="#EB6B09"/>
<circle id="dot_28" cx="114.205" cy="772.364" r="3.32625" transform="rotate(-135 114.205 772.364)" fill="#EB6B09"/>
<circle id="dot_29" cx="79.9938" cy="738.153" r="3.32625" transform="rotate(-135 79.9938 738.153)" fill="#EB6B09"/>
<circle id="dot_30" cx="68.7041" cy="726.863" r="3.32625" transform="rotate(-135 68.7041 726.863)" fill="#EB6B09"/>
<circle id="dot_31" cx="102.573" cy="738.153" r="3.32625" transform="rotate(-135 102.573 738.153)" fill="#EB6B09"/>
<circle id="dot_32" cx="114.034" cy="749.614" r="3.32625" transform="rotate(-135 114.034 749.614)" fill="#EB6B09"/>
<circle id="dot_33" cx="125.494" cy="761.074" r="3.32625" transform="rotate(-135 125.494 761.074)" fill="#EB6B09"/>
<circle id="dot_34" cx="91.2834" cy="726.863" r="3.32625" transform="rotate(-135 91.2834 726.863)" fill="#EB6B09"/>
<circle id="dot_35" cx="79.9938" cy="715.573" r="3.32625" transform="rotate(-135 79.9938 715.573)" fill="#EB6B09"/>
<circle id="dot_36" cx="113.863" cy="726.863" r="3.32625" transform="rotate(-135 113.863 726.863)" fill="#EB6B09"/>
<circle id="dot_37" cx="125.324" cy="738.324" r="3.32625" transform="rotate(-135 125.324 738.324)" fill="#EB6B09"/>
<circle id="dot_38" cx="136.784" cy="749.784" r="3.32625" transform="rotate(-135 136.784 749.784)" fill="#EB6B09"/>
<circle id="dot_39" cx="102.573" cy="715.573" r="3.32625" transform="rotate(-135 102.573 715.573)" fill="#EB6B09"/>
<circle id="dot_40" cx="91.2834" cy="704.284" r="3.32625" transform="rotate(-135 91.2834 704.284)" fill="#EB6B09"/>
<circle id="dot_41" cx="125.152" cy="715.573" r="3.32625" transform="rotate(-135 125.152 715.573)" fill="#EB6B09"/>
<circle id="dot_42" cx="136.613" cy="727.034" r="3.32625" transform="rotate(-135 136.613 727.034)" fill="#EB6B09"/>
<circle id="dot_43" cx="148.074" cy="738.495" r="3.32625" transform="rotate(-135 148.074 738.495)" fill="#EB6B09"/>
<circle id="dot_44" cx="113.863" cy="704.284" r="3.32625" transform="rotate(-135 113.863 704.284)" fill="#EB6B09"/>
<circle id="dot_45" cx="102.573" cy="692.994" r="3.32625" transform="rotate(-135 102.573 692.994)" fill="#EB6B09"/>
<circle id="dot_46" cx="136.442" cy="704.284" r="3.32625" transform="rotate(-135 136.442 704.284)" fill="#EB6B09"/>
<circle id="dot_47" cx="147.903" cy="715.745" r="3.32625" transform="rotate(-135 147.903 715.745)" fill="#EB6B09"/>
<circle id="dot_48" cx="159.363" cy="727.205" r="3.32625" transform="rotate(-135 159.363 727.205)" fill="#EB6B09"/>
<circle id="dot_49" cx="125.152" cy="692.994" r="3.32625" transform="rotate(-135 125.152 692.994)" fill="#EB6B09"/>
<circle id="dot_50" cx="113.863" cy="681.705" r="3.32625" transform="rotate(-135 113.863 681.705)" fill="#EB6B09"/>
</g>
</g>
</svg>
